%TF.GenerationSoftware,KiCad,Pcbnew,(5.1.6)-1*%
%TF.CreationDate,2022-01-15T22:49:59+01:00*%
%TF.ProjectId,XPS15,58505331-352e-46b6-9963-61645f706362,rev?*%
%TF.SameCoordinates,Original*%
%TF.FileFunction,Legend,Top*%
%TF.FilePolarity,Positive*%
%FSLAX46Y46*%
G04 Gerber Fmt 4.6, Leading zero omitted, Abs format (unit mm)*
G04 Created by KiCad (PCBNEW (5.1.6)-1) date 2022-01-15 22:49:59*
%MOMM*%
%LPD*%
G01*
G04 APERTURE LIST*
%ADD10C,0.200000*%
%ADD11C,0.100000*%
%ADD12C,0.250000*%
%ADD13C,0.254000*%
%ADD14C,0.150000*%
G04 APERTURE END LIST*
D10*
%TO.C,R7*%
X140540620Y-117030500D02*
G75*
G03*
X140540620Y-117030500I-50000J0D01*
G01*
%TO.C,R6*%
X140055480Y-118587520D02*
G75*
G03*
X140055480Y-118587520I-50000J0D01*
G01*
%TO.C,R2*%
X139630800Y-131000500D02*
G75*
G03*
X139630800Y-131000500I-50000J0D01*
G01*
%TO.C,R1*%
X140505060Y-129377440D02*
G75*
G03*
X140505060Y-129377440I-50000J0D01*
G01*
%TO.C,IC2*%
X134670860Y-127216520D02*
X134670860Y-125741520D01*
X139695860Y-125391520D02*
X134695860Y-125391520D01*
X139695860Y-121691520D02*
X139695860Y-125391520D01*
X134695860Y-121691520D02*
X139695860Y-121691520D01*
X134695860Y-125391520D02*
X134695860Y-121691520D01*
D11*
%TO.C,J1*%
X141150000Y-115490000D02*
X141150000Y-114890000D01*
X141150000Y-114890000D02*
X144600000Y-114890000D01*
X144600000Y-114890000D02*
X144600000Y-115090000D01*
X144600000Y-131090000D02*
X144600000Y-131290000D01*
X144600000Y-131290000D02*
X141150000Y-131290000D01*
X141150000Y-131290000D02*
X141150000Y-130690000D01*
D12*
%TO.C,IC1*%
X166430080Y-83405480D02*
G75*
G03*
X166430080Y-83405480I-125000J0D01*
G01*
D10*
%TO.C,R5*%
X141705800Y-82824880D02*
G75*
G03*
X141705800Y-82824880I-50000J0D01*
G01*
%TO.C,R4*%
X144175240Y-82824400D02*
G75*
G03*
X144175240Y-82824400I-50000J0D01*
G01*
%TO.C,R3*%
X142858960Y-82824300D02*
G75*
G03*
X142858960Y-82824300I-50000J0D01*
G01*
%TO.C,IC2*%
D13*
X137770383Y-124781281D02*
X136500383Y-124781281D01*
X137649431Y-123450805D02*
X137709907Y-123511281D01*
X137770383Y-123692710D01*
X137770383Y-123813662D01*
X137709907Y-123995091D01*
X137588955Y-124116043D01*
X137468002Y-124176520D01*
X137226098Y-124236996D01*
X137044669Y-124236996D01*
X136802764Y-124176520D01*
X136681812Y-124116043D01*
X136560860Y-123995091D01*
X136500383Y-123813662D01*
X136500383Y-123692710D01*
X136560860Y-123511281D01*
X136621336Y-123450805D01*
X136621336Y-122966996D02*
X136560860Y-122906520D01*
X136500383Y-122785567D01*
X136500383Y-122483186D01*
X136560860Y-122362234D01*
X136621336Y-122301758D01*
X136742288Y-122241281D01*
X136863240Y-122241281D01*
X137044669Y-122301758D01*
X137770383Y-123027472D01*
X137770383Y-122241281D01*
%TO.C,J1*%
X142079523Y-123513333D02*
X142986666Y-123513333D01*
X143168095Y-123573809D01*
X143289047Y-123694761D01*
X143349523Y-123876190D01*
X143349523Y-123997142D01*
X143349523Y-122243333D02*
X143349523Y-122969047D01*
X143349523Y-122606190D02*
X142079523Y-122606190D01*
X142260952Y-122727142D01*
X142381904Y-122848095D01*
X142442380Y-122969047D01*
%TO.C,IC1*%
X160690318Y-79980003D02*
X160690318Y-78710003D01*
X162020794Y-79859051D02*
X161960318Y-79919527D01*
X161778889Y-79980003D01*
X161657937Y-79980003D01*
X161476508Y-79919527D01*
X161355556Y-79798575D01*
X161295080Y-79677622D01*
X161234603Y-79435718D01*
X161234603Y-79254289D01*
X161295080Y-79012384D01*
X161355556Y-78891432D01*
X161476508Y-78770480D01*
X161657937Y-78710003D01*
X161778889Y-78710003D01*
X161960318Y-78770480D01*
X162020794Y-78830956D01*
X163230318Y-79980003D02*
X162504603Y-79980003D01*
X162867460Y-79980003D02*
X162867460Y-78710003D01*
X162746508Y-78891432D01*
X162625556Y-79012384D01*
X162504603Y-79072860D01*
%TO.C,U2*%
D14*
X161691415Y-87783420D02*
X161691415Y-88592944D01*
X161739034Y-88688182D01*
X161786653Y-88735801D01*
X161881891Y-88783420D01*
X162072367Y-88783420D01*
X162167605Y-88735801D01*
X162215224Y-88688182D01*
X162262843Y-88592944D01*
X162262843Y-87783420D01*
X162691415Y-87878659D02*
X162739034Y-87831040D01*
X162834272Y-87783420D01*
X163072367Y-87783420D01*
X163167605Y-87831040D01*
X163215224Y-87878659D01*
X163262843Y-87973897D01*
X163262843Y-88069135D01*
X163215224Y-88211992D01*
X162643796Y-88783420D01*
X163262843Y-88783420D01*
%TD*%
M02*
