%TF.GenerationSoftware,KiCad,Pcbnew,(5.1.6)-1*%
%TF.CreationDate,2022-01-15T22:49:59+01:00*%
%TF.ProjectId,XPS15,58505331-352e-46b6-9963-61645f706362,rev?*%
%TF.SameCoordinates,Original*%
%TF.FileFunction,Copper,L1,Top*%
%TF.FilePolarity,Positive*%
%FSLAX46Y46*%
G04 Gerber Fmt 4.6, Leading zero omitted, Abs format (unit mm)*
G04 Created by KiCad (PCBNEW (5.1.6)-1) date 2022-01-15 22:49:59*
%MOMM*%
%LPD*%
G01*
G04 APERTURE LIST*
%TA.AperFunction,SMDPad,CuDef*%
%ADD10R,1.150000X1.150000*%
%TD*%
%TA.AperFunction,SMDPad,CuDef*%
%ADD11R,0.450000X1.475000*%
%TD*%
%TA.AperFunction,SMDPad,CuDef*%
%ADD12R,0.460000X0.420000*%
%TD*%
%TA.AperFunction,SMDPad,CuDef*%
%ADD13R,0.650000X0.240000*%
%TD*%
%TA.AperFunction,SMDPad,CuDef*%
%ADD14R,4.450000X4.450000*%
%TD*%
%TA.AperFunction,SMDPad,CuDef*%
%ADD15R,0.300000X0.850000*%
%TD*%
%TA.AperFunction,SMDPad,CuDef*%
%ADD16R,0.850000X0.300000*%
%TD*%
%TA.AperFunction,SMDPad,CuDef*%
%ADD17R,0.500000X0.475000*%
%TD*%
%TA.AperFunction,SMDPad,CuDef*%
%ADD18R,0.700000X1.400000*%
%TD*%
%TA.AperFunction,SMDPad,CuDef*%
%ADD19R,0.400000X0.800000*%
%TD*%
%TA.AperFunction,ViaPad*%
%ADD20C,0.350000*%
%TD*%
%TA.AperFunction,Conductor*%
%ADD21C,0.150000*%
%TD*%
%TA.AperFunction,Conductor*%
%ADD22C,0.200000*%
%TD*%
%TA.AperFunction,Conductor*%
%ADD23C,0.250000*%
%TD*%
%TA.AperFunction,Conductor*%
%ADD24C,0.300000*%
%TD*%
%TA.AperFunction,Conductor*%
%ADD25C,0.254000*%
%TD*%
G04 APERTURE END LIST*
D10*
%TO.P,R7,2*%
%TO.N,SCL*%
X137040620Y-117030500D03*
%TO.P,R7,1*%
%TO.N,VCC*%
X139390620Y-117030500D03*
%TD*%
%TO.P,R6,2*%
%TO.N,SDA*%
X136555480Y-118587520D03*
%TO.P,R6,1*%
%TO.N,VCC*%
X138905480Y-118587520D03*
%TD*%
%TO.P,R2,2*%
%TO.N,SDA-C*%
X136130800Y-131000500D03*
%TO.P,R2,1*%
%TO.N,+1V8*%
X138480800Y-131000500D03*
%TD*%
%TO.P,R1,2*%
%TO.N,SCL-C*%
X137005060Y-129377440D03*
%TO.P,R1,1*%
%TO.N,+1V8*%
X139355060Y-129377440D03*
%TD*%
D11*
%TO.P,IC2,14*%
%TO.N,VCC*%
X135245860Y-120603520D03*
%TO.P,IC2,13*%
%TO.N,OE*%
X135895860Y-120603520D03*
%TO.P,IC2,12*%
%TO.N,reset*%
X136545860Y-120603520D03*
%TO.P,IC2,11*%
%TO.N,SDA*%
X137195860Y-120603520D03*
%TO.P,IC2,10*%
%TO.N,SCL*%
X137845860Y-120603520D03*
%TO.P,IC2,9*%
%TO.N,Net-(IC2-Pad9)*%
X138495860Y-120603520D03*
%TO.P,IC2,8*%
%TO.N,OE-NTS*%
X139145860Y-120603520D03*
%TO.P,IC2,7*%
%TO.N,GND*%
X139145860Y-126479520D03*
%TO.P,IC2,6*%
%TO.N,Net-(IC2-Pad6)*%
X138495860Y-126479520D03*
%TO.P,IC2,5*%
%TO.N,SCL-C*%
X137845860Y-126479520D03*
%TO.P,IC2,4*%
%TO.N,SDA-C*%
X137195860Y-126479520D03*
%TO.P,IC2,3*%
%TO.N,reset-C*%
X136545860Y-126479520D03*
%TO.P,IC2,2*%
%TO.N,OE-C*%
X135895860Y-126479520D03*
%TO.P,IC2,1*%
%TO.N,+1V8*%
X135245860Y-126479520D03*
%TD*%
D12*
%TO.P,C3,2*%
%TO.N,VCC*%
X135175860Y-118593520D03*
%TO.P,C3,1*%
%TO.N,GND*%
X134515860Y-118593520D03*
%TD*%
%TO.P,C2,2*%
%TO.N,GND*%
X134515860Y-119303520D03*
%TO.P,C2,1*%
%TO.N,VCC*%
X135175860Y-119303520D03*
%TD*%
%TO.P,C1,2*%
%TO.N,+1V8*%
X135145860Y-127873520D03*
%TO.P,C1,1*%
%TO.N,GND*%
X134485860Y-127873520D03*
%TD*%
D13*
%TO.P,J1,51*%
%TO.N,GND*%
X144425000Y-115590000D03*
%TO.P,J1,50*%
X141375000Y-115890000D03*
%TO.P,J1,49*%
X144425000Y-116190000D03*
%TO.P,J1,48*%
X141375000Y-116490000D03*
%TO.P,J1,47*%
%TO.N,VCC*%
X144425000Y-116790000D03*
%TO.P,J1,46*%
X141375000Y-117090000D03*
%TO.P,J1,45*%
X144425000Y-117390000D03*
%TO.P,J1,44*%
X141375000Y-117690000D03*
%TO.P,J1,43*%
X144425000Y-117990000D03*
%TO.P,J1,42*%
X141375000Y-118290000D03*
%TO.P,J1,41*%
%TO.N,GND*%
X144425000Y-118590000D03*
%TO.P,J1,40*%
X141375000Y-118890000D03*
%TO.P,J1,39*%
%TO.N,+1V8*%
X144425000Y-119190000D03*
%TO.P,J1,38*%
X141375000Y-119490000D03*
%TO.P,J1,37*%
%TO.N,GND*%
X144425000Y-119790000D03*
%TO.P,J1,36*%
X141375000Y-120090000D03*
%TO.P,J1,35*%
%TO.N,Net-(J1-Pad35)*%
X144425000Y-120390000D03*
%TO.P,J1,34*%
%TO.N,Net-(J1-Pad34)*%
X141375000Y-120690000D03*
%TO.P,J1,33*%
%TO.N,GND*%
X144425000Y-120990000D03*
%TO.P,J1,32*%
%TO.N,reset-C*%
X141375000Y-121290000D03*
%TO.P,J1,31*%
%TO.N,OE-NTS*%
X144425000Y-121590000D03*
%TO.P,J1,30*%
%TO.N,Net-(J1-Pad30)*%
X141375000Y-121890000D03*
%TO.P,J1,29*%
%TO.N,Net-(J1-Pad29)*%
X144425000Y-122190000D03*
%TO.P,J1,28*%
%TO.N,Net-(J1-Pad28)*%
X141375000Y-122490000D03*
%TO.P,J1,27*%
%TO.N,Net-(J1-Pad27)*%
X144425000Y-122790000D03*
%TO.P,J1,26*%
%TO.N,Net-(J1-Pad26)*%
X141375000Y-123090000D03*
%TO.P,J1,25*%
%TO.N,Net-(J1-Pad25)*%
X144425000Y-123390000D03*
%TO.P,J1,24*%
%TO.N,Net-(J1-Pad24)*%
X141375000Y-123690000D03*
%TO.P,J1,23*%
%TO.N,Net-(J1-Pad23)*%
X144425000Y-123990000D03*
%TO.P,J1,22*%
%TO.N,Net-(J1-Pad22)*%
X141375000Y-124290000D03*
%TO.P,J1,21*%
%TO.N,OE-C*%
X144425000Y-124590000D03*
%TO.P,J1,20*%
%TO.N,Net-(J1-Pad20)*%
X141375000Y-124890000D03*
%TO.P,J1,19*%
%TO.N,Net-(J1-Pad19)*%
X144425000Y-125190000D03*
%TO.P,J1,18*%
%TO.N,Net-(J1-Pad18)*%
X141375000Y-125490000D03*
%TO.P,J1,17*%
%TO.N,SCL-C*%
X144425000Y-125790000D03*
%TO.P,J1,16*%
%TO.N,Net-(J1-Pad16)*%
X141375000Y-126090000D03*
%TO.P,J1,15*%
%TO.N,Net-(J1-Pad15)*%
X144425000Y-126390000D03*
%TO.P,J1,14*%
%TO.N,Net-(J1-Pad14)*%
X141375000Y-126690000D03*
%TO.P,J1,13*%
%TO.N,Net-(J1-Pad13)*%
X144425000Y-126990000D03*
%TO.P,J1,12*%
%TO.N,Net-(J1-Pad12)*%
X141375000Y-127290000D03*
%TO.P,J1,11*%
%TO.N,SDA-C*%
X144425000Y-127590000D03*
%TO.P,J1,10*%
%TO.N,Net-(J1-Pad10)*%
X141375000Y-127890000D03*
%TO.P,J1,9*%
%TO.N,Net-(J1-Pad9)*%
X144425000Y-128190000D03*
%TO.P,J1,8*%
%TO.N,Net-(J1-Pad8)*%
X141375000Y-128490000D03*
%TO.P,J1,7*%
%TO.N,Net-(J1-Pad7)*%
X144425000Y-128790000D03*
%TO.P,J1,6*%
%TO.N,Net-(J1-Pad6)*%
X141375000Y-129090000D03*
%TO.P,J1,5*%
%TO.N,Net-(J1-Pad5)*%
X144425000Y-129390000D03*
%TO.P,J1,4*%
%TO.N,Net-(J1-Pad4)*%
X141375000Y-129690000D03*
%TO.P,J1,3*%
%TO.N,Net-(J1-Pad3)*%
X144425000Y-129990000D03*
%TO.P,J1,2*%
%TO.N,Net-(J1-Pad2)*%
X141375000Y-130290000D03*
%TO.P,J1,1*%
%TO.N,Net-(J1-Pad1)*%
X144425000Y-130590000D03*
%TD*%
D14*
%TO.P,IC1,57*%
%TO.N,GND*%
X161930080Y-79405480D03*
D15*
%TO.P,IC1,56*%
%TO.N,pin4*%
X165180080Y-83355480D03*
%TO.P,IC1,55*%
%TO.N,GND*%
X164680080Y-83355480D03*
%TO.P,IC1,54*%
%TO.N,pin3*%
X164180080Y-83355480D03*
%TO.P,IC1,53*%
%TO.N,pin2*%
X163680080Y-83355480D03*
%TO.P,IC1,52*%
%TO.N,pin1*%
X163180080Y-83355480D03*
%TO.P,IC1,51*%
%TO.N,SCL*%
X162680080Y-83355480D03*
%TO.P,IC1,50*%
%TO.N,SDA*%
X162180080Y-83355480D03*
%TO.P,IC1,49*%
%TO.N,reset*%
X161680080Y-83355480D03*
%TO.P,IC1,48*%
%TO.N,INT*%
X161180080Y-83355480D03*
%TO.P,IC1,47*%
%TO.N,Net-(IC1-Pad47)*%
X160680080Y-83355480D03*
%TO.P,IC1,46*%
%TO.N,Net-(IC1-Pad46)*%
X160180080Y-83355480D03*
%TO.P,IC1,45*%
%TO.N,Net-(IC1-Pad45)*%
X159680080Y-83355480D03*
%TO.P,IC1,44*%
%TO.N,GND*%
X159180080Y-83355480D03*
%TO.P,IC1,43*%
%TO.N,Net-(IC1-Pad43)*%
X158680080Y-83355480D03*
D16*
%TO.P,IC1,42*%
%TO.N,Net-(IC1-Pad42)*%
X157980080Y-82655480D03*
%TO.P,IC1,41*%
%TO.N,Net-(IC1-Pad41)*%
X157980080Y-82155480D03*
%TO.P,IC1,40*%
%TO.N,Net-(IC1-Pad40)*%
X157980080Y-81655480D03*
%TO.P,IC1,39*%
%TO.N,VCC*%
X157980080Y-81155480D03*
%TO.P,IC1,38*%
%TO.N,Net-(IC1-Pad38)*%
X157980080Y-80655480D03*
%TO.P,IC1,37*%
%TO.N,Net-(IC1-Pad37)*%
X157980080Y-80155480D03*
%TO.P,IC1,36*%
%TO.N,Net-(IC1-Pad36)*%
X157980080Y-79655480D03*
%TO.P,IC1,35*%
%TO.N,pin30*%
X157980080Y-79155480D03*
%TO.P,IC1,34*%
%TO.N,pin29*%
X157980080Y-78655480D03*
%TO.P,IC1,33*%
%TO.N,pin28*%
X157980080Y-78155480D03*
%TO.P,IC1,32*%
%TO.N,GND*%
X157980080Y-77655480D03*
%TO.P,IC1,31*%
%TO.N,pin27*%
X157980080Y-77155480D03*
%TO.P,IC1,30*%
%TO.N,pin26*%
X157980080Y-76655480D03*
%TO.P,IC1,29*%
%TO.N,pin25*%
X157980080Y-76155480D03*
D15*
%TO.P,IC1,28*%
%TO.N,pin24*%
X158680080Y-75455480D03*
%TO.P,IC1,27*%
%TO.N,GND*%
X159180080Y-75455480D03*
%TO.P,IC1,26*%
%TO.N,pin23*%
X159680080Y-75455480D03*
%TO.P,IC1,25*%
%TO.N,pin22*%
X160180080Y-75455480D03*
%TO.P,IC1,24*%
%TO.N,pin21*%
X160680080Y-75455480D03*
%TO.P,IC1,23*%
%TO.N,OE*%
X161180080Y-75455480D03*
%TO.P,IC1,22*%
%TO.N,GND*%
X161680080Y-75455480D03*
%TO.P,IC1,21*%
X162180080Y-75455480D03*
%TO.P,IC1,20*%
X162680080Y-75455480D03*
%TO.P,IC1,19*%
%TO.N,pin20*%
X163180080Y-75455480D03*
%TO.P,IC1,18*%
%TO.N,pin19*%
X163680080Y-75455480D03*
%TO.P,IC1,17*%
%TO.N,pin18*%
X164180080Y-75455480D03*
%TO.P,IC1,16*%
%TO.N,GND*%
X164680080Y-75455480D03*
%TO.P,IC1,15*%
%TO.N,pin17*%
X165180080Y-75455480D03*
D16*
%TO.P,IC1,14*%
%TO.N,pin16*%
X165880080Y-76155480D03*
%TO.P,IC1,13*%
%TO.N,pin15*%
X165880080Y-76655480D03*
%TO.P,IC1,12*%
%TO.N,pin14*%
X165880080Y-77155480D03*
%TO.P,IC1,11*%
%TO.N,VCC*%
X165880080Y-77655480D03*
%TO.P,IC1,10*%
%TO.N,pin13*%
X165880080Y-78155480D03*
%TO.P,IC1,9*%
%TO.N,pin12*%
X165880080Y-78655480D03*
%TO.P,IC1,8*%
%TO.N,pin11*%
X165880080Y-79155480D03*
%TO.P,IC1,7*%
%TO.N,pin10*%
X165880080Y-79655480D03*
%TO.P,IC1,6*%
%TO.N,pin9*%
X165880080Y-80155480D03*
%TO.P,IC1,5*%
%TO.N,pin8*%
X165880080Y-80655480D03*
%TO.P,IC1,4*%
%TO.N,GND*%
X165880080Y-81155480D03*
%TO.P,IC1,3*%
%TO.N,pin7*%
X165880080Y-81655480D03*
%TO.P,IC1,2*%
%TO.N,pin6*%
X165880080Y-82155480D03*
%TO.P,IC1,1*%
%TO.N,pin5*%
X165880080Y-82655480D03*
%TD*%
D17*
%TO.P,R5,2*%
%TO.N,INT*%
X141655800Y-81199880D03*
%TO.P,R5,1*%
%TO.N,VCC*%
X141655800Y-82224880D03*
%TD*%
%TO.P,R4,2*%
%TO.N,reset*%
X144125240Y-81199400D03*
%TO.P,R4,1*%
%TO.N,VCC*%
X144125240Y-82224400D03*
%TD*%
%TO.P,R3,2*%
%TO.N,OE*%
X142808960Y-81199300D03*
%TO.P,R3,1*%
%TO.N,VCC*%
X142808960Y-82224300D03*
%TD*%
D18*
%TO.P,U2,31*%
%TO.N,GND*%
X174600000Y-87540000D03*
%TO.P,U2,32*%
X148300000Y-87540000D03*
D19*
%TO.P,U2,25*%
%TO.N,pin25*%
X153850000Y-90640000D03*
%TO.P,U2,23*%
%TO.N,pin23*%
X155450000Y-90640000D03*
%TO.P,U2,26*%
%TO.N,pin26*%
X153050000Y-90640000D03*
%TO.P,U2,21*%
%TO.N,pin21*%
X157050000Y-90640000D03*
%TO.P,U2,24*%
%TO.N,pin24*%
X154650000Y-90640000D03*
%TO.P,U2,22*%
%TO.N,pin22*%
X156250000Y-90640000D03*
%TO.P,U2,27*%
%TO.N,pin27*%
X152250000Y-90640000D03*
%TO.P,U2,28*%
%TO.N,pin28*%
X151450000Y-90640000D03*
%TO.P,U2,29*%
%TO.N,pin29*%
X150650000Y-90640000D03*
%TO.P,U2,30*%
%TO.N,pin30*%
X149850000Y-90640000D03*
%TO.P,U2,15*%
%TO.N,pin15*%
X161850000Y-90640000D03*
%TO.P,U2,13*%
%TO.N,pin13*%
X163450000Y-90640000D03*
%TO.P,U2,16*%
%TO.N,pin16*%
X161050000Y-90640000D03*
%TO.P,U2,11*%
%TO.N,pin11*%
X165050000Y-90640000D03*
%TO.P,U2,14*%
%TO.N,pin14*%
X162650000Y-90640000D03*
%TO.P,U2,12*%
%TO.N,pin12*%
X164250000Y-90640000D03*
%TO.P,U2,17*%
%TO.N,pin17*%
X160250000Y-90640000D03*
%TO.P,U2,18*%
%TO.N,pin18*%
X159450000Y-90640000D03*
%TO.P,U2,19*%
%TO.N,pin19*%
X158650000Y-90640000D03*
%TO.P,U2,20*%
%TO.N,pin20*%
X157850000Y-90640000D03*
%TO.P,U2,10*%
%TO.N,pin10*%
X165850000Y-90640000D03*
%TO.P,U2,9*%
%TO.N,pin9*%
X166650000Y-90640000D03*
%TO.P,U2,8*%
%TO.N,pin8*%
X167450000Y-90640000D03*
%TO.P,U2,7*%
%TO.N,pin7*%
X168250000Y-90640000D03*
%TO.P,U2,6*%
%TO.N,pin6*%
X169050000Y-90640000D03*
%TO.P,U2,5*%
%TO.N,pin5*%
X169850000Y-90640000D03*
%TO.P,U2,4*%
%TO.N,pin4*%
X170650000Y-90640000D03*
%TO.P,U2,3*%
%TO.N,pin3*%
X171450000Y-90640000D03*
%TO.P,U2,2*%
%TO.N,pin2*%
X172250000Y-90640000D03*
%TO.P,U2,1*%
%TO.N,pin1*%
X173050000Y-90640000D03*
%TD*%
D20*
%TO.N,GND*%
X151069040Y-79415640D03*
X155788360Y-87340440D03*
X155803600Y-82925920D03*
X157027880Y-77703680D03*
X146263360Y-75153520D03*
X131000000Y-114000000D03*
X133000000Y-112000000D03*
X131000000Y-111000000D03*
X133000000Y-108000000D03*
X131000000Y-107000000D03*
X133000000Y-105000000D03*
X131000000Y-104000000D03*
X133000000Y-102000000D03*
X131000000Y-101000000D03*
X133000000Y-99000000D03*
X131000000Y-98000000D03*
X133000000Y-96000000D03*
X131000000Y-95000000D03*
X133000000Y-93000000D03*
X131000000Y-92000000D03*
X133000000Y-90000000D03*
X131000000Y-88000000D03*
X133000000Y-87000000D03*
X131000000Y-85500000D03*
X135500000Y-85500000D03*
X138500000Y-85500000D03*
X141500000Y-85500000D03*
X144500000Y-85500000D03*
X147000000Y-85500000D03*
X148500000Y-85500000D03*
X149000000Y-84000000D03*
X148500000Y-89000000D03*
X164642800Y-74701400D03*
X148432520Y-75971400D03*
X149458680Y-73720960D03*
X151221440Y-76032360D03*
X152354280Y-73106280D03*
X152974040Y-74894440D03*
X150896320Y-74477880D03*
X155163520Y-73162160D03*
X158917640Y-73157080D03*
X162930840Y-73152000D03*
X165851840Y-73187560D03*
X166664640Y-75016360D03*
X168468040Y-74670920D03*
X170000000Y-76000000D03*
X172000000Y-77000000D03*
X174000000Y-78000000D03*
X174000000Y-80000000D03*
X174000000Y-83000000D03*
X174000000Y-85000000D03*
X172000000Y-84000000D03*
X172000000Y-81000000D03*
X172000000Y-79000000D03*
X170000000Y-78000000D03*
X170000000Y-80000000D03*
X170000000Y-82000000D03*
X168000000Y-81000000D03*
X168000000Y-79000000D03*
X156969460Y-79829660D03*
X128280000Y-101570000D03*
X127500000Y-98990000D03*
X128430000Y-96280000D03*
X127380000Y-93630000D03*
X128440000Y-90880000D03*
X127380000Y-87320000D03*
X128540000Y-84210000D03*
X127440000Y-83240000D03*
X130030000Y-82370000D03*
X131810000Y-81560000D03*
X133980000Y-81590000D03*
X132020000Y-83920000D03*
X133990000Y-84470000D03*
X136390000Y-83820000D03*
X137690000Y-84480000D03*
X138950000Y-83070000D03*
X140560000Y-82290000D03*
X143110000Y-79240000D03*
X143780000Y-78720000D03*
X146560000Y-80090000D03*
X147420000Y-81060000D03*
X145950000Y-80470000D03*
X142240000Y-82940000D03*
X143160000Y-84320000D03*
X144690000Y-82850000D03*
X145660000Y-84330000D03*
X146570000Y-82930000D03*
X147810000Y-84450000D03*
X149300000Y-87560000D03*
X149310000Y-86370000D03*
X148980000Y-90730000D03*
X148940000Y-78560000D03*
X173930000Y-90690000D03*
X174720000Y-88820000D03*
X173520000Y-87530000D03*
X174670000Y-85520000D03*
X167040000Y-83520000D03*
X135110000Y-80000000D03*
X136250000Y-81620000D03*
X137370000Y-79230000D03*
X138140000Y-80180000D03*
X140150000Y-78000000D03*
X143950000Y-76220000D03*
X127440000Y-103410000D03*
X128240000Y-104670000D03*
X127430000Y-105720000D03*
X128390000Y-107660000D03*
X127420000Y-109950000D03*
X128320000Y-112130000D03*
X127460000Y-116210000D03*
X127610000Y-119940000D03*
X131251960Y-119359680D03*
X130100000Y-121260000D03*
X133273800Y-121376440D03*
X131950000Y-123990000D03*
X128510000Y-123790000D03*
X130490000Y-126080000D03*
X133050000Y-126170000D03*
X128470000Y-129160000D03*
X131430000Y-127790000D03*
X130170000Y-131060000D03*
X132470000Y-130630000D03*
X131760000Y-129500000D03*
X142740000Y-128830000D03*
X142540000Y-126910000D03*
X143170000Y-125540000D03*
X143030000Y-120590000D03*
X142830000Y-114970000D03*
X142890000Y-116140000D03*
X133350000Y-114770000D03*
X144690000Y-114950000D03*
X142950000Y-131220000D03*
X144790000Y-131510000D03*
X132950000Y-117150000D03*
X131040000Y-115520000D03*
X162210000Y-74660000D03*
X167950000Y-76850000D03*
X167340000Y-75950000D03*
X151970000Y-78600000D03*
X150220000Y-79020000D03*
X150020000Y-77240000D03*
X141870000Y-80220000D03*
X130065780Y-118158260D03*
X128168400Y-126794260D03*
X133784340Y-124206000D03*
X140078460Y-126370080D03*
X135595360Y-123441460D03*
X137396220Y-123002040D03*
X138135360Y-122186700D03*
X134327900Y-120540780D03*
X132097780Y-118203980D03*
X134030720Y-117520720D03*
X130937000Y-116847620D03*
X173695360Y-92255340D03*
X149232620Y-92565220D03*
X135630920Y-114708940D03*
X137203180Y-114681000D03*
X134470140Y-115343940D03*
X136669780Y-115277900D03*
X138658600Y-114607340D03*
X139237720Y-115923060D03*
X140301980Y-114774980D03*
X140479780Y-115757960D03*
X140243560Y-118346220D03*
X143380460Y-123108720D03*
X142499080Y-123858020D03*
X142344140Y-126116080D03*
X143680180Y-128092200D03*
X142382240Y-130093720D03*
X143375380Y-129606040D03*
X139829540Y-131566920D03*
X140395960Y-130606800D03*
X140459460Y-128300480D03*
X141429740Y-131358640D03*
X143322040Y-130522980D03*
X135145780Y-131673600D03*
X127454660Y-131653280D03*
X127835660Y-130764280D03*
X133764020Y-128869440D03*
X133957060Y-130302000D03*
X131462780Y-131523740D03*
X133845300Y-131315460D03*
X134101840Y-126697740D03*
X128681480Y-125072140D03*
X130611880Y-124752100D03*
X130276600Y-123184920D03*
X127977900Y-121678700D03*
X128417320Y-115750340D03*
X127477520Y-114071400D03*
X128236980Y-113215420D03*
X139390120Y-124104400D03*
X140451840Y-122864880D03*
X140446760Y-124490480D03*
X140164820Y-123822460D03*
X132989320Y-119540020D03*
X133370320Y-118493540D03*
X130540760Y-112646460D03*
X133111240Y-123410980D03*
X134620000Y-125387100D03*
X135700000Y-116800000D03*
X137300000Y-130900000D03*
%TO.N,pin3*%
X171450000Y-91550000D03*
X169326560Y-84495640D03*
%TO.N,pin2*%
X172250000Y-91600000D03*
X170098720Y-84810600D03*
%TO.N,pin1*%
X173050000Y-91540000D03*
X170855640Y-85166200D03*
%TO.N,reset*%
X149920960Y-82118200D03*
X147279360Y-78816200D03*
X144002760Y-80533240D03*
%TO.N,VCC*%
X147660000Y-83230000D03*
X149114520Y-81155480D03*
%TO.N,SDA*%
X148082000Y-81605480D03*
X148031200Y-80700880D03*
%TO.N,SCL*%
X148531180Y-80705480D03*
X148125555Y-82214721D03*
%TO.N,pin30*%
X149850000Y-91260000D03*
X153568400Y-79253080D03*
%TO.N,pin29*%
X150640000Y-91270000D03*
X153974800Y-78853080D03*
%TO.N,pin28*%
X151460000Y-91270000D03*
X154432000Y-78226920D03*
%TO.N,pin27*%
X152240000Y-91290000D03*
X154848560Y-77673200D03*
%TO.N,pin26*%
X153050000Y-91300000D03*
X155313598Y-76758964D03*
%TO.N,pin25*%
X153850000Y-91300000D03*
X155808680Y-76311760D03*
%TO.N,pin24*%
X154650000Y-91310000D03*
X156428440Y-75755480D03*
%TO.N,pin23*%
X155450000Y-91330000D03*
X159689647Y-76091667D03*
%TO.N,pin22*%
X156250000Y-91330000D03*
X160187640Y-76159360D03*
%TO.N,pin21*%
X157050000Y-91380000D03*
X160700720Y-76184760D03*
%TO.N,pin20*%
X157860000Y-91380000D03*
X163210240Y-76118720D03*
%TO.N,pin19*%
X158650000Y-91410000D03*
X163657280Y-76387960D03*
%TO.N,pin18*%
X159450000Y-91440000D03*
X164155120Y-76504800D03*
%TO.N,pin17*%
X160250000Y-91420000D03*
X165049200Y-76382880D03*
%TO.N,pin16*%
X161050000Y-91450000D03*
X165790880Y-75661520D03*
%TO.N,pin15*%
X161860000Y-91460000D03*
X166679880Y-76636880D03*
%TO.N,pin14*%
X162650000Y-91510000D03*
X166613840Y-77175360D03*
%TO.N,pin13*%
X163460000Y-91510000D03*
X166664640Y-78165960D03*
%TO.N,pin12*%
X164250000Y-91530000D03*
X166695120Y-78689200D03*
%TO.N,pin11*%
X165050000Y-91470000D03*
X166710901Y-79188953D03*
%TO.N,pin10*%
X165850000Y-91490000D03*
X166686667Y-79688368D03*
%TO.N,pin9*%
X166650000Y-91490000D03*
X166832280Y-80182720D03*
%TO.N,pin8*%
X167450000Y-91520000D03*
X166760127Y-80677489D03*
%TO.N,pin7*%
X168250000Y-91520000D03*
X166832280Y-81640680D03*
%TO.N,pin6*%
X169050000Y-91570000D03*
X166857680Y-82148680D03*
%TO.N,pin5*%
X169870000Y-91570000D03*
X166918640Y-82671920D03*
%TO.N,pin4*%
X170650000Y-91550000D03*
X168645840Y-84053680D03*
%TO.N,INT*%
X150190200Y-81605480D03*
X145171160Y-79964280D03*
%TO.N,OE*%
X161138524Y-74928066D03*
X145318480Y-78110080D03*
X143012160Y-80599280D03*
%TO.N,+1V8*%
X140700000Y-119670000D03*
X135145860Y-127873520D03*
X139644120Y-128264920D03*
X138485880Y-123118880D03*
%TO.N,OE-NTS*%
X142448280Y-122308620D03*
X139194540Y-122245120D03*
%TO.N,SCL-C*%
X140428980Y-127640080D03*
X143489680Y-126022100D03*
%TO.N,SDA-C*%
X137005060Y-128432560D03*
X142801340Y-128244600D03*
%TO.N,reset-C*%
X136720580Y-125249940D03*
X138249660Y-124170440D03*
%TO.N,OE-C*%
X140385800Y-125290580D03*
X143121380Y-124708920D03*
%TD*%
D21*
%TO.N,GND*%
X167844520Y-81155480D02*
X168000000Y-81000000D01*
X165880080Y-81155480D02*
X167844520Y-81155480D01*
D22*
%TO.N,pin3*%
X171450000Y-90640000D02*
X171450000Y-91550000D01*
D21*
X164745240Y-84495640D02*
X169326560Y-84495640D01*
X164180080Y-83355480D02*
X164180080Y-83930480D01*
X164180080Y-83930480D02*
X164745240Y-84495640D01*
D22*
%TO.N,pin2*%
X172250000Y-91600000D02*
X172250000Y-90640000D01*
D21*
X170013679Y-84895641D02*
X170098720Y-84810600D01*
X164645241Y-84895641D02*
X170013679Y-84895641D01*
X163680080Y-83355480D02*
X163680080Y-83930480D01*
X163680080Y-83930480D02*
X164645241Y-84895641D01*
D22*
%TO.N,pin1*%
X173050000Y-90640000D02*
X173050000Y-91540000D01*
D21*
X164460201Y-85210601D02*
X170811239Y-85210601D01*
X170811239Y-85210601D02*
X170855640Y-85166200D01*
X163180080Y-83355480D02*
X163180080Y-83930480D01*
X163180080Y-83930480D02*
X164460201Y-85210601D01*
%TO.N,reset*%
X161305069Y-84305491D02*
X152108251Y-84305491D01*
X161680080Y-83355480D02*
X161680080Y-83930480D01*
X152108251Y-84305491D02*
X149920960Y-82118200D01*
X161680080Y-83930480D02*
X161305069Y-84305491D01*
X144125240Y-81199400D02*
X144125240Y-80655720D01*
X144125240Y-80655720D02*
X144002760Y-80533240D01*
X136545860Y-121491020D02*
X136545860Y-120603520D01*
X129529991Y-85145731D02*
X129529990Y-118291992D01*
X145026488Y-77810070D02*
X143015652Y-77810070D01*
X147279360Y-78816200D02*
X146173239Y-77710079D01*
X145126479Y-77710079D02*
X145026488Y-77810070D01*
X146173239Y-77710079D02*
X145126479Y-77710079D01*
X131635732Y-83039990D02*
X129529991Y-85145731D01*
X143015652Y-77810070D02*
X137785732Y-83039990D01*
X129529990Y-118291992D02*
X133247999Y-122010001D01*
X137785732Y-83039990D02*
X131635732Y-83039990D01*
X133247999Y-122010001D02*
X136026879Y-122010001D01*
X136026879Y-122010001D02*
X136545860Y-121491020D01*
D22*
%TO.N,VCC*%
X165880080Y-77655480D02*
X166783162Y-77655480D01*
D23*
X135245860Y-118663520D02*
X135175860Y-118593520D01*
X135245860Y-120603520D02*
X135245860Y-118663520D01*
X141655800Y-82224880D02*
X138930679Y-84950001D01*
D24*
X135185860Y-118583520D02*
X135175860Y-118593520D01*
X138855681Y-85024999D02*
X141655800Y-82224880D01*
X146524760Y-82224880D02*
X146525240Y-82224400D01*
X141655800Y-82224880D02*
X146524760Y-82224880D01*
X146654400Y-82224400D02*
X147660000Y-83230000D01*
X146525240Y-82224400D02*
X146654400Y-82224400D01*
X149139521Y-81130479D02*
X149114520Y-81155480D01*
X151452919Y-81130479D02*
X149139521Y-81130479D01*
X151477920Y-81155480D02*
X151452919Y-81130479D01*
X157980080Y-81155480D02*
X151477920Y-81155480D01*
D22*
X152706780Y-78736780D02*
X152636160Y-78807400D01*
D24*
X144125000Y-117090000D02*
X144425000Y-116790000D01*
X142190000Y-117390000D02*
X141890000Y-117090000D01*
X141375000Y-117090000D02*
X141890000Y-117090000D01*
X141890000Y-117090000D02*
X144125000Y-117090000D01*
X141890000Y-117690000D02*
X142190000Y-117390000D01*
X141375000Y-117690000D02*
X141890000Y-117690000D01*
X141375000Y-118290000D02*
X141630000Y-118290000D01*
X143390000Y-117990000D02*
X142790000Y-117390000D01*
X144425000Y-117990000D02*
X143390000Y-117990000D01*
X144425000Y-117390000D02*
X142790000Y-117390000D01*
X142790000Y-117390000D02*
X142190000Y-117390000D01*
X141890000Y-118290000D02*
X142790000Y-117390000D01*
X141375000Y-118290000D02*
X141890000Y-118290000D01*
X138855681Y-85024999D02*
X138930679Y-84950001D01*
X166857162Y-77655480D02*
X165880080Y-77655480D01*
X157299560Y-74070000D02*
X151477920Y-79891640D01*
X168594520Y-77655480D02*
X168870000Y-77380000D01*
X165880080Y-77655480D02*
X168594520Y-77655480D01*
X168870000Y-77380000D02*
X168870000Y-76340000D01*
X151477920Y-79891640D02*
X151477920Y-81155480D01*
X166600000Y-74070000D02*
X157299560Y-74070000D01*
X168870000Y-76340000D02*
X166600000Y-74070000D01*
D22*
X139390620Y-118102380D02*
X138905480Y-118587520D01*
X139390620Y-117030500D02*
X139390620Y-118102380D01*
X139450120Y-117090000D02*
X139390620Y-117030500D01*
X141375000Y-117090000D02*
X139450120Y-117090000D01*
D24*
X132965001Y-85024999D02*
X132040000Y-85950000D01*
X138855681Y-85024999D02*
X132965001Y-85024999D01*
X138380120Y-116020000D02*
X139390620Y-117030500D01*
X132040000Y-85950000D02*
X132040000Y-115200000D01*
X132040000Y-115200000D02*
X132860000Y-116020000D01*
X141830500Y-117030500D02*
X141890000Y-117090000D01*
X139390620Y-117030500D02*
X141830500Y-117030500D01*
X135175860Y-117363680D02*
X133832180Y-116020000D01*
X135175860Y-118593520D02*
X135175860Y-117363680D01*
X132860000Y-116020000D02*
X133832180Y-116020000D01*
X133832180Y-116020000D02*
X138380120Y-116020000D01*
D21*
%TO.N,SDA*%
X162180080Y-83930480D02*
X162180080Y-83355480D01*
X148082000Y-81605480D02*
X149045619Y-82569099D01*
X149045619Y-82569099D02*
X149947581Y-82569099D01*
X149947581Y-82569099D02*
X150440341Y-83061859D01*
X150440341Y-83061859D02*
X150414941Y-83036459D01*
X150414941Y-83036459D02*
X150420021Y-83041539D01*
X150420021Y-83041539D02*
X150425101Y-83046619D01*
X161505059Y-84605501D02*
X162180080Y-83930480D01*
X151983983Y-84605501D02*
X161505059Y-84605501D01*
X150420021Y-83041539D02*
X151983983Y-84605501D01*
X137195860Y-119227900D02*
X137195860Y-120603520D01*
X136555480Y-118587520D02*
X137195860Y-119227900D01*
X137195860Y-121491020D02*
X137195860Y-120603520D01*
X136376869Y-122310011D02*
X137195860Y-121491020D01*
X133123731Y-122310011D02*
X136376869Y-122310011D01*
X129229982Y-85021464D02*
X129229981Y-118416261D01*
X148031200Y-80700880D02*
X148031200Y-78976038D01*
X131511463Y-82739981D02*
X129229982Y-85021464D01*
X146465231Y-77410069D02*
X142991375Y-77410069D01*
X129229981Y-118416261D02*
X133123731Y-122310011D01*
X148031200Y-78976038D02*
X146465231Y-77410069D01*
X142991375Y-77410069D02*
X137661464Y-82739980D01*
X137661464Y-82739980D02*
X131511463Y-82739981D01*
%TO.N,SCL*%
X148125555Y-82214721D02*
X148196259Y-82144017D01*
X148196259Y-82144017D02*
X148921351Y-82869109D01*
X148921351Y-82869109D02*
X149823313Y-82869109D01*
X149823313Y-82869109D02*
X149826882Y-82872678D01*
X161705049Y-84905511D02*
X151859714Y-84905510D01*
X162680080Y-83355480D02*
X162680080Y-83930480D01*
X162680080Y-83930480D02*
X161705049Y-84905511D01*
X151859714Y-84905510D02*
X149823313Y-82869109D01*
X137845860Y-117835740D02*
X137845860Y-120603520D01*
X137040620Y-117030500D02*
X137845860Y-117835740D01*
X137845860Y-121491020D02*
X137845860Y-120603520D01*
X142867107Y-77110059D02*
X137537194Y-82439972D01*
X148431201Y-78951761D02*
X146589500Y-77110060D01*
X148431201Y-80605501D02*
X148431201Y-78951761D01*
X128929972Y-118540530D02*
X132999462Y-122610020D01*
X148531180Y-80705480D02*
X148431201Y-80605501D01*
X146589500Y-77110060D02*
X142867107Y-77110059D01*
X137537194Y-82439972D02*
X131387196Y-82439972D01*
X131387196Y-82439972D02*
X128929973Y-84897195D01*
X128929973Y-84897195D02*
X128929972Y-118540530D01*
X132999462Y-122610020D02*
X136726860Y-122610020D01*
X136726860Y-122610020D02*
X137845860Y-121491020D01*
D22*
%TO.N,pin30*%
X149850000Y-90640000D02*
X149850000Y-91260000D01*
D21*
X157882480Y-79253080D02*
X157980080Y-79155480D01*
X153568400Y-79253080D02*
X157882480Y-79253080D01*
D22*
%TO.N,pin29*%
X150650000Y-90640000D02*
X150650000Y-91260000D01*
X150650000Y-91260000D02*
X150640000Y-91270000D01*
D21*
X154172400Y-78655480D02*
X157980080Y-78655480D01*
X153974800Y-78853080D02*
X154172400Y-78655480D01*
D22*
%TO.N,pin28*%
X151450000Y-90640000D02*
X151450000Y-91260000D01*
X151450000Y-91260000D02*
X151460000Y-91270000D01*
D21*
X157908640Y-78226920D02*
X157980080Y-78155480D01*
X154432000Y-78226920D02*
X157908640Y-78226920D01*
D22*
%TO.N,pin27*%
X152240000Y-90650000D02*
X152250000Y-90640000D01*
X152240000Y-91290000D02*
X152240000Y-90650000D01*
D21*
X155366280Y-77155480D02*
X157980080Y-77155480D01*
X154848560Y-77673200D02*
X155366280Y-77155480D01*
D22*
%TO.N,pin26*%
X153050000Y-90640000D02*
X153050000Y-91300000D01*
D21*
X157876596Y-76758964D02*
X157980080Y-76655480D01*
X155313598Y-76758964D02*
X157876596Y-76758964D01*
D22*
%TO.N,pin25*%
X153850000Y-91300000D02*
X153850000Y-90640000D01*
D21*
X155964960Y-76155480D02*
X157980080Y-76155480D01*
X155808680Y-76311760D02*
X155964960Y-76155480D01*
D22*
%TO.N,pin24*%
X154650000Y-90640000D02*
X154650000Y-91310000D01*
D21*
X158680080Y-75455480D02*
X156728440Y-75455480D01*
X156728440Y-75455480D02*
X156428440Y-75755480D01*
D22*
%TO.N,pin23*%
X155450000Y-91330000D02*
X155450000Y-90640000D01*
X159680080Y-75455480D02*
X159680080Y-75988643D01*
X159680080Y-75988643D02*
X159680080Y-76082100D01*
X159680080Y-76082100D02*
X159689647Y-76091667D01*
%TO.N,pin22*%
X156250000Y-90640000D02*
X156250000Y-91330000D01*
X156250000Y-91425591D02*
X156250000Y-91330000D01*
X160180080Y-75455480D02*
X160180080Y-76151800D01*
X160180080Y-76151800D02*
X160187640Y-76159360D01*
%TO.N,pin21*%
X157050000Y-91380000D02*
X157050000Y-90640000D01*
D21*
X160700720Y-75476120D02*
X160680080Y-75455480D01*
X160700720Y-76184760D02*
X160700720Y-75476120D01*
D22*
%TO.N,pin20*%
X157850000Y-90640000D02*
X157850000Y-91370000D01*
X157850000Y-91370000D02*
X157860000Y-91380000D01*
D21*
X163180080Y-75455480D02*
X163180080Y-76088560D01*
X163180080Y-76088560D02*
X163210240Y-76118720D01*
D22*
%TO.N,pin19*%
X158650000Y-91410000D02*
X158650000Y-90640000D01*
D21*
X163657280Y-75478280D02*
X163680080Y-75455480D01*
X163657280Y-76387960D02*
X163657280Y-75478280D01*
D22*
%TO.N,pin18*%
X159450000Y-91440000D02*
X159450000Y-90640000D01*
D21*
X164180080Y-75455480D02*
X164180080Y-76479840D01*
X164180080Y-76479840D02*
X164155120Y-76504800D01*
D22*
%TO.N,pin17*%
X160250000Y-90640000D02*
X160250000Y-91420000D01*
D21*
X165180080Y-76252000D02*
X165180080Y-75455480D01*
X165049200Y-76382880D02*
X165180080Y-76252000D01*
D22*
%TO.N,pin16*%
X161050000Y-91450000D02*
X161050000Y-90640000D01*
D21*
X165880080Y-76155480D02*
X165880080Y-75750720D01*
X165880080Y-75750720D02*
X165790880Y-75661520D01*
D22*
%TO.N,pin15*%
X161850000Y-90640000D02*
X161850000Y-91450000D01*
X161850000Y-91450000D02*
X161860000Y-91460000D01*
D21*
X165880080Y-76655480D02*
X166661280Y-76655480D01*
X166661280Y-76655480D02*
X166679880Y-76636880D01*
D22*
%TO.N,pin14*%
X162650000Y-91510000D02*
X162650000Y-90640000D01*
D21*
X165899960Y-77175360D02*
X165880080Y-77155480D01*
X166613840Y-77175360D02*
X165899960Y-77175360D01*
D22*
%TO.N,pin13*%
X163450000Y-90640000D02*
X163450000Y-91500000D01*
X163450000Y-91500000D02*
X163460000Y-91510000D01*
D21*
X165890560Y-78165960D02*
X165880080Y-78155480D01*
X166664640Y-78165960D02*
X165890560Y-78165960D01*
D22*
%TO.N,pin12*%
X164250000Y-91530000D02*
X164250000Y-90640000D01*
D21*
X165913800Y-78689200D02*
X165880080Y-78655480D01*
X166695120Y-78689200D02*
X165913800Y-78689200D01*
D22*
%TO.N,pin11*%
X165050000Y-90640000D02*
X165050000Y-91470000D01*
D21*
X165880080Y-79155480D02*
X166677428Y-79155480D01*
X166677428Y-79155480D02*
X166710901Y-79188953D01*
D22*
%TO.N,pin10*%
X165850000Y-91490000D02*
X165850000Y-90640000D01*
D21*
X165880080Y-79655480D02*
X166653779Y-79655480D01*
X166653779Y-79655480D02*
X166686667Y-79688368D01*
D22*
%TO.N,pin9*%
X166650000Y-90640000D02*
X166650000Y-91490000D01*
D21*
X165880080Y-80155480D02*
X166805040Y-80155480D01*
X166805040Y-80155480D02*
X166832280Y-80182720D01*
D22*
%TO.N,pin8*%
X167450000Y-91520000D02*
X167450000Y-90640000D01*
D21*
X165880080Y-80655480D02*
X166738118Y-80655480D01*
X166738118Y-80655480D02*
X166760127Y-80677489D01*
D22*
%TO.N,pin7*%
X168250000Y-90640000D02*
X168250000Y-91520000D01*
D21*
X165880080Y-81655480D02*
X166817480Y-81655480D01*
X166817480Y-81655480D02*
X166832280Y-81640680D01*
D22*
%TO.N,pin6*%
X169050000Y-91570000D02*
X169050000Y-90640000D01*
D21*
X165880080Y-82155480D02*
X166850880Y-82155480D01*
X166850880Y-82155480D02*
X166857680Y-82148680D01*
D22*
%TO.N,pin5*%
X169850000Y-90640000D02*
X169850000Y-91550000D01*
X169850000Y-91550000D02*
X169870000Y-91570000D01*
D21*
X165880080Y-82655480D02*
X166902200Y-82655480D01*
X166902200Y-82655480D02*
X166918640Y-82671920D01*
D22*
%TO.N,pin4*%
X170650000Y-91550000D02*
X170650000Y-90640000D01*
X170593002Y-91550000D02*
X170650000Y-91550000D01*
D21*
X165180080Y-83355480D02*
X165180080Y-83945800D01*
X165180080Y-83945800D02*
X165287960Y-84053680D01*
X165287960Y-84053680D02*
X168645840Y-84053680D01*
%TO.N,INT*%
X152590201Y-84005481D02*
X150190200Y-81605480D01*
X161105079Y-84005481D02*
X152590201Y-84005481D01*
X161180080Y-83355480D02*
X161180080Y-83930480D01*
X161180080Y-83930480D02*
X161105079Y-84005481D01*
X141655800Y-81199880D02*
X142728840Y-80126840D01*
X142728840Y-80126840D02*
X145008600Y-80126840D01*
X145008600Y-80126840D02*
X145171160Y-79964280D01*
%TO.N,OE*%
X161180080Y-74969622D02*
X161138524Y-74928066D01*
X161180080Y-75455480D02*
X161180080Y-74969622D01*
X142808960Y-81199300D02*
X142808960Y-80802480D01*
X142808960Y-80802480D02*
X143012160Y-80599280D01*
X143139920Y-78110080D02*
X145318480Y-78110080D01*
X138930000Y-82320000D02*
X138985000Y-82265000D01*
X138985000Y-82265000D02*
X143139920Y-78110080D01*
X135895860Y-121491020D02*
X135895860Y-120603520D01*
X138985000Y-82265000D02*
X137910000Y-83340000D01*
X134128023Y-121566021D02*
X135820859Y-121566021D01*
X129830000Y-117267998D02*
X134128023Y-121566021D01*
X137910000Y-83340000D02*
X131760000Y-83340000D01*
X135820859Y-121566021D02*
X135895860Y-121491020D01*
X131760000Y-83340000D02*
X129830000Y-85270000D01*
X129830000Y-85270000D02*
X129830000Y-117267998D01*
D23*
%TO.N,+1V8*%
X135145860Y-126579520D02*
X135245860Y-126479520D01*
X135145860Y-127873520D02*
X135145860Y-126579520D01*
D24*
X141375000Y-119490000D02*
X142540000Y-119490000D01*
X142840000Y-119190000D02*
X144425000Y-119190000D01*
X142540000Y-119490000D02*
X142840000Y-119190000D01*
X141375000Y-119490000D02*
X140880000Y-119490000D01*
X140880000Y-119490000D02*
X140700000Y-119670000D01*
D23*
X139644120Y-129088380D02*
X139355060Y-129377440D01*
X139644120Y-128264920D02*
X139644120Y-129088380D01*
X139355060Y-130126240D02*
X138480800Y-131000500D01*
X139355060Y-129377440D02*
X139355060Y-130126240D01*
D22*
X135245860Y-126479520D02*
X135245860Y-125403860D01*
X135245860Y-125403860D02*
X136469120Y-124180600D01*
X136469120Y-124180600D02*
X137424160Y-124180600D01*
X137424160Y-124180600D02*
X138485880Y-123118880D01*
D21*
%TO.N,OE-NTS*%
X144425000Y-121590000D02*
X143166900Y-121590000D01*
X143166900Y-121590000D02*
X142448280Y-122308620D01*
X139194540Y-120652200D02*
X139145860Y-120603520D01*
X139194540Y-122245120D02*
X139194540Y-120652200D01*
%TO.N,SCL-C*%
X137005060Y-129377440D02*
X137005060Y-129374900D01*
X137845860Y-128534100D02*
X137845860Y-126479520D01*
X137005060Y-129374900D02*
X137845860Y-128534100D01*
X137845860Y-128534100D02*
X138300520Y-128534100D01*
X138300520Y-128534100D02*
X139194540Y-127640080D01*
X139194540Y-127640080D02*
X140428980Y-127640080D01*
X143489680Y-126022100D02*
X143672560Y-125839220D01*
X144375780Y-125839220D02*
X144425000Y-125790000D01*
X143672560Y-125839220D02*
X144375780Y-125839220D01*
%TO.N,SDA-C*%
X136130800Y-131000500D02*
X136130800Y-130748540D01*
X136130800Y-130748540D02*
X135658860Y-130276600D01*
X135658860Y-130276600D02*
X135658860Y-129047240D01*
X135658860Y-129047240D02*
X136507220Y-128198880D01*
X136507220Y-128198880D02*
X136895840Y-128198880D01*
X137195860Y-127898860D02*
X137195860Y-126479520D01*
X136895840Y-128198880D02*
X137195860Y-127898860D01*
X136895840Y-128198880D02*
X136895840Y-128323340D01*
X136895840Y-128323340D02*
X137005060Y-128432560D01*
X142801340Y-128244600D02*
X143454120Y-127591820D01*
X144423180Y-127591820D02*
X144425000Y-127590000D01*
X143454120Y-127591820D02*
X144423180Y-127591820D01*
%TO.N,reset-C*%
X136545860Y-126479520D02*
X136545860Y-125424660D01*
X136545860Y-125424660D02*
X136720580Y-125249940D01*
X141130100Y-121290000D02*
X141375000Y-121290000D01*
X138249660Y-124170440D02*
X141130100Y-121290000D01*
%TO.N,OE-C*%
X136528579Y-124849939D02*
X139945159Y-124849939D01*
X139945159Y-124849939D02*
X140385800Y-125290580D01*
X135895860Y-126479520D02*
X135895860Y-125482658D01*
X135895860Y-125482658D02*
X136528579Y-124849939D01*
X143121380Y-124708920D02*
X143177260Y-124708920D01*
X143296180Y-124590000D02*
X144425000Y-124590000D01*
X143177260Y-124708920D02*
X143296180Y-124590000D01*
%TD*%
D25*
%TO.N,GND*%
G36*
X174948000Y-78160469D02*
G01*
X174948001Y-84482699D01*
X174948000Y-84482709D01*
X174948001Y-89499771D01*
X173913091Y-91169741D01*
X173905908Y-91178493D01*
X173894875Y-91199135D01*
X173891688Y-91204277D01*
X173886714Y-91214402D01*
X173873222Y-91239644D01*
X173871459Y-91245457D01*
X173868777Y-91250916D01*
X173861404Y-91278601D01*
X173853094Y-91305996D01*
X173852498Y-91312044D01*
X173850934Y-91317918D01*
X173849105Y-91346486D01*
X173848000Y-91357708D01*
X173848000Y-91363757D01*
X173846505Y-91387114D01*
X173848000Y-91398338D01*
X173848000Y-91842291D01*
X173848001Y-91842301D01*
X173848000Y-92713000D01*
X173717292Y-92713000D01*
X173700000Y-92711297D01*
X173682709Y-92713000D01*
X173682708Y-92713000D01*
X173630996Y-92718093D01*
X173564644Y-92738221D01*
X173503493Y-92770907D01*
X173449894Y-92814894D01*
X173405907Y-92868493D01*
X173373221Y-92929644D01*
X173353093Y-92995996D01*
X173346297Y-93065000D01*
X173348000Y-93082291D01*
X173348000Y-93102291D01*
X173348001Y-93102300D01*
X173348000Y-93557708D01*
X173346297Y-93575000D01*
X173353093Y-93644004D01*
X173373221Y-93710356D01*
X173405907Y-93771507D01*
X173449894Y-93825106D01*
X173503493Y-93869093D01*
X173564644Y-93901779D01*
X173630996Y-93921907D01*
X173700000Y-93928703D01*
X173717291Y-93927000D01*
X173848001Y-93927000D01*
X173848000Y-94423000D01*
X149062000Y-94423000D01*
X149062000Y-93927000D01*
X149192708Y-93927000D01*
X149210000Y-93928703D01*
X149227291Y-93927000D01*
X149227292Y-93927000D01*
X149279004Y-93921907D01*
X149345356Y-93901779D01*
X149406507Y-93869093D01*
X149460106Y-93825106D01*
X149504093Y-93771507D01*
X149536779Y-93710356D01*
X149556907Y-93644004D01*
X149563703Y-93575000D01*
X149562000Y-93557708D01*
X149562000Y-93092291D01*
X149563703Y-93075000D01*
X149556907Y-93005996D01*
X149536779Y-92939644D01*
X149504093Y-92878493D01*
X149460106Y-92824894D01*
X149406507Y-92780907D01*
X149345356Y-92748221D01*
X149279004Y-92728093D01*
X149227292Y-92723000D01*
X149210000Y-92721297D01*
X149192709Y-92723000D01*
X149052000Y-92723000D01*
X149052000Y-91860644D01*
X149053307Y-91851724D01*
X149052000Y-91826055D01*
X149052000Y-91817708D01*
X149051120Y-91808773D01*
X149049781Y-91782476D01*
X149047730Y-91774348D01*
X149046907Y-91765996D01*
X149039255Y-91740772D01*
X149037065Y-91732094D01*
X149034247Y-91724262D01*
X149026779Y-91699644D01*
X149022525Y-91691686D01*
X148500180Y-90240000D01*
X149321418Y-90240000D01*
X149321418Y-91040000D01*
X149327732Y-91104103D01*
X149346430Y-91165743D01*
X149354071Y-91180038D01*
X149348000Y-91210557D01*
X149348000Y-91309443D01*
X149367292Y-91406428D01*
X149405133Y-91497786D01*
X149460071Y-91580006D01*
X149529994Y-91649929D01*
X149612214Y-91704867D01*
X149703572Y-91742708D01*
X149800557Y-91762000D01*
X149899443Y-91762000D01*
X149996428Y-91742708D01*
X150087786Y-91704867D01*
X150170006Y-91649929D01*
X150239929Y-91580006D01*
X150241659Y-91577417D01*
X150250071Y-91590006D01*
X150319994Y-91659929D01*
X150402214Y-91714867D01*
X150493572Y-91752708D01*
X150590557Y-91772000D01*
X150689443Y-91772000D01*
X150786428Y-91752708D01*
X150877786Y-91714867D01*
X150960006Y-91659929D01*
X151029929Y-91590006D01*
X151050000Y-91559968D01*
X151070071Y-91590006D01*
X151139994Y-91659929D01*
X151222214Y-91714867D01*
X151313572Y-91752708D01*
X151410557Y-91772000D01*
X151509443Y-91772000D01*
X151606428Y-91752708D01*
X151697786Y-91714867D01*
X151780006Y-91659929D01*
X151842003Y-91597932D01*
X151850071Y-91610006D01*
X151919994Y-91679929D01*
X152002214Y-91734867D01*
X152093572Y-91772708D01*
X152190557Y-91792000D01*
X152289443Y-91792000D01*
X152386428Y-91772708D01*
X152477786Y-91734867D01*
X152560006Y-91679929D01*
X152629929Y-91610006D01*
X152641659Y-91592451D01*
X152660071Y-91620006D01*
X152729994Y-91689929D01*
X152812214Y-91744867D01*
X152903572Y-91782708D01*
X153000557Y-91802000D01*
X153099443Y-91802000D01*
X153196428Y-91782708D01*
X153287786Y-91744867D01*
X153370006Y-91689929D01*
X153439929Y-91620006D01*
X153450000Y-91604934D01*
X153460071Y-91620006D01*
X153529994Y-91689929D01*
X153612214Y-91744867D01*
X153703572Y-91782708D01*
X153800557Y-91802000D01*
X153899443Y-91802000D01*
X153996428Y-91782708D01*
X154087786Y-91744867D01*
X154170006Y-91689929D01*
X154239929Y-91620006D01*
X154246659Y-91609934D01*
X154260071Y-91630006D01*
X154329994Y-91699929D01*
X154412214Y-91754867D01*
X154503572Y-91792708D01*
X154600557Y-91812000D01*
X154699443Y-91812000D01*
X154796428Y-91792708D01*
X154887786Y-91754867D01*
X154970006Y-91699929D01*
X155039929Y-91630006D01*
X155043318Y-91624934D01*
X155060071Y-91650006D01*
X155129994Y-91719929D01*
X155212214Y-91774867D01*
X155303572Y-91812708D01*
X155400557Y-91832000D01*
X155499443Y-91832000D01*
X155596428Y-91812708D01*
X155687786Y-91774867D01*
X155770006Y-91719929D01*
X155839929Y-91650006D01*
X155850000Y-91634934D01*
X155860071Y-91650006D01*
X155929994Y-91719929D01*
X155959996Y-91739976D01*
X156011624Y-91782346D01*
X156085804Y-91821996D01*
X156166293Y-91846413D01*
X156250000Y-91854657D01*
X156333706Y-91846413D01*
X156414195Y-91821996D01*
X156488375Y-91782346D01*
X156540003Y-91739977D01*
X156570006Y-91719929D01*
X156631976Y-91657959D01*
X156660071Y-91700006D01*
X156729994Y-91769929D01*
X156812214Y-91824867D01*
X156903572Y-91862708D01*
X157000557Y-91882000D01*
X157099443Y-91882000D01*
X157196428Y-91862708D01*
X157287786Y-91824867D01*
X157370006Y-91769929D01*
X157439929Y-91700006D01*
X157455000Y-91677451D01*
X157470071Y-91700006D01*
X157539994Y-91769929D01*
X157622214Y-91824867D01*
X157713572Y-91862708D01*
X157810557Y-91882000D01*
X157909443Y-91882000D01*
X158006428Y-91862708D01*
X158097786Y-91824867D01*
X158180006Y-91769929D01*
X158243992Y-91705943D01*
X158260071Y-91730006D01*
X158329994Y-91799929D01*
X158412214Y-91854867D01*
X158503572Y-91892708D01*
X158600557Y-91912000D01*
X158699443Y-91912000D01*
X158796428Y-91892708D01*
X158887786Y-91854867D01*
X158970006Y-91799929D01*
X159039929Y-91730006D01*
X159039977Y-91729934D01*
X159060071Y-91760006D01*
X159129994Y-91829929D01*
X159212214Y-91884867D01*
X159303572Y-91922708D01*
X159400557Y-91942000D01*
X159499443Y-91942000D01*
X159596428Y-91922708D01*
X159687786Y-91884867D01*
X159770006Y-91829929D01*
X159839929Y-91760006D01*
X159856682Y-91734934D01*
X159860071Y-91740006D01*
X159929994Y-91809929D01*
X160012214Y-91864867D01*
X160103572Y-91902708D01*
X160200557Y-91922000D01*
X160299443Y-91922000D01*
X160396428Y-91902708D01*
X160487786Y-91864867D01*
X160570006Y-91809929D01*
X160639929Y-91740006D01*
X160639977Y-91739934D01*
X160660071Y-91770006D01*
X160729994Y-91839929D01*
X160812214Y-91894867D01*
X160903572Y-91932708D01*
X161000557Y-91952000D01*
X161099443Y-91952000D01*
X161196428Y-91932708D01*
X161287786Y-91894867D01*
X161370006Y-91839929D01*
X161439929Y-91770006D01*
X161451659Y-91752451D01*
X161470071Y-91780006D01*
X161539994Y-91849929D01*
X161622214Y-91904867D01*
X161713572Y-91942708D01*
X161810557Y-91962000D01*
X161909443Y-91962000D01*
X162006428Y-91942708D01*
X162097786Y-91904867D01*
X162180006Y-91849929D01*
X162235981Y-91793954D01*
X162260071Y-91830006D01*
X162329994Y-91899929D01*
X162412214Y-91954867D01*
X162503572Y-91992708D01*
X162600557Y-92012000D01*
X162699443Y-92012000D01*
X162796428Y-91992708D01*
X162887786Y-91954867D01*
X162970006Y-91899929D01*
X163039929Y-91830006D01*
X163055000Y-91807451D01*
X163070071Y-91830006D01*
X163139994Y-91899929D01*
X163222214Y-91954867D01*
X163313572Y-91992708D01*
X163410557Y-92012000D01*
X163509443Y-92012000D01*
X163606428Y-91992708D01*
X163697786Y-91954867D01*
X163780006Y-91899929D01*
X163847998Y-91831937D01*
X163860071Y-91850006D01*
X163929994Y-91919929D01*
X164012214Y-91974867D01*
X164103572Y-92012708D01*
X164200557Y-92032000D01*
X164299443Y-92032000D01*
X164396428Y-92012708D01*
X164487786Y-91974867D01*
X164570006Y-91919929D01*
X164639929Y-91850006D01*
X164672030Y-91801965D01*
X164729994Y-91859929D01*
X164812214Y-91914867D01*
X164903572Y-91952708D01*
X165000557Y-91972000D01*
X165099443Y-91972000D01*
X165196428Y-91952708D01*
X165287786Y-91914867D01*
X165370006Y-91859929D01*
X165439929Y-91790006D01*
X165443318Y-91784934D01*
X165460071Y-91810006D01*
X165529994Y-91879929D01*
X165612214Y-91934867D01*
X165703572Y-91972708D01*
X165800557Y-91992000D01*
X165899443Y-91992000D01*
X165996428Y-91972708D01*
X166087786Y-91934867D01*
X166170006Y-91879929D01*
X166239929Y-91810006D01*
X166250000Y-91794934D01*
X166260071Y-91810006D01*
X166329994Y-91879929D01*
X166412214Y-91934867D01*
X166503572Y-91972708D01*
X166600557Y-91992000D01*
X166699443Y-91992000D01*
X166796428Y-91972708D01*
X166887786Y-91934867D01*
X166970006Y-91879929D01*
X167039929Y-91810006D01*
X167039977Y-91809934D01*
X167060071Y-91840006D01*
X167129994Y-91909929D01*
X167212214Y-91964867D01*
X167303572Y-92002708D01*
X167400557Y-92022000D01*
X167499443Y-92022000D01*
X167596428Y-92002708D01*
X167687786Y-91964867D01*
X167770006Y-91909929D01*
X167839929Y-91840006D01*
X167850000Y-91824934D01*
X167860071Y-91840006D01*
X167929994Y-91909929D01*
X168012214Y-91964867D01*
X168103572Y-92002708D01*
X168200557Y-92022000D01*
X168299443Y-92022000D01*
X168396428Y-92002708D01*
X168487786Y-91964867D01*
X168570006Y-91909929D01*
X168631976Y-91847959D01*
X168660071Y-91890006D01*
X168729994Y-91959929D01*
X168812214Y-92014867D01*
X168903572Y-92052708D01*
X169000557Y-92072000D01*
X169099443Y-92072000D01*
X169196428Y-92052708D01*
X169287786Y-92014867D01*
X169370006Y-91959929D01*
X169439929Y-91890006D01*
X169460000Y-91859968D01*
X169480071Y-91890006D01*
X169549994Y-91959929D01*
X169632214Y-92014867D01*
X169723572Y-92052708D01*
X169820557Y-92072000D01*
X169919443Y-92072000D01*
X170016428Y-92052708D01*
X170107786Y-92014867D01*
X170190006Y-91959929D01*
X170259929Y-91890006D01*
X170267997Y-91877932D01*
X170329994Y-91939929D01*
X170412214Y-91994867D01*
X170503572Y-92032708D01*
X170600557Y-92052000D01*
X170699443Y-92052000D01*
X170796428Y-92032708D01*
X170887786Y-91994867D01*
X170970006Y-91939929D01*
X171039929Y-91870006D01*
X171050000Y-91854934D01*
X171060071Y-91870006D01*
X171129994Y-91939929D01*
X171212214Y-91994867D01*
X171303572Y-92032708D01*
X171400557Y-92052000D01*
X171499443Y-92052000D01*
X171596428Y-92032708D01*
X171687786Y-91994867D01*
X171770006Y-91939929D01*
X171831976Y-91877959D01*
X171860071Y-91920006D01*
X171929994Y-91989929D01*
X172012214Y-92044867D01*
X172103572Y-92082708D01*
X172200557Y-92102000D01*
X172299443Y-92102000D01*
X172396428Y-92082708D01*
X172487786Y-92044867D01*
X172570006Y-91989929D01*
X172639929Y-91920006D01*
X172672030Y-91871965D01*
X172729994Y-91929929D01*
X172812214Y-91984867D01*
X172903572Y-92022708D01*
X173000557Y-92042000D01*
X173099443Y-92042000D01*
X173196428Y-92022708D01*
X173287786Y-91984867D01*
X173370006Y-91929929D01*
X173439929Y-91860006D01*
X173494867Y-91777786D01*
X173532708Y-91686428D01*
X173552000Y-91589443D01*
X173552000Y-91490557D01*
X173532708Y-91393572D01*
X173494867Y-91302214D01*
X173477541Y-91276284D01*
X173482343Y-91272343D01*
X173523206Y-91222550D01*
X173553570Y-91165743D01*
X173572268Y-91104103D01*
X173578582Y-91040000D01*
X173578582Y-90240000D01*
X173572268Y-90175897D01*
X173553570Y-90114257D01*
X173523206Y-90057450D01*
X173482343Y-90007657D01*
X173432550Y-89966794D01*
X173375743Y-89936430D01*
X173314103Y-89917732D01*
X173250000Y-89911418D01*
X172850000Y-89911418D01*
X172785897Y-89917732D01*
X172724257Y-89936430D01*
X172667450Y-89966794D01*
X172650000Y-89981114D01*
X172632550Y-89966794D01*
X172575743Y-89936430D01*
X172514103Y-89917732D01*
X172450000Y-89911418D01*
X172050000Y-89911418D01*
X171985897Y-89917732D01*
X171924257Y-89936430D01*
X171867450Y-89966794D01*
X171850000Y-89981114D01*
X171832550Y-89966794D01*
X171775743Y-89936430D01*
X171714103Y-89917732D01*
X171650000Y-89911418D01*
X171250000Y-89911418D01*
X171185897Y-89917732D01*
X171124257Y-89936430D01*
X171067450Y-89966794D01*
X171050000Y-89981114D01*
X171032550Y-89966794D01*
X170975743Y-89936430D01*
X170914103Y-89917732D01*
X170850000Y-89911418D01*
X170450000Y-89911418D01*
X170385897Y-89917732D01*
X170324257Y-89936430D01*
X170267450Y-89966794D01*
X170250000Y-89981114D01*
X170232550Y-89966794D01*
X170175743Y-89936430D01*
X170114103Y-89917732D01*
X170050000Y-89911418D01*
X169650000Y-89911418D01*
X169585897Y-89917732D01*
X169524257Y-89936430D01*
X169467450Y-89966794D01*
X169450000Y-89981114D01*
X169432550Y-89966794D01*
X169375743Y-89936430D01*
X169314103Y-89917732D01*
X169250000Y-89911418D01*
X168850000Y-89911418D01*
X168785897Y-89917732D01*
X168724257Y-89936430D01*
X168667450Y-89966794D01*
X168650000Y-89981114D01*
X168632550Y-89966794D01*
X168575743Y-89936430D01*
X168514103Y-89917732D01*
X168450000Y-89911418D01*
X168050000Y-89911418D01*
X167985897Y-89917732D01*
X167924257Y-89936430D01*
X167867450Y-89966794D01*
X167850000Y-89981114D01*
X167832550Y-89966794D01*
X167775743Y-89936430D01*
X167714103Y-89917732D01*
X167650000Y-89911418D01*
X167250000Y-89911418D01*
X167185897Y-89917732D01*
X167124257Y-89936430D01*
X167067450Y-89966794D01*
X167050000Y-89981114D01*
X167032550Y-89966794D01*
X166975743Y-89936430D01*
X166914103Y-89917732D01*
X166850000Y-89911418D01*
X166450000Y-89911418D01*
X166385897Y-89917732D01*
X166324257Y-89936430D01*
X166267450Y-89966794D01*
X166250000Y-89981114D01*
X166232550Y-89966794D01*
X166175743Y-89936430D01*
X166114103Y-89917732D01*
X166050000Y-89911418D01*
X165650000Y-89911418D01*
X165585897Y-89917732D01*
X165524257Y-89936430D01*
X165467450Y-89966794D01*
X165450000Y-89981114D01*
X165432550Y-89966794D01*
X165375743Y-89936430D01*
X165314103Y-89917732D01*
X165250000Y-89911418D01*
X164850000Y-89911418D01*
X164785897Y-89917732D01*
X164724257Y-89936430D01*
X164667450Y-89966794D01*
X164650000Y-89981114D01*
X164632550Y-89966794D01*
X164575743Y-89936430D01*
X164514103Y-89917732D01*
X164450000Y-89911418D01*
X164050000Y-89911418D01*
X163985897Y-89917732D01*
X163924257Y-89936430D01*
X163867450Y-89966794D01*
X163850000Y-89981114D01*
X163832550Y-89966794D01*
X163775743Y-89936430D01*
X163714103Y-89917732D01*
X163650000Y-89911418D01*
X163250000Y-89911418D01*
X163185897Y-89917732D01*
X163124257Y-89936430D01*
X163067450Y-89966794D01*
X163050000Y-89981114D01*
X163032550Y-89966794D01*
X162975743Y-89936430D01*
X162914103Y-89917732D01*
X162850000Y-89911418D01*
X162450000Y-89911418D01*
X162385897Y-89917732D01*
X162324257Y-89936430D01*
X162267450Y-89966794D01*
X162250000Y-89981114D01*
X162232550Y-89966794D01*
X162175743Y-89936430D01*
X162114103Y-89917732D01*
X162050000Y-89911418D01*
X161650000Y-89911418D01*
X161585897Y-89917732D01*
X161524257Y-89936430D01*
X161467450Y-89966794D01*
X161450000Y-89981114D01*
X161432550Y-89966794D01*
X161375743Y-89936430D01*
X161314103Y-89917732D01*
X161250000Y-89911418D01*
X160850000Y-89911418D01*
X160785897Y-89917732D01*
X160724257Y-89936430D01*
X160667450Y-89966794D01*
X160650000Y-89981114D01*
X160632550Y-89966794D01*
X160575743Y-89936430D01*
X160514103Y-89917732D01*
X160450000Y-89911418D01*
X160050000Y-89911418D01*
X159985897Y-89917732D01*
X159924257Y-89936430D01*
X159867450Y-89966794D01*
X159850000Y-89981114D01*
X159832550Y-89966794D01*
X159775743Y-89936430D01*
X159714103Y-89917732D01*
X159650000Y-89911418D01*
X159250000Y-89911418D01*
X159185897Y-89917732D01*
X159124257Y-89936430D01*
X159067450Y-89966794D01*
X159050000Y-89981114D01*
X159032550Y-89966794D01*
X158975743Y-89936430D01*
X158914103Y-89917732D01*
X158850000Y-89911418D01*
X158450000Y-89911418D01*
X158385897Y-89917732D01*
X158324257Y-89936430D01*
X158267450Y-89966794D01*
X158250000Y-89981114D01*
X158232550Y-89966794D01*
X158175743Y-89936430D01*
X158114103Y-89917732D01*
X158050000Y-89911418D01*
X157650000Y-89911418D01*
X157585897Y-89917732D01*
X157524257Y-89936430D01*
X157467450Y-89966794D01*
X157450000Y-89981114D01*
X157432550Y-89966794D01*
X157375743Y-89936430D01*
X157314103Y-89917732D01*
X157250000Y-89911418D01*
X156850000Y-89911418D01*
X156785897Y-89917732D01*
X156724257Y-89936430D01*
X156667450Y-89966794D01*
X156650000Y-89981114D01*
X156632550Y-89966794D01*
X156575743Y-89936430D01*
X156514103Y-89917732D01*
X156450000Y-89911418D01*
X156050000Y-89911418D01*
X155985897Y-89917732D01*
X155924257Y-89936430D01*
X155867450Y-89966794D01*
X155850000Y-89981114D01*
X155832550Y-89966794D01*
X155775743Y-89936430D01*
X155714103Y-89917732D01*
X155650000Y-89911418D01*
X155250000Y-89911418D01*
X155185897Y-89917732D01*
X155124257Y-89936430D01*
X155067450Y-89966794D01*
X155050000Y-89981114D01*
X155032550Y-89966794D01*
X154975743Y-89936430D01*
X154914103Y-89917732D01*
X154850000Y-89911418D01*
X154450000Y-89911418D01*
X154385897Y-89917732D01*
X154324257Y-89936430D01*
X154267450Y-89966794D01*
X154250000Y-89981114D01*
X154232550Y-89966794D01*
X154175743Y-89936430D01*
X154114103Y-89917732D01*
X154050000Y-89911418D01*
X153650000Y-89911418D01*
X153585897Y-89917732D01*
X153524257Y-89936430D01*
X153467450Y-89966794D01*
X153450000Y-89981114D01*
X153432550Y-89966794D01*
X153375743Y-89936430D01*
X153314103Y-89917732D01*
X153250000Y-89911418D01*
X152850000Y-89911418D01*
X152785897Y-89917732D01*
X152724257Y-89936430D01*
X152667450Y-89966794D01*
X152650000Y-89981114D01*
X152632550Y-89966794D01*
X152575743Y-89936430D01*
X152514103Y-89917732D01*
X152450000Y-89911418D01*
X152050000Y-89911418D01*
X151985897Y-89917732D01*
X151924257Y-89936430D01*
X151867450Y-89966794D01*
X151850000Y-89981114D01*
X151832550Y-89966794D01*
X151775743Y-89936430D01*
X151714103Y-89917732D01*
X151650000Y-89911418D01*
X151250000Y-89911418D01*
X151185897Y-89917732D01*
X151124257Y-89936430D01*
X151067450Y-89966794D01*
X151050000Y-89981114D01*
X151032550Y-89966794D01*
X150975743Y-89936430D01*
X150914103Y-89917732D01*
X150850000Y-89911418D01*
X150450000Y-89911418D01*
X150385897Y-89917732D01*
X150324257Y-89936430D01*
X150267450Y-89966794D01*
X150250000Y-89981114D01*
X150232550Y-89966794D01*
X150175743Y-89936430D01*
X150114103Y-89917732D01*
X150050000Y-89911418D01*
X149650000Y-89911418D01*
X149585897Y-89917732D01*
X149524257Y-89936430D01*
X149467450Y-89966794D01*
X149417657Y-90007657D01*
X149376794Y-90057450D01*
X149346430Y-90114257D01*
X149327732Y-90175897D01*
X149321418Y-90240000D01*
X148500180Y-90240000D01*
X147852000Y-88438601D01*
X147852000Y-86829648D01*
X147852428Y-86797358D01*
X147848840Y-86777981D01*
X147846907Y-86758356D01*
X147842540Y-86743960D01*
X147839803Y-86729180D01*
X147832503Y-86710874D01*
X147826779Y-86692004D01*
X147819690Y-86678742D01*
X147814120Y-86664773D01*
X147803385Y-86648237D01*
X147794093Y-86630853D01*
X147784552Y-86619227D01*
X147776365Y-86606616D01*
X147762614Y-86592495D01*
X147750106Y-86577254D01*
X147725137Y-86556762D01*
X147363322Y-86251716D01*
X147361826Y-86249894D01*
X147336795Y-86229351D01*
X147325392Y-86219738D01*
X147323471Y-86218417D01*
X147308227Y-86205907D01*
X147294962Y-86198817D01*
X147282573Y-86190299D01*
X147264465Y-86182516D01*
X147247076Y-86173221D01*
X147232683Y-86168855D01*
X147218871Y-86162918D01*
X147199595Y-86158818D01*
X147180724Y-86153093D01*
X147165752Y-86151618D01*
X147151050Y-86148491D01*
X147131345Y-86148230D01*
X147129012Y-86148000D01*
X147114008Y-86148000D01*
X147081719Y-86147572D01*
X147079408Y-86148000D01*
X133901855Y-86148000D01*
X133875519Y-86146757D01*
X133850122Y-86150575D01*
X133824556Y-86153093D01*
X133815894Y-86155721D01*
X133806952Y-86157065D01*
X133782797Y-86165761D01*
X133758204Y-86173221D01*
X133750222Y-86177487D01*
X133741712Y-86180551D01*
X133719704Y-86193800D01*
X133697053Y-86205907D01*
X133690063Y-86211644D01*
X133682308Y-86216312D01*
X133663309Y-86233600D01*
X133643454Y-86249894D01*
X133626721Y-86270283D01*
X133157158Y-86790390D01*
X133150694Y-86795695D01*
X133133966Y-86816078D01*
X133127940Y-86822753D01*
X133123001Y-86829440D01*
X133106707Y-86849294D01*
X133102444Y-86857270D01*
X133097067Y-86864549D01*
X133086127Y-86887797D01*
X133074021Y-86910445D01*
X133071395Y-86919101D01*
X133067543Y-86927287D01*
X133061352Y-86952208D01*
X133053893Y-86976797D01*
X133053006Y-86985805D01*
X133050826Y-86994580D01*
X133049616Y-87020223D01*
X133048800Y-87028509D01*
X133048800Y-87037518D01*
X133047558Y-87063840D01*
X133048800Y-87072102D01*
X133048801Y-113668194D01*
X133047235Y-113680556D01*
X133048801Y-113702788D01*
X133048801Y-113707692D01*
X133050014Y-113720009D01*
X133052107Y-113749721D01*
X133053410Y-113754490D01*
X133053894Y-113759404D01*
X133062534Y-113787887D01*
X133070381Y-113816607D01*
X133072587Y-113821026D01*
X133074022Y-113825756D01*
X133088060Y-113852018D01*
X133101352Y-113878644D01*
X133104378Y-113882548D01*
X133106708Y-113886907D01*
X133125596Y-113909922D01*
X133143830Y-113933447D01*
X133147560Y-113936686D01*
X133150695Y-113940506D01*
X133173700Y-113959385D01*
X133183064Y-113967517D01*
X133187073Y-113970360D01*
X133204294Y-113984493D01*
X133215280Y-113990365D01*
X133903207Y-114478256D01*
X133920274Y-114492292D01*
X133946652Y-114506425D01*
X133972680Y-114521284D01*
X133977200Y-114522794D01*
X133981392Y-114525040D01*
X134010028Y-114533759D01*
X134038446Y-114543251D01*
X134043168Y-114543849D01*
X134047723Y-114545236D01*
X134077545Y-114548204D01*
X134107235Y-114551965D01*
X134129276Y-114550412D01*
X145148000Y-114561641D01*
X145148001Y-131757715D01*
X139331713Y-131752986D01*
X139359370Y-131701243D01*
X139378068Y-131639603D01*
X139384382Y-131575500D01*
X139384382Y-130736142D01*
X139658970Y-130461555D01*
X139676219Y-130447399D01*
X139732703Y-130378573D01*
X139774674Y-130300050D01*
X139780446Y-130281022D01*
X139930060Y-130281022D01*
X139994163Y-130274708D01*
X140055803Y-130256010D01*
X140112610Y-130225646D01*
X140162403Y-130184783D01*
X140203266Y-130134990D01*
X140233630Y-130078183D01*
X140252328Y-130016543D01*
X140258642Y-129952440D01*
X140258642Y-128802440D01*
X140252328Y-128738337D01*
X140233630Y-128676697D01*
X140203266Y-128619890D01*
X140162403Y-128570097D01*
X140112610Y-128529234D01*
X140096120Y-128520420D01*
X140096120Y-128485485D01*
X140126828Y-128411348D01*
X140146120Y-128314363D01*
X140146120Y-128215477D01*
X140126828Y-128118492D01*
X140095178Y-128042080D01*
X140127039Y-128042080D01*
X140191194Y-128084947D01*
X140282552Y-128122788D01*
X140379537Y-128142080D01*
X140478423Y-128142080D01*
X140575408Y-128122788D01*
X140666766Y-128084947D01*
X140724969Y-128046056D01*
X140727732Y-128074103D01*
X140746430Y-128135743D01*
X140775431Y-128190000D01*
X140746430Y-128244257D01*
X140727732Y-128305897D01*
X140721418Y-128370000D01*
X140721418Y-128610000D01*
X140727732Y-128674103D01*
X140746430Y-128735743D01*
X140775431Y-128790000D01*
X140746430Y-128844257D01*
X140727732Y-128905897D01*
X140721418Y-128970000D01*
X140721418Y-129210000D01*
X140727732Y-129274103D01*
X140746430Y-129335743D01*
X140775431Y-129390000D01*
X140746430Y-129444257D01*
X140727732Y-129505897D01*
X140721418Y-129570000D01*
X140721418Y-129810000D01*
X140727732Y-129874103D01*
X140746430Y-129935743D01*
X140775431Y-129990000D01*
X140746430Y-130044257D01*
X140727732Y-130105897D01*
X140721418Y-130170000D01*
X140721418Y-130410000D01*
X140727732Y-130474103D01*
X140746430Y-130535743D01*
X140776794Y-130592550D01*
X140817657Y-130642343D01*
X140867450Y-130683206D01*
X140924257Y-130713570D01*
X140985897Y-130732268D01*
X141050000Y-130738582D01*
X141700000Y-130738582D01*
X141764103Y-130732268D01*
X141825743Y-130713570D01*
X141882550Y-130683206D01*
X141932343Y-130642343D01*
X141973206Y-130592550D01*
X142003570Y-130535743D01*
X142022268Y-130474103D01*
X142028582Y-130410000D01*
X142028582Y-130170000D01*
X142022268Y-130105897D01*
X142003570Y-130044257D01*
X141974569Y-129990000D01*
X142003570Y-129935743D01*
X142022268Y-129874103D01*
X142028582Y-129810000D01*
X142028582Y-129570000D01*
X142022268Y-129505897D01*
X142003570Y-129444257D01*
X141974569Y-129390000D01*
X142003570Y-129335743D01*
X142022268Y-129274103D01*
X142028582Y-129210000D01*
X142028582Y-128970000D01*
X142022268Y-128905897D01*
X142003570Y-128844257D01*
X141974569Y-128790000D01*
X142003570Y-128735743D01*
X142022268Y-128674103D01*
X142028582Y-128610000D01*
X142028582Y-128370000D01*
X142022268Y-128305897D01*
X142003570Y-128244257D01*
X141974569Y-128190000D01*
X142003570Y-128135743D01*
X142022268Y-128074103D01*
X142028582Y-128010000D01*
X142028582Y-127770000D01*
X142022268Y-127705897D01*
X142003570Y-127644257D01*
X141974569Y-127590000D01*
X142003570Y-127535743D01*
X142022268Y-127474103D01*
X142028582Y-127410000D01*
X142028582Y-127170000D01*
X142022268Y-127105897D01*
X142003570Y-127044257D01*
X141974569Y-126990000D01*
X142003570Y-126935743D01*
X142022268Y-126874103D01*
X142028582Y-126810000D01*
X142028582Y-126570000D01*
X142022268Y-126505897D01*
X142003570Y-126444257D01*
X141974569Y-126390000D01*
X142003570Y-126335743D01*
X142022268Y-126274103D01*
X142028582Y-126210000D01*
X142028582Y-125970000D01*
X142022268Y-125905897D01*
X142003570Y-125844257D01*
X141974569Y-125790000D01*
X142003570Y-125735743D01*
X142022268Y-125674103D01*
X142028582Y-125610000D01*
X142028582Y-125370000D01*
X142022268Y-125305897D01*
X142003570Y-125244257D01*
X141974569Y-125190000D01*
X142003570Y-125135743D01*
X142022268Y-125074103D01*
X142028582Y-125010000D01*
X142028582Y-124770000D01*
X142022268Y-124705897D01*
X142003570Y-124644257D01*
X141974569Y-124590000D01*
X142003570Y-124535743D01*
X142022268Y-124474103D01*
X142028582Y-124410000D01*
X142028582Y-124170000D01*
X142022268Y-124105897D01*
X142003570Y-124044257D01*
X141974569Y-123990000D01*
X142003570Y-123935743D01*
X142022268Y-123874103D01*
X142028582Y-123810000D01*
X142028582Y-123570000D01*
X142022268Y-123505897D01*
X142003570Y-123444257D01*
X141974569Y-123390000D01*
X142003570Y-123335743D01*
X142022268Y-123274103D01*
X142028582Y-123210000D01*
X142028582Y-122970000D01*
X142022268Y-122905897D01*
X142003570Y-122844257D01*
X141974569Y-122790000D01*
X142003570Y-122735743D01*
X142022268Y-122674103D01*
X142028582Y-122610000D01*
X142028582Y-122584074D01*
X142058351Y-122628626D01*
X142128274Y-122698549D01*
X142210494Y-122753487D01*
X142301852Y-122791328D01*
X142398837Y-122810620D01*
X142497723Y-122810620D01*
X142594708Y-122791328D01*
X142686066Y-122753487D01*
X142768286Y-122698549D01*
X142838209Y-122628626D01*
X142893147Y-122546406D01*
X142930988Y-122455048D01*
X142946041Y-122379372D01*
X143333414Y-121992000D01*
X143781948Y-121992000D01*
X143777732Y-122005897D01*
X143771418Y-122070000D01*
X143771418Y-122310000D01*
X143777732Y-122374103D01*
X143796430Y-122435743D01*
X143825431Y-122490000D01*
X143796430Y-122544257D01*
X143777732Y-122605897D01*
X143771418Y-122670000D01*
X143771418Y-122910000D01*
X143777732Y-122974103D01*
X143796430Y-123035743D01*
X143825431Y-123090000D01*
X143796430Y-123144257D01*
X143777732Y-123205897D01*
X143771418Y-123270000D01*
X143771418Y-123510000D01*
X143777732Y-123574103D01*
X143796430Y-123635743D01*
X143825431Y-123690000D01*
X143796430Y-123744257D01*
X143777732Y-123805897D01*
X143771418Y-123870000D01*
X143771418Y-124110000D01*
X143777732Y-124174103D01*
X143781948Y-124188000D01*
X143315919Y-124188000D01*
X143296179Y-124186056D01*
X143276440Y-124188000D01*
X143276433Y-124188000D01*
X143217374Y-124193817D01*
X143172849Y-124207323D01*
X143170823Y-124206920D01*
X143071937Y-124206920D01*
X142974952Y-124226212D01*
X142883594Y-124264053D01*
X142801374Y-124318991D01*
X142731451Y-124388914D01*
X142676513Y-124471134D01*
X142638672Y-124562492D01*
X142619380Y-124659477D01*
X142619380Y-124758363D01*
X142638672Y-124855348D01*
X142676513Y-124946706D01*
X142731451Y-125028926D01*
X142801374Y-125098849D01*
X142883594Y-125153787D01*
X142974952Y-125191628D01*
X143071937Y-125210920D01*
X143170823Y-125210920D01*
X143267808Y-125191628D01*
X143359166Y-125153787D01*
X143441386Y-125098849D01*
X143511309Y-125028926D01*
X143535982Y-124992000D01*
X143781948Y-124992000D01*
X143777732Y-125005897D01*
X143771418Y-125070000D01*
X143771418Y-125310000D01*
X143777732Y-125374103D01*
X143796430Y-125435743D01*
X143797219Y-125437220D01*
X143692299Y-125437220D01*
X143672559Y-125435276D01*
X143652820Y-125437220D01*
X143652813Y-125437220D01*
X143593754Y-125443037D01*
X143517977Y-125466023D01*
X143448140Y-125503352D01*
X143423732Y-125523383D01*
X143343252Y-125539392D01*
X143251894Y-125577233D01*
X143169674Y-125632171D01*
X143099751Y-125702094D01*
X143044813Y-125784314D01*
X143006972Y-125875672D01*
X142987680Y-125972657D01*
X142987680Y-126071543D01*
X143006972Y-126168528D01*
X143044813Y-126259886D01*
X143099751Y-126342106D01*
X143169674Y-126412029D01*
X143251894Y-126466967D01*
X143343252Y-126504808D01*
X143440237Y-126524100D01*
X143539123Y-126524100D01*
X143636108Y-126504808D01*
X143727466Y-126466967D01*
X143771418Y-126437599D01*
X143771418Y-126510000D01*
X143777732Y-126574103D01*
X143796430Y-126635743D01*
X143825431Y-126690000D01*
X143796430Y-126744257D01*
X143777732Y-126805897D01*
X143771418Y-126870000D01*
X143771418Y-127110000D01*
X143777732Y-127174103D01*
X143782500Y-127189820D01*
X143473859Y-127189820D01*
X143454119Y-127187876D01*
X143434380Y-127189820D01*
X143434373Y-127189820D01*
X143375314Y-127195637D01*
X143299537Y-127218623D01*
X143229700Y-127255952D01*
X143168488Y-127306188D01*
X143155897Y-127321530D01*
X142730588Y-127746839D01*
X142654912Y-127761892D01*
X142563554Y-127799733D01*
X142481334Y-127854671D01*
X142411411Y-127924594D01*
X142356473Y-128006814D01*
X142318632Y-128098172D01*
X142299340Y-128195157D01*
X142299340Y-128294043D01*
X142318632Y-128391028D01*
X142356473Y-128482386D01*
X142411411Y-128564606D01*
X142481334Y-128634529D01*
X142563554Y-128689467D01*
X142654912Y-128727308D01*
X142751897Y-128746600D01*
X142850783Y-128746600D01*
X142947768Y-128727308D01*
X143039126Y-128689467D01*
X143121346Y-128634529D01*
X143191269Y-128564606D01*
X143246207Y-128482386D01*
X143284048Y-128391028D01*
X143299101Y-128315352D01*
X143620633Y-127993820D01*
X143781395Y-127993820D01*
X143777732Y-128005897D01*
X143771418Y-128070000D01*
X143771418Y-128310000D01*
X143777732Y-128374103D01*
X143796430Y-128435743D01*
X143825431Y-128490000D01*
X143796430Y-128544257D01*
X143777732Y-128605897D01*
X143771418Y-128670000D01*
X143771418Y-128910000D01*
X143777732Y-128974103D01*
X143796430Y-129035743D01*
X143825431Y-129090000D01*
X143796430Y-129144257D01*
X143777732Y-129205897D01*
X143771418Y-129270000D01*
X143771418Y-129510000D01*
X143777732Y-129574103D01*
X143796430Y-129635743D01*
X143825431Y-129690000D01*
X143796430Y-129744257D01*
X143777732Y-129805897D01*
X143771418Y-129870000D01*
X143771418Y-130110000D01*
X143777732Y-130174103D01*
X143796430Y-130235743D01*
X143825431Y-130290000D01*
X143796430Y-130344257D01*
X143777732Y-130405897D01*
X143771418Y-130470000D01*
X143771418Y-130710000D01*
X143777732Y-130774103D01*
X143796430Y-130835743D01*
X143826794Y-130892550D01*
X143867657Y-130942343D01*
X143917450Y-130983206D01*
X143974257Y-131013570D01*
X144035897Y-131032268D01*
X144100000Y-131038582D01*
X144750000Y-131038582D01*
X144814103Y-131032268D01*
X144875743Y-131013570D01*
X144932550Y-130983206D01*
X144982343Y-130942343D01*
X145023206Y-130892550D01*
X145053570Y-130835743D01*
X145072268Y-130774103D01*
X145078582Y-130710000D01*
X145078582Y-130470000D01*
X145072268Y-130405897D01*
X145053570Y-130344257D01*
X145024569Y-130290000D01*
X145053570Y-130235743D01*
X145072268Y-130174103D01*
X145078582Y-130110000D01*
X145078582Y-129870000D01*
X145072268Y-129805897D01*
X145053570Y-129744257D01*
X145024569Y-129690000D01*
X145053570Y-129635743D01*
X145072268Y-129574103D01*
X145078582Y-129510000D01*
X145078582Y-129270000D01*
X145072268Y-129205897D01*
X145053570Y-129144257D01*
X145024569Y-129090000D01*
X145053570Y-129035743D01*
X145072268Y-128974103D01*
X145078582Y-128910000D01*
X145078582Y-128670000D01*
X145072268Y-128605897D01*
X145053570Y-128544257D01*
X145024569Y-128490000D01*
X145053570Y-128435743D01*
X145072268Y-128374103D01*
X145078582Y-128310000D01*
X145078582Y-128070000D01*
X145072268Y-128005897D01*
X145053570Y-127944257D01*
X145024569Y-127890000D01*
X145053570Y-127835743D01*
X145072268Y-127774103D01*
X145078582Y-127710000D01*
X145078582Y-127470000D01*
X145072268Y-127405897D01*
X145053570Y-127344257D01*
X145024569Y-127290000D01*
X145053570Y-127235743D01*
X145072268Y-127174103D01*
X145078582Y-127110000D01*
X145078582Y-126870000D01*
X145072268Y-126805897D01*
X145053570Y-126744257D01*
X145024569Y-126690000D01*
X145053570Y-126635743D01*
X145072268Y-126574103D01*
X145078582Y-126510000D01*
X145078582Y-126270000D01*
X145072268Y-126205897D01*
X145053570Y-126144257D01*
X145024569Y-126090000D01*
X145053570Y-126035743D01*
X145072268Y-125974103D01*
X145078582Y-125910000D01*
X145078582Y-125670000D01*
X145072268Y-125605897D01*
X145053570Y-125544257D01*
X145024569Y-125490000D01*
X145053570Y-125435743D01*
X145072268Y-125374103D01*
X145078582Y-125310000D01*
X145078582Y-125070000D01*
X145072268Y-125005897D01*
X145053570Y-124944257D01*
X145024569Y-124890000D01*
X145053570Y-124835743D01*
X145072268Y-124774103D01*
X145078582Y-124710000D01*
X145078582Y-124470000D01*
X145072268Y-124405897D01*
X145053570Y-124344257D01*
X145024569Y-124290000D01*
X145053570Y-124235743D01*
X145072268Y-124174103D01*
X145078582Y-124110000D01*
X145078582Y-123870000D01*
X145072268Y-123805897D01*
X145053570Y-123744257D01*
X145024569Y-123690000D01*
X145053570Y-123635743D01*
X145072268Y-123574103D01*
X145078582Y-123510000D01*
X145078582Y-123270000D01*
X145072268Y-123205897D01*
X145053570Y-123144257D01*
X145024569Y-123090000D01*
X145053570Y-123035743D01*
X145072268Y-122974103D01*
X145078582Y-122910000D01*
X145078582Y-122670000D01*
X145072268Y-122605897D01*
X145053570Y-122544257D01*
X145024569Y-122490000D01*
X145053570Y-122435743D01*
X145072268Y-122374103D01*
X145078582Y-122310000D01*
X145078582Y-122070000D01*
X145072268Y-122005897D01*
X145053570Y-121944257D01*
X145024569Y-121890000D01*
X145053570Y-121835743D01*
X145072268Y-121774103D01*
X145078582Y-121710000D01*
X145078582Y-121470000D01*
X145072268Y-121405897D01*
X145053570Y-121344257D01*
X145023206Y-121287450D01*
X144982343Y-121237657D01*
X144932550Y-121196794D01*
X144875743Y-121166430D01*
X144814103Y-121147732D01*
X144750000Y-121141418D01*
X144100000Y-121141418D01*
X144035897Y-121147732D01*
X143974257Y-121166430D01*
X143933902Y-121188000D01*
X143186639Y-121188000D01*
X143166899Y-121186056D01*
X143147160Y-121188000D01*
X143147153Y-121188000D01*
X143088094Y-121193817D01*
X143012317Y-121216803D01*
X142942480Y-121254132D01*
X142881268Y-121304368D01*
X142868681Y-121319705D01*
X142377528Y-121810859D01*
X142301852Y-121825912D01*
X142210494Y-121863753D01*
X142128274Y-121918691D01*
X142058351Y-121988614D01*
X142025906Y-122037172D01*
X142028582Y-122010000D01*
X142028582Y-121770000D01*
X142022268Y-121705897D01*
X142003570Y-121644257D01*
X141974569Y-121590000D01*
X142003570Y-121535743D01*
X142022268Y-121474103D01*
X142028582Y-121410000D01*
X142028582Y-121170000D01*
X142022268Y-121105897D01*
X142003570Y-121044257D01*
X141974569Y-120990000D01*
X142003570Y-120935743D01*
X142022268Y-120874103D01*
X142028582Y-120810000D01*
X142028582Y-120570000D01*
X142022268Y-120505897D01*
X142003570Y-120444257D01*
X141973206Y-120387450D01*
X141932343Y-120337657D01*
X141882550Y-120296794D01*
X141832422Y-120270000D01*
X143771418Y-120270000D01*
X143771418Y-120510000D01*
X143777732Y-120574103D01*
X143796430Y-120635743D01*
X143826794Y-120692550D01*
X143867657Y-120742343D01*
X143917450Y-120783206D01*
X143974257Y-120813570D01*
X144035897Y-120832268D01*
X144100000Y-120838582D01*
X144750000Y-120838582D01*
X144814103Y-120832268D01*
X144875743Y-120813570D01*
X144932550Y-120783206D01*
X144982343Y-120742343D01*
X145023206Y-120692550D01*
X145053570Y-120635743D01*
X145072268Y-120574103D01*
X145078582Y-120510000D01*
X145078582Y-120270000D01*
X145072268Y-120205897D01*
X145053570Y-120144257D01*
X145023206Y-120087450D01*
X144982343Y-120037657D01*
X144932550Y-119996794D01*
X144875743Y-119966430D01*
X144814103Y-119947732D01*
X144750000Y-119941418D01*
X144100000Y-119941418D01*
X144035897Y-119947732D01*
X143974257Y-119966430D01*
X143917450Y-119996794D01*
X143867657Y-120037657D01*
X143826794Y-120087450D01*
X143796430Y-120144257D01*
X143777732Y-120205897D01*
X143771418Y-120270000D01*
X141832422Y-120270000D01*
X141825743Y-120266430D01*
X141764103Y-120247732D01*
X141700000Y-120241418D01*
X141050000Y-120241418D01*
X140985897Y-120247732D01*
X140924257Y-120266430D01*
X140867450Y-120296794D01*
X140817657Y-120337657D01*
X140776794Y-120387450D01*
X140746430Y-120444257D01*
X140727732Y-120505897D01*
X140721418Y-120570000D01*
X140721418Y-120810000D01*
X140727732Y-120874103D01*
X140746430Y-120935743D01*
X140775431Y-120990000D01*
X140746430Y-121044257D01*
X140727732Y-121105897D01*
X140725770Y-121125817D01*
X139689799Y-122161788D01*
X139677248Y-122098692D01*
X139639407Y-122007334D01*
X139596540Y-121943179D01*
X139596540Y-121578831D01*
X139603203Y-121573363D01*
X139644066Y-121523570D01*
X139674430Y-121466763D01*
X139693128Y-121405123D01*
X139699442Y-121341020D01*
X139699442Y-119866020D01*
X139693128Y-119801917D01*
X139674430Y-119740277D01*
X139644066Y-119683470D01*
X139603203Y-119633677D01*
X139587216Y-119620557D01*
X140198000Y-119620557D01*
X140198000Y-119719443D01*
X140217292Y-119816428D01*
X140255133Y-119907786D01*
X140310071Y-119990006D01*
X140379994Y-120059929D01*
X140462214Y-120114867D01*
X140553572Y-120152708D01*
X140650557Y-120172000D01*
X140749443Y-120172000D01*
X140846428Y-120152708D01*
X140937786Y-120114867D01*
X141020006Y-120059929D01*
X141089929Y-119990006D01*
X141105301Y-119967000D01*
X142516585Y-119967000D01*
X142540000Y-119969306D01*
X142563415Y-119967000D01*
X142563423Y-119967000D01*
X142633508Y-119960097D01*
X142723423Y-119932822D01*
X142806289Y-119888529D01*
X142878921Y-119828921D01*
X142893855Y-119810724D01*
X143037579Y-119667000D01*
X144448423Y-119667000D01*
X144518508Y-119660097D01*
X144589435Y-119638582D01*
X144750000Y-119638582D01*
X144814103Y-119632268D01*
X144875743Y-119613570D01*
X144932550Y-119583206D01*
X144982343Y-119542343D01*
X145023206Y-119492550D01*
X145053570Y-119435743D01*
X145072268Y-119374103D01*
X145078582Y-119310000D01*
X145078582Y-119070000D01*
X145072268Y-119005897D01*
X145053570Y-118944257D01*
X145023206Y-118887450D01*
X144982343Y-118837657D01*
X144932550Y-118796794D01*
X144875743Y-118766430D01*
X144814103Y-118747732D01*
X144750000Y-118741418D01*
X144589435Y-118741418D01*
X144518508Y-118719903D01*
X144448423Y-118713000D01*
X142863414Y-118713000D01*
X142839999Y-118710694D01*
X142816584Y-118713000D01*
X142816577Y-118713000D01*
X142746492Y-118719903D01*
X142656577Y-118747178D01*
X142573711Y-118791471D01*
X142501079Y-118851079D01*
X142486145Y-118869276D01*
X142342421Y-119013000D01*
X140903414Y-119013000D01*
X140879999Y-119010694D01*
X140856584Y-119013000D01*
X140856577Y-119013000D01*
X140795338Y-119019032D01*
X140786491Y-119019903D01*
X140765564Y-119026251D01*
X140696577Y-119047178D01*
X140613711Y-119091471D01*
X140541079Y-119151079D01*
X140526145Y-119169276D01*
X140475997Y-119219424D01*
X140462214Y-119225133D01*
X140379994Y-119280071D01*
X140310071Y-119349994D01*
X140255133Y-119432214D01*
X140217292Y-119523572D01*
X140198000Y-119620557D01*
X139587216Y-119620557D01*
X139553410Y-119592814D01*
X139496603Y-119562450D01*
X139434963Y-119543752D01*
X139370860Y-119537438D01*
X138920860Y-119537438D01*
X138856757Y-119543752D01*
X138820860Y-119554641D01*
X138784963Y-119543752D01*
X138720860Y-119537438D01*
X138270860Y-119537438D01*
X138247860Y-119539703D01*
X138247860Y-119479171D01*
X138266377Y-119484788D01*
X138330480Y-119491102D01*
X139480480Y-119491102D01*
X139544583Y-119484788D01*
X139606223Y-119466090D01*
X139663030Y-119435726D01*
X139712823Y-119394863D01*
X139753686Y-119345070D01*
X139784050Y-119288263D01*
X139802748Y-119226623D01*
X139809062Y-119162520D01*
X139809062Y-118193933D01*
X139811442Y-118186087D01*
X139817620Y-118123358D01*
X139817620Y-118123347D01*
X139819685Y-118102380D01*
X139817620Y-118081413D01*
X139817620Y-117934082D01*
X139965620Y-117934082D01*
X140029723Y-117927768D01*
X140091363Y-117909070D01*
X140148170Y-117878706D01*
X140197963Y-117837843D01*
X140238826Y-117788050D01*
X140269190Y-117731243D01*
X140287888Y-117669603D01*
X140294202Y-117605500D01*
X140294202Y-117517000D01*
X140726638Y-117517000D01*
X140721418Y-117570000D01*
X140721418Y-117810000D01*
X140727732Y-117874103D01*
X140746430Y-117935743D01*
X140775431Y-117990000D01*
X140746430Y-118044257D01*
X140727732Y-118105897D01*
X140721418Y-118170000D01*
X140721418Y-118410000D01*
X140727732Y-118474103D01*
X140746430Y-118535743D01*
X140776794Y-118592550D01*
X140817657Y-118642343D01*
X140867450Y-118683206D01*
X140924257Y-118713570D01*
X140985897Y-118732268D01*
X141050000Y-118738582D01*
X141210565Y-118738582D01*
X141281492Y-118760097D01*
X141351577Y-118767000D01*
X141866585Y-118767000D01*
X141890000Y-118769306D01*
X141913415Y-118767000D01*
X141913423Y-118767000D01*
X141983508Y-118760097D01*
X142073423Y-118732822D01*
X142156289Y-118688529D01*
X142228921Y-118628921D01*
X142243855Y-118610724D01*
X142790000Y-118064580D01*
X143036149Y-118310729D01*
X143051079Y-118328921D01*
X143069270Y-118343850D01*
X143069272Y-118343852D01*
X143081048Y-118353516D01*
X143123711Y-118388529D01*
X143206577Y-118432822D01*
X143296492Y-118460097D01*
X143366577Y-118467000D01*
X143366584Y-118467000D01*
X143389999Y-118469306D01*
X143413414Y-118467000D01*
X144448423Y-118467000D01*
X144518508Y-118460097D01*
X144589435Y-118438582D01*
X144750000Y-118438582D01*
X144814103Y-118432268D01*
X144875743Y-118413570D01*
X144932550Y-118383206D01*
X144982343Y-118342343D01*
X145023206Y-118292550D01*
X145053570Y-118235743D01*
X145072268Y-118174103D01*
X145078582Y-118110000D01*
X145078582Y-117870000D01*
X145072268Y-117805897D01*
X145053570Y-117744257D01*
X145024569Y-117690000D01*
X145053570Y-117635743D01*
X145072268Y-117574103D01*
X145078582Y-117510000D01*
X145078582Y-117270000D01*
X145072268Y-117205897D01*
X145053570Y-117144257D01*
X145024569Y-117090000D01*
X145053570Y-117035743D01*
X145072268Y-116974103D01*
X145078582Y-116910000D01*
X145078582Y-116670000D01*
X145072268Y-116605897D01*
X145053570Y-116544257D01*
X145023206Y-116487450D01*
X144982343Y-116437657D01*
X144932550Y-116396794D01*
X144875743Y-116366430D01*
X144814103Y-116347732D01*
X144750000Y-116341418D01*
X144589434Y-116341418D01*
X144518507Y-116319903D01*
X144424999Y-116310694D01*
X144331492Y-116319903D01*
X144260565Y-116341418D01*
X144100000Y-116341418D01*
X144035897Y-116347732D01*
X143974257Y-116366430D01*
X143917450Y-116396794D01*
X143867657Y-116437657D01*
X143826794Y-116487450D01*
X143796430Y-116544257D01*
X143777732Y-116605897D01*
X143777032Y-116613000D01*
X142061297Y-116613000D01*
X142013923Y-116587678D01*
X141924008Y-116560403D01*
X141853923Y-116553500D01*
X141853915Y-116553500D01*
X141830500Y-116551194D01*
X141807085Y-116553500D01*
X140294202Y-116553500D01*
X140294202Y-116455500D01*
X140287888Y-116391397D01*
X140269190Y-116329757D01*
X140238826Y-116272950D01*
X140197963Y-116223157D01*
X140148170Y-116182294D01*
X140091363Y-116151930D01*
X140029723Y-116133232D01*
X139965620Y-116126918D01*
X139161617Y-116126918D01*
X138733975Y-115699276D01*
X138719041Y-115681079D01*
X138646409Y-115621471D01*
X138563543Y-115577178D01*
X138473628Y-115549903D01*
X138403543Y-115543000D01*
X138403535Y-115543000D01*
X138380120Y-115540694D01*
X138356705Y-115543000D01*
X133855595Y-115543000D01*
X133832180Y-115540694D01*
X133808765Y-115543000D01*
X133057580Y-115543000D01*
X132517000Y-115002421D01*
X132517000Y-86147579D01*
X133162581Y-85501999D01*
X138832266Y-85501999D01*
X138855681Y-85504305D01*
X138879096Y-85501999D01*
X138879104Y-85501999D01*
X138949189Y-85495096D01*
X139039104Y-85467821D01*
X139121970Y-85423528D01*
X139194602Y-85363920D01*
X139209536Y-85345723D01*
X141764298Y-82790962D01*
X141905800Y-82790962D01*
X141969903Y-82784648D01*
X142031543Y-82765950D01*
X142088350Y-82735586D01*
X142129422Y-82701880D01*
X142336045Y-82701880D01*
X142376410Y-82735006D01*
X142433217Y-82765370D01*
X142494857Y-82784068D01*
X142558960Y-82790382D01*
X143058960Y-82790382D01*
X143123063Y-82784068D01*
X143184703Y-82765370D01*
X143241510Y-82735006D01*
X143281875Y-82701880D01*
X143652203Y-82701880D01*
X143692690Y-82735106D01*
X143749497Y-82765470D01*
X143811137Y-82784168D01*
X143875240Y-82790482D01*
X144375240Y-82790482D01*
X144439343Y-82784168D01*
X144500983Y-82765470D01*
X144557790Y-82735106D01*
X144598277Y-82701880D01*
X146457301Y-82701880D01*
X147209425Y-83454004D01*
X147215133Y-83467786D01*
X147270071Y-83550006D01*
X147339994Y-83619929D01*
X147422214Y-83674867D01*
X147513572Y-83712708D01*
X147610557Y-83732000D01*
X147709443Y-83732000D01*
X147806428Y-83712708D01*
X147897786Y-83674867D01*
X147980006Y-83619929D01*
X148049929Y-83550006D01*
X148104867Y-83467786D01*
X148142708Y-83376428D01*
X148162000Y-83279443D01*
X148162000Y-83180557D01*
X148142708Y-83083572D01*
X148104867Y-82992214D01*
X148049929Y-82909994D01*
X147980006Y-82840071D01*
X147897786Y-82785133D01*
X147884004Y-82779425D01*
X147008255Y-81903676D01*
X146993321Y-81885479D01*
X146920689Y-81825871D01*
X146837823Y-81781578D01*
X146747908Y-81754303D01*
X146677823Y-81747400D01*
X146677815Y-81747400D01*
X146654400Y-81745094D01*
X146630985Y-81747400D01*
X146548655Y-81747400D01*
X146525240Y-81745094D01*
X146501825Y-81747400D01*
X146501817Y-81747400D01*
X146496944Y-81747880D01*
X144599447Y-81747880D01*
X144557790Y-81713694D01*
X144554434Y-81711900D01*
X144557790Y-81710106D01*
X144607583Y-81669243D01*
X144648446Y-81619450D01*
X144678810Y-81562643D01*
X144697508Y-81501003D01*
X144703822Y-81436900D01*
X144703822Y-80961900D01*
X144697508Y-80897797D01*
X144678810Y-80836157D01*
X144648446Y-80779350D01*
X144607583Y-80729557D01*
X144557790Y-80688694D01*
X144527530Y-80672519D01*
X144529184Y-80655720D01*
X144527240Y-80635980D01*
X144527240Y-80635973D01*
X144521423Y-80576914D01*
X144506840Y-80528840D01*
X144988861Y-80528840D01*
X145008600Y-80530784D01*
X145028339Y-80528840D01*
X145028347Y-80528840D01*
X145087406Y-80523023D01*
X145163183Y-80500037D01*
X145229736Y-80464463D01*
X145317588Y-80446988D01*
X145408946Y-80409147D01*
X145491166Y-80354209D01*
X145561089Y-80284286D01*
X145616027Y-80202066D01*
X145653868Y-80110708D01*
X145673160Y-80013723D01*
X145673160Y-79914837D01*
X145653868Y-79817852D01*
X145616027Y-79726494D01*
X145561089Y-79644274D01*
X145491166Y-79574351D01*
X145408946Y-79519413D01*
X145317588Y-79481572D01*
X145220603Y-79462280D01*
X145121717Y-79462280D01*
X145024732Y-79481572D01*
X144933374Y-79519413D01*
X144851154Y-79574351D01*
X144781231Y-79644274D01*
X144727398Y-79724840D01*
X142748579Y-79724840D01*
X142728840Y-79722896D01*
X142709100Y-79724840D01*
X142709093Y-79724840D01*
X142650034Y-79730657D01*
X142574256Y-79753643D01*
X142504420Y-79790972D01*
X142465480Y-79822930D01*
X142443208Y-79841208D01*
X142430621Y-79856545D01*
X141653369Y-80633798D01*
X141405800Y-80633798D01*
X141341697Y-80640112D01*
X141280057Y-80658810D01*
X141223250Y-80689174D01*
X141173457Y-80730037D01*
X141132594Y-80779830D01*
X141102230Y-80836637D01*
X141083532Y-80898277D01*
X141077218Y-80962380D01*
X141077218Y-81437380D01*
X141083532Y-81501483D01*
X141102230Y-81563123D01*
X141132594Y-81619930D01*
X141173457Y-81669723D01*
X141223250Y-81710586D01*
X141226606Y-81712380D01*
X141223250Y-81714174D01*
X141173457Y-81755037D01*
X141132594Y-81804830D01*
X141102230Y-81861637D01*
X141083532Y-81923277D01*
X141077218Y-81987380D01*
X141077218Y-82128882D01*
X138658102Y-84547999D01*
X132988416Y-84547999D01*
X132965001Y-84545693D01*
X132941586Y-84547999D01*
X132941578Y-84547999D01*
X132871493Y-84554902D01*
X132781578Y-84582177D01*
X132698712Y-84626470D01*
X132626080Y-84686078D01*
X132611150Y-84704270D01*
X131719276Y-85596145D01*
X131701079Y-85611079D01*
X131641471Y-85683711D01*
X131597178Y-85766578D01*
X131569903Y-85856493D01*
X131563000Y-85926578D01*
X131563000Y-85926585D01*
X131560694Y-85950000D01*
X131563000Y-85973415D01*
X131563001Y-115176575D01*
X131560694Y-115200000D01*
X131569903Y-115293507D01*
X131597178Y-115383422D01*
X131597179Y-115383423D01*
X131641472Y-115466289D01*
X131701080Y-115538921D01*
X131719271Y-115553850D01*
X132506147Y-116340727D01*
X132521079Y-116358921D01*
X132593711Y-116418529D01*
X132676577Y-116462822D01*
X132766492Y-116490097D01*
X132836577Y-116497000D01*
X132836584Y-116497000D01*
X132859999Y-116499306D01*
X132883414Y-116497000D01*
X133634601Y-116497000D01*
X134698861Y-117561261D01*
X134698860Y-118169037D01*
X134672654Y-118200970D01*
X134642290Y-118257777D01*
X134623592Y-118319417D01*
X134617278Y-118383520D01*
X134617278Y-118803520D01*
X134623592Y-118867623D01*
X134642290Y-118929263D01*
X134652583Y-118948520D01*
X134642290Y-118967777D01*
X134623592Y-119029417D01*
X134617278Y-119093520D01*
X134617278Y-119513520D01*
X134623592Y-119577623D01*
X134642290Y-119639263D01*
X134672654Y-119696070D01*
X134713517Y-119745863D01*
X134715181Y-119747229D01*
X134698592Y-119801917D01*
X134692278Y-119866020D01*
X134692278Y-121164021D01*
X134294536Y-121164021D01*
X130232000Y-117101485D01*
X130232000Y-85436513D01*
X131926514Y-83742000D01*
X137890261Y-83742000D01*
X137910000Y-83743944D01*
X137929739Y-83742000D01*
X137929747Y-83742000D01*
X137988806Y-83736183D01*
X138064583Y-83713197D01*
X138134420Y-83675868D01*
X138195632Y-83625632D01*
X138208223Y-83610290D01*
X139283220Y-82535294D01*
X139283225Y-82535288D01*
X143306434Y-78512080D01*
X145016539Y-78512080D01*
X145080694Y-78554947D01*
X145172052Y-78592788D01*
X145269037Y-78612080D01*
X145367923Y-78612080D01*
X145464908Y-78592788D01*
X145556266Y-78554947D01*
X145638486Y-78500009D01*
X145708409Y-78430086D01*
X145763347Y-78347866D01*
X145801188Y-78256508D01*
X145820480Y-78159523D01*
X145820480Y-78112079D01*
X146006726Y-78112079D01*
X146781599Y-78886952D01*
X146796652Y-78962628D01*
X146834493Y-79053986D01*
X146889431Y-79136206D01*
X146959354Y-79206129D01*
X147041574Y-79261067D01*
X147132932Y-79298908D01*
X147229917Y-79318200D01*
X147328803Y-79318200D01*
X147425788Y-79298908D01*
X147517146Y-79261067D01*
X147599366Y-79206129D01*
X147629201Y-79176294D01*
X147629200Y-80398939D01*
X147586333Y-80463094D01*
X147548492Y-80554452D01*
X147529200Y-80651437D01*
X147529200Y-80750323D01*
X147548492Y-80847308D01*
X147586333Y-80938666D01*
X147641271Y-81020886D01*
X147711194Y-81090809D01*
X147793414Y-81145747D01*
X147838508Y-81164425D01*
X147761994Y-81215551D01*
X147692071Y-81285474D01*
X147637133Y-81367694D01*
X147599292Y-81459052D01*
X147580000Y-81556037D01*
X147580000Y-81654923D01*
X147599292Y-81751908D01*
X147637133Y-81843266D01*
X147692071Y-81925486D01*
X147705855Y-81939270D01*
X147680688Y-81976935D01*
X147642847Y-82068293D01*
X147623555Y-82165278D01*
X147623555Y-82264164D01*
X147642847Y-82361149D01*
X147680688Y-82452507D01*
X147735626Y-82534727D01*
X147805549Y-82604650D01*
X147887769Y-82659588D01*
X147979127Y-82697429D01*
X148076112Y-82716721D01*
X148174998Y-82716721D01*
X148196227Y-82712498D01*
X148623130Y-83139402D01*
X148635719Y-83154741D01*
X148696931Y-83204977D01*
X148766768Y-83242306D01*
X148842545Y-83265292D01*
X148901604Y-83271109D01*
X148901611Y-83271109D01*
X148921351Y-83273053D01*
X148941090Y-83271109D01*
X149656800Y-83271109D01*
X151561500Y-85175810D01*
X151574082Y-85191141D01*
X151589413Y-85203723D01*
X151589420Y-85203730D01*
X151635294Y-85241378D01*
X151705130Y-85278706D01*
X151780908Y-85301693D01*
X151859714Y-85309454D01*
X151879463Y-85307509D01*
X161685310Y-85307511D01*
X161705049Y-85309455D01*
X161724788Y-85307511D01*
X161724795Y-85307511D01*
X161783854Y-85301694D01*
X161859631Y-85278708D01*
X161929468Y-85241379D01*
X161990680Y-85191143D01*
X162003266Y-85175807D01*
X162930080Y-84248993D01*
X164161982Y-85480896D01*
X164174569Y-85496233D01*
X164235781Y-85546469D01*
X164305618Y-85583798D01*
X164381395Y-85606784D01*
X164440454Y-85612601D01*
X164440461Y-85612601D01*
X164460200Y-85614545D01*
X164479940Y-85612601D01*
X170621557Y-85612601D01*
X170709212Y-85648908D01*
X170806197Y-85668200D01*
X170905083Y-85668200D01*
X171002068Y-85648908D01*
X171093426Y-85611067D01*
X171175646Y-85556129D01*
X171245569Y-85486206D01*
X171300507Y-85403986D01*
X171338348Y-85312628D01*
X171357640Y-85215643D01*
X171357640Y-85116757D01*
X171338348Y-85019772D01*
X171300507Y-84928414D01*
X171245569Y-84846194D01*
X171175646Y-84776271D01*
X171093426Y-84721333D01*
X171002068Y-84683492D01*
X170905083Y-84664200D01*
X170806197Y-84664200D01*
X170709212Y-84683492D01*
X170617854Y-84721333D01*
X170595738Y-84736111D01*
X170581428Y-84664172D01*
X170543587Y-84572814D01*
X170488649Y-84490594D01*
X170418726Y-84420671D01*
X170336506Y-84365733D01*
X170245148Y-84327892D01*
X170148163Y-84308600D01*
X170049277Y-84308600D01*
X169952292Y-84327892D01*
X169860934Y-84365733D01*
X169818230Y-84394267D01*
X169809268Y-84349212D01*
X169771427Y-84257854D01*
X169716489Y-84175634D01*
X169646566Y-84105711D01*
X169564346Y-84050773D01*
X169472988Y-84012932D01*
X169376003Y-83993640D01*
X169277117Y-83993640D01*
X169180132Y-84012932D01*
X169147840Y-84026308D01*
X169147840Y-84004237D01*
X169128548Y-83907252D01*
X169090707Y-83815894D01*
X169035769Y-83733674D01*
X168965846Y-83663751D01*
X168883626Y-83608813D01*
X168792268Y-83570972D01*
X168695283Y-83551680D01*
X168596397Y-83551680D01*
X168499412Y-83570972D01*
X168408054Y-83608813D01*
X168343899Y-83651680D01*
X165658662Y-83651680D01*
X165658662Y-83134062D01*
X166305080Y-83134062D01*
X166369183Y-83127748D01*
X166430823Y-83109050D01*
X166487630Y-83078686D01*
X166513470Y-83057480D01*
X166594265Y-83057480D01*
X166598634Y-83061849D01*
X166680854Y-83116787D01*
X166772212Y-83154628D01*
X166869197Y-83173920D01*
X166968083Y-83173920D01*
X167065068Y-83154628D01*
X167156426Y-83116787D01*
X167238646Y-83061849D01*
X167308569Y-82991926D01*
X167363507Y-82909706D01*
X167401348Y-82818348D01*
X167420640Y-82721363D01*
X167420640Y-82622477D01*
X167401348Y-82525492D01*
X167363507Y-82434134D01*
X167313686Y-82359573D01*
X167340388Y-82295108D01*
X167359680Y-82198123D01*
X167359680Y-82099237D01*
X167340388Y-82002252D01*
X167302547Y-81910894D01*
X167278575Y-81875018D01*
X167314988Y-81787108D01*
X167334280Y-81690123D01*
X167334280Y-81591237D01*
X167314988Y-81494252D01*
X167277147Y-81402894D01*
X167222209Y-81320674D01*
X167152286Y-81250751D01*
X167070066Y-81195813D01*
X166978708Y-81157972D01*
X166933593Y-81148998D01*
X166997913Y-81122356D01*
X167080133Y-81067418D01*
X167150056Y-80997495D01*
X167204994Y-80915275D01*
X167242835Y-80823917D01*
X167262127Y-80726932D01*
X167262127Y-80628046D01*
X167242835Y-80531061D01*
X167227697Y-80494513D01*
X167277147Y-80420506D01*
X167314988Y-80329148D01*
X167334280Y-80232163D01*
X167334280Y-80133277D01*
X167314988Y-80036292D01*
X167277147Y-79944934D01*
X167222209Y-79862714D01*
X167173509Y-79814014D01*
X167188667Y-79737811D01*
X167188667Y-79638925D01*
X167169375Y-79541940D01*
X167134711Y-79458253D01*
X167155768Y-79426739D01*
X167193609Y-79335381D01*
X167212901Y-79238396D01*
X167212901Y-79139510D01*
X167193609Y-79042525D01*
X167155768Y-78951167D01*
X167139799Y-78927268D01*
X167139987Y-78926986D01*
X167177828Y-78835628D01*
X167197120Y-78738643D01*
X167197120Y-78639757D01*
X167177828Y-78542772D01*
X167139987Y-78451414D01*
X167108822Y-78404772D01*
X167109507Y-78403746D01*
X167147348Y-78312388D01*
X167166640Y-78215403D01*
X167166640Y-78132480D01*
X168571105Y-78132480D01*
X168594520Y-78134786D01*
X168617935Y-78132480D01*
X168617943Y-78132480D01*
X168688028Y-78125577D01*
X168777943Y-78098302D01*
X168860809Y-78054009D01*
X168933441Y-77994401D01*
X168948375Y-77976204D01*
X169190724Y-77733855D01*
X169208921Y-77718921D01*
X169268529Y-77646289D01*
X169312822Y-77563423D01*
X169340097Y-77473508D01*
X169347000Y-77403423D01*
X169347000Y-77403415D01*
X169349306Y-77380000D01*
X169347000Y-77356585D01*
X169347000Y-76363415D01*
X169349306Y-76340000D01*
X169347000Y-76316585D01*
X169347000Y-76316577D01*
X169340097Y-76246492D01*
X169312822Y-76156577D01*
X169268529Y-76073711D01*
X169242067Y-76041467D01*
X169223852Y-76019272D01*
X169223850Y-76019270D01*
X169208921Y-76001079D01*
X169190729Y-75986149D01*
X166953855Y-73749276D01*
X166938921Y-73731079D01*
X166866289Y-73671471D01*
X166783423Y-73627178D01*
X166693508Y-73599903D01*
X166623423Y-73593000D01*
X166623415Y-73593000D01*
X166600000Y-73590694D01*
X166576585Y-73593000D01*
X157322974Y-73593000D01*
X157299559Y-73590694D01*
X157276144Y-73593000D01*
X157276137Y-73593000D01*
X157206052Y-73599903D01*
X157116137Y-73627178D01*
X157033271Y-73671471D01*
X156960639Y-73731079D01*
X156945710Y-73749270D01*
X151157196Y-79537785D01*
X151138999Y-79552719D01*
X151079391Y-79625351D01*
X151035098Y-79708218D01*
X151007823Y-79798133D01*
X151000920Y-79868218D01*
X151000920Y-79868225D01*
X150998614Y-79891640D01*
X151000920Y-79915055D01*
X151000921Y-80653479D01*
X149162936Y-80653479D01*
X149139521Y-80651173D01*
X149116106Y-80653479D01*
X149116098Y-80653479D01*
X149116088Y-80653480D01*
X149065077Y-80653480D01*
X149033180Y-80659825D01*
X149033180Y-80656037D01*
X149013888Y-80559052D01*
X148976047Y-80467694D01*
X148921109Y-80385474D01*
X148851186Y-80315551D01*
X148833201Y-80303534D01*
X148833201Y-78971500D01*
X148835145Y-78951761D01*
X148833201Y-78932021D01*
X148833201Y-78932014D01*
X148827384Y-78872955D01*
X148821355Y-78853080D01*
X148804398Y-78797177D01*
X148767069Y-78727341D01*
X148729421Y-78681467D01*
X148729419Y-78681465D01*
X148716833Y-78666129D01*
X148701496Y-78653542D01*
X146887718Y-76839765D01*
X146875132Y-76824429D01*
X146859796Y-76811843D01*
X146859793Y-76811840D01*
X146833707Y-76790432D01*
X146813920Y-76774193D01*
X146744083Y-76736864D01*
X146735581Y-76734285D01*
X146668305Y-76713877D01*
X146589500Y-76706116D01*
X146569751Y-76708061D01*
X142886846Y-76708059D01*
X142867106Y-76706115D01*
X142847367Y-76708059D01*
X142847361Y-76708059D01*
X142797153Y-76713004D01*
X142788301Y-76713876D01*
X142755494Y-76723828D01*
X142712525Y-76736862D01*
X142642688Y-76774191D01*
X142581476Y-76824427D01*
X142568890Y-76839763D01*
X137370681Y-82037972D01*
X131406935Y-82037972D01*
X131387195Y-82036028D01*
X131367456Y-82037972D01*
X131367449Y-82037972D01*
X131308390Y-82043789D01*
X131232613Y-82066775D01*
X131162776Y-82104104D01*
X131139279Y-82123388D01*
X131126273Y-82134062D01*
X131101564Y-82154340D01*
X131088977Y-82169677D01*
X128659678Y-84598977D01*
X128644342Y-84611563D01*
X128631756Y-84626899D01*
X128631753Y-84626902D01*
X128624815Y-84635356D01*
X128594106Y-84672775D01*
X128557608Y-84741057D01*
X128556777Y-84742612D01*
X128533790Y-84818390D01*
X128526029Y-84897195D01*
X128527974Y-84916944D01*
X128527972Y-118520791D01*
X128526028Y-118540530D01*
X128527972Y-118560269D01*
X128527972Y-118560276D01*
X128533789Y-118619335D01*
X128556775Y-118695112D01*
X128594104Y-118764949D01*
X128644340Y-118826161D01*
X128659676Y-118838747D01*
X132701244Y-122880316D01*
X132713830Y-122895652D01*
X132775042Y-122945888D01*
X132844879Y-122983217D01*
X132920656Y-123006203D01*
X132979715Y-123012020D01*
X132979722Y-123012020D01*
X132999462Y-123013964D01*
X133019201Y-123012020D01*
X136707121Y-123012020D01*
X136726860Y-123013964D01*
X136746599Y-123012020D01*
X136746607Y-123012020D01*
X136805666Y-123006203D01*
X136881443Y-122983217D01*
X136951280Y-122945888D01*
X137012492Y-122895652D01*
X137025083Y-122880310D01*
X138116157Y-121789237D01*
X138131492Y-121776652D01*
X138181728Y-121715440D01*
X138209462Y-121663554D01*
X138270860Y-121669602D01*
X138720860Y-121669602D01*
X138784963Y-121663288D01*
X138792540Y-121660989D01*
X138792540Y-121943179D01*
X138749673Y-122007334D01*
X138711832Y-122098692D01*
X138692540Y-122195677D01*
X138692540Y-122294563D01*
X138711832Y-122391548D01*
X138749673Y-122482906D01*
X138804611Y-122565126D01*
X138874534Y-122635049D01*
X138956754Y-122689987D01*
X139048112Y-122727828D01*
X139111208Y-122740379D01*
X138942388Y-122909199D01*
X138930747Y-122881094D01*
X138875809Y-122798874D01*
X138805886Y-122728951D01*
X138723666Y-122674013D01*
X138632308Y-122636172D01*
X138535323Y-122616880D01*
X138436437Y-122616880D01*
X138339452Y-122636172D01*
X138248094Y-122674013D01*
X138165874Y-122728951D01*
X138095951Y-122798874D01*
X138041013Y-122881094D01*
X138003172Y-122972452D01*
X137996898Y-123003993D01*
X137247292Y-123753600D01*
X136490087Y-123753600D01*
X136469120Y-123751535D01*
X136448153Y-123753600D01*
X136448142Y-123753600D01*
X136385413Y-123759778D01*
X136304924Y-123784195D01*
X136270393Y-123802652D01*
X136230743Y-123823845D01*
X136182019Y-123863832D01*
X136182015Y-123863836D01*
X136165725Y-123877205D01*
X136152356Y-123893495D01*
X134958755Y-125087097D01*
X134942466Y-125100465D01*
X134929097Y-125116755D01*
X134929092Y-125116760D01*
X134889105Y-125165484D01*
X134849456Y-125239664D01*
X134825039Y-125320154D01*
X134816795Y-125403860D01*
X134818861Y-125424837D01*
X134818861Y-125484775D01*
X134788517Y-125509677D01*
X134747654Y-125559470D01*
X134717290Y-125616277D01*
X134698592Y-125677917D01*
X134692278Y-125742020D01*
X134692278Y-126573377D01*
X134691673Y-126579520D01*
X134692278Y-126585663D01*
X134692278Y-127217020D01*
X134693860Y-127233086D01*
X134693860Y-127422689D01*
X134683517Y-127431177D01*
X134642654Y-127480970D01*
X134612290Y-127537777D01*
X134593592Y-127599417D01*
X134587278Y-127663520D01*
X134587278Y-128083520D01*
X134593592Y-128147623D01*
X134612290Y-128209263D01*
X134642654Y-128266070D01*
X134683517Y-128315863D01*
X134733310Y-128356726D01*
X134790117Y-128387090D01*
X134851757Y-128405788D01*
X134915860Y-128412102D01*
X135375860Y-128412102D01*
X135439963Y-128405788D01*
X135501603Y-128387090D01*
X135558410Y-128356726D01*
X135608203Y-128315863D01*
X135649066Y-128266070D01*
X135679430Y-128209263D01*
X135698128Y-128147623D01*
X135704442Y-128083520D01*
X135704442Y-127663520D01*
X135698128Y-127599417D01*
X135681804Y-127545602D01*
X136120860Y-127545602D01*
X136184963Y-127539288D01*
X136220860Y-127528399D01*
X136256757Y-127539288D01*
X136320860Y-127545602D01*
X136770860Y-127545602D01*
X136793860Y-127543337D01*
X136793860Y-127732347D01*
X136729327Y-127796880D01*
X136526959Y-127796880D01*
X136507219Y-127794936D01*
X136487480Y-127796880D01*
X136487473Y-127796880D01*
X136428414Y-127802697D01*
X136352637Y-127825683D01*
X136282800Y-127863012D01*
X136253023Y-127887450D01*
X136242940Y-127895725D01*
X136221588Y-127913248D01*
X136209001Y-127928585D01*
X135388565Y-128749022D01*
X135373229Y-128761608D01*
X135322993Y-128822820D01*
X135315923Y-128836047D01*
X135285664Y-128892657D01*
X135262677Y-128968435D01*
X135254916Y-129047240D01*
X135256861Y-129066989D01*
X135256860Y-130256860D01*
X135254916Y-130276600D01*
X135256424Y-130291911D01*
X135252230Y-130299757D01*
X135233532Y-130361397D01*
X135227218Y-130425500D01*
X135227218Y-131575500D01*
X135233532Y-131639603D01*
X135252230Y-131701243D01*
X135278126Y-131749690D01*
X133217444Y-131748015D01*
X133217292Y-131748000D01*
X133198985Y-131748000D01*
X133182995Y-131747987D01*
X133182862Y-131748000D01*
X127352000Y-131748000D01*
X127352000Y-83229935D01*
X150773834Y-72952000D01*
X165965451Y-72952000D01*
X174948000Y-78160469D01*
G37*
X174948000Y-78160469D02*
X174948001Y-84482699D01*
X174948000Y-84482709D01*
X174948001Y-89499771D01*
X173913091Y-91169741D01*
X173905908Y-91178493D01*
X173894875Y-91199135D01*
X173891688Y-91204277D01*
X173886714Y-91214402D01*
X173873222Y-91239644D01*
X173871459Y-91245457D01*
X173868777Y-91250916D01*
X173861404Y-91278601D01*
X173853094Y-91305996D01*
X173852498Y-91312044D01*
X173850934Y-91317918D01*
X173849105Y-91346486D01*
X173848000Y-91357708D01*
X173848000Y-91363757D01*
X173846505Y-91387114D01*
X173848000Y-91398338D01*
X173848000Y-91842291D01*
X173848001Y-91842301D01*
X173848000Y-92713000D01*
X173717292Y-92713000D01*
X173700000Y-92711297D01*
X173682709Y-92713000D01*
X173682708Y-92713000D01*
X173630996Y-92718093D01*
X173564644Y-92738221D01*
X173503493Y-92770907D01*
X173449894Y-92814894D01*
X173405907Y-92868493D01*
X173373221Y-92929644D01*
X173353093Y-92995996D01*
X173346297Y-93065000D01*
X173348000Y-93082291D01*
X173348000Y-93102291D01*
X173348001Y-93102300D01*
X173348000Y-93557708D01*
X173346297Y-93575000D01*
X173353093Y-93644004D01*
X173373221Y-93710356D01*
X173405907Y-93771507D01*
X173449894Y-93825106D01*
X173503493Y-93869093D01*
X173564644Y-93901779D01*
X173630996Y-93921907D01*
X173700000Y-93928703D01*
X173717291Y-93927000D01*
X173848001Y-93927000D01*
X173848000Y-94423000D01*
X149062000Y-94423000D01*
X149062000Y-93927000D01*
X149192708Y-93927000D01*
X149210000Y-93928703D01*
X149227291Y-93927000D01*
X149227292Y-93927000D01*
X149279004Y-93921907D01*
X149345356Y-93901779D01*
X149406507Y-93869093D01*
X149460106Y-93825106D01*
X149504093Y-93771507D01*
X149536779Y-93710356D01*
X149556907Y-93644004D01*
X149563703Y-93575000D01*
X149562000Y-93557708D01*
X149562000Y-93092291D01*
X149563703Y-93075000D01*
X149556907Y-93005996D01*
X149536779Y-92939644D01*
X149504093Y-92878493D01*
X149460106Y-92824894D01*
X149406507Y-92780907D01*
X149345356Y-92748221D01*
X149279004Y-92728093D01*
X149227292Y-92723000D01*
X149210000Y-92721297D01*
X149192709Y-92723000D01*
X149052000Y-92723000D01*
X149052000Y-91860644D01*
X149053307Y-91851724D01*
X149052000Y-91826055D01*
X149052000Y-91817708D01*
X149051120Y-91808773D01*
X149049781Y-91782476D01*
X149047730Y-91774348D01*
X149046907Y-91765996D01*
X149039255Y-91740772D01*
X149037065Y-91732094D01*
X149034247Y-91724262D01*
X149026779Y-91699644D01*
X149022525Y-91691686D01*
X148500180Y-90240000D01*
X149321418Y-90240000D01*
X149321418Y-91040000D01*
X149327732Y-91104103D01*
X149346430Y-91165743D01*
X149354071Y-91180038D01*
X149348000Y-91210557D01*
X149348000Y-91309443D01*
X149367292Y-91406428D01*
X149405133Y-91497786D01*
X149460071Y-91580006D01*
X149529994Y-91649929D01*
X149612214Y-91704867D01*
X149703572Y-91742708D01*
X149800557Y-91762000D01*
X149899443Y-91762000D01*
X149996428Y-91742708D01*
X150087786Y-91704867D01*
X150170006Y-91649929D01*
X150239929Y-91580006D01*
X150241659Y-91577417D01*
X150250071Y-91590006D01*
X150319994Y-91659929D01*
X150402214Y-91714867D01*
X150493572Y-91752708D01*
X150590557Y-91772000D01*
X150689443Y-91772000D01*
X150786428Y-91752708D01*
X150877786Y-91714867D01*
X150960006Y-91659929D01*
X151029929Y-91590006D01*
X151050000Y-91559968D01*
X151070071Y-91590006D01*
X151139994Y-91659929D01*
X151222214Y-91714867D01*
X151313572Y-91752708D01*
X151410557Y-91772000D01*
X151509443Y-91772000D01*
X151606428Y-91752708D01*
X151697786Y-91714867D01*
X151780006Y-91659929D01*
X151842003Y-91597932D01*
X151850071Y-91610006D01*
X151919994Y-91679929D01*
X152002214Y-91734867D01*
X152093572Y-91772708D01*
X152190557Y-91792000D01*
X152289443Y-91792000D01*
X152386428Y-91772708D01*
X152477786Y-91734867D01*
X152560006Y-91679929D01*
X152629929Y-91610006D01*
X152641659Y-91592451D01*
X152660071Y-91620006D01*
X152729994Y-91689929D01*
X152812214Y-91744867D01*
X152903572Y-91782708D01*
X153000557Y-91802000D01*
X153099443Y-91802000D01*
X153196428Y-91782708D01*
X153287786Y-91744867D01*
X153370006Y-91689929D01*
X153439929Y-91620006D01*
X153450000Y-91604934D01*
X153460071Y-91620006D01*
X153529994Y-91689929D01*
X153612214Y-91744867D01*
X153703572Y-91782708D01*
X153800557Y-91802000D01*
X153899443Y-91802000D01*
X153996428Y-91782708D01*
X154087786Y-91744867D01*
X154170006Y-91689929D01*
X154239929Y-91620006D01*
X154246659Y-91609934D01*
X154260071Y-91630006D01*
X154329994Y-91699929D01*
X154412214Y-91754867D01*
X154503572Y-91792708D01*
X154600557Y-91812000D01*
X154699443Y-91812000D01*
X154796428Y-91792708D01*
X154887786Y-91754867D01*
X154970006Y-91699929D01*
X155039929Y-91630006D01*
X155043318Y-91624934D01*
X155060071Y-91650006D01*
X155129994Y-91719929D01*
X155212214Y-91774867D01*
X155303572Y-91812708D01*
X155400557Y-91832000D01*
X155499443Y-91832000D01*
X155596428Y-91812708D01*
X155687786Y-91774867D01*
X155770006Y-91719929D01*
X155839929Y-91650006D01*
X155850000Y-91634934D01*
X155860071Y-91650006D01*
X155929994Y-91719929D01*
X155959996Y-91739976D01*
X156011624Y-91782346D01*
X156085804Y-91821996D01*
X156166293Y-91846413D01*
X156250000Y-91854657D01*
X156333706Y-91846413D01*
X156414195Y-91821996D01*
X156488375Y-91782346D01*
X156540003Y-91739977D01*
X156570006Y-91719929D01*
X156631976Y-91657959D01*
X156660071Y-91700006D01*
X156729994Y-91769929D01*
X156812214Y-91824867D01*
X156903572Y-91862708D01*
X157000557Y-91882000D01*
X157099443Y-91882000D01*
X157196428Y-91862708D01*
X157287786Y-91824867D01*
X157370006Y-91769929D01*
X157439929Y-91700006D01*
X157455000Y-91677451D01*
X157470071Y-91700006D01*
X157539994Y-91769929D01*
X157622214Y-91824867D01*
X157713572Y-91862708D01*
X157810557Y-91882000D01*
X157909443Y-91882000D01*
X158006428Y-91862708D01*
X158097786Y-91824867D01*
X158180006Y-91769929D01*
X158243992Y-91705943D01*
X158260071Y-91730006D01*
X158329994Y-91799929D01*
X158412214Y-91854867D01*
X158503572Y-91892708D01*
X158600557Y-91912000D01*
X158699443Y-91912000D01*
X158796428Y-91892708D01*
X158887786Y-91854867D01*
X158970006Y-91799929D01*
X159039929Y-91730006D01*
X159039977Y-91729934D01*
X159060071Y-91760006D01*
X159129994Y-91829929D01*
X159212214Y-91884867D01*
X159303572Y-91922708D01*
X159400557Y-91942000D01*
X159499443Y-91942000D01*
X159596428Y-91922708D01*
X159687786Y-91884867D01*
X159770006Y-91829929D01*
X159839929Y-91760006D01*
X159856682Y-91734934D01*
X159860071Y-91740006D01*
X159929994Y-91809929D01*
X160012214Y-91864867D01*
X160103572Y-91902708D01*
X160200557Y-91922000D01*
X160299443Y-91922000D01*
X160396428Y-91902708D01*
X160487786Y-91864867D01*
X160570006Y-91809929D01*
X160639929Y-91740006D01*
X160639977Y-91739934D01*
X160660071Y-91770006D01*
X160729994Y-91839929D01*
X160812214Y-91894867D01*
X160903572Y-91932708D01*
X161000557Y-91952000D01*
X161099443Y-91952000D01*
X161196428Y-91932708D01*
X161287786Y-91894867D01*
X161370006Y-91839929D01*
X161439929Y-91770006D01*
X161451659Y-91752451D01*
X161470071Y-91780006D01*
X161539994Y-91849929D01*
X161622214Y-91904867D01*
X161713572Y-91942708D01*
X161810557Y-91962000D01*
X161909443Y-91962000D01*
X162006428Y-91942708D01*
X162097786Y-91904867D01*
X162180006Y-91849929D01*
X162235981Y-91793954D01*
X162260071Y-91830006D01*
X162329994Y-91899929D01*
X162412214Y-91954867D01*
X162503572Y-91992708D01*
X162600557Y-92012000D01*
X162699443Y-92012000D01*
X162796428Y-91992708D01*
X162887786Y-91954867D01*
X162970006Y-91899929D01*
X163039929Y-91830006D01*
X163055000Y-91807451D01*
X163070071Y-91830006D01*
X163139994Y-91899929D01*
X163222214Y-91954867D01*
X163313572Y-91992708D01*
X163410557Y-92012000D01*
X163509443Y-92012000D01*
X163606428Y-91992708D01*
X163697786Y-91954867D01*
X163780006Y-91899929D01*
X163847998Y-91831937D01*
X163860071Y-91850006D01*
X163929994Y-91919929D01*
X164012214Y-91974867D01*
X164103572Y-92012708D01*
X164200557Y-92032000D01*
X164299443Y-92032000D01*
X164396428Y-92012708D01*
X164487786Y-91974867D01*
X164570006Y-91919929D01*
X164639929Y-91850006D01*
X164672030Y-91801965D01*
X164729994Y-91859929D01*
X164812214Y-91914867D01*
X164903572Y-91952708D01*
X165000557Y-91972000D01*
X165099443Y-91972000D01*
X165196428Y-91952708D01*
X165287786Y-91914867D01*
X165370006Y-91859929D01*
X165439929Y-91790006D01*
X165443318Y-91784934D01*
X165460071Y-91810006D01*
X165529994Y-91879929D01*
X165612214Y-91934867D01*
X165703572Y-91972708D01*
X165800557Y-91992000D01*
X165899443Y-91992000D01*
X165996428Y-91972708D01*
X166087786Y-91934867D01*
X166170006Y-91879929D01*
X166239929Y-91810006D01*
X166250000Y-91794934D01*
X166260071Y-91810006D01*
X166329994Y-91879929D01*
X166412214Y-91934867D01*
X166503572Y-91972708D01*
X166600557Y-91992000D01*
X166699443Y-91992000D01*
X166796428Y-91972708D01*
X166887786Y-91934867D01*
X166970006Y-91879929D01*
X167039929Y-91810006D01*
X167039977Y-91809934D01*
X167060071Y-91840006D01*
X167129994Y-91909929D01*
X167212214Y-91964867D01*
X167303572Y-92002708D01*
X167400557Y-92022000D01*
X167499443Y-92022000D01*
X167596428Y-92002708D01*
X167687786Y-91964867D01*
X167770006Y-91909929D01*
X167839929Y-91840006D01*
X167850000Y-91824934D01*
X167860071Y-91840006D01*
X167929994Y-91909929D01*
X168012214Y-91964867D01*
X168103572Y-92002708D01*
X168200557Y-92022000D01*
X168299443Y-92022000D01*
X168396428Y-92002708D01*
X168487786Y-91964867D01*
X168570006Y-91909929D01*
X168631976Y-91847959D01*
X168660071Y-91890006D01*
X168729994Y-91959929D01*
X168812214Y-92014867D01*
X168903572Y-92052708D01*
X169000557Y-92072000D01*
X169099443Y-92072000D01*
X169196428Y-92052708D01*
X169287786Y-92014867D01*
X169370006Y-91959929D01*
X169439929Y-91890006D01*
X169460000Y-91859968D01*
X169480071Y-91890006D01*
X169549994Y-91959929D01*
X169632214Y-92014867D01*
X169723572Y-92052708D01*
X169820557Y-92072000D01*
X169919443Y-92072000D01*
X170016428Y-92052708D01*
X170107786Y-92014867D01*
X170190006Y-91959929D01*
X170259929Y-91890006D01*
X170267997Y-91877932D01*
X170329994Y-91939929D01*
X170412214Y-91994867D01*
X170503572Y-92032708D01*
X170600557Y-92052000D01*
X170699443Y-92052000D01*
X170796428Y-92032708D01*
X170887786Y-91994867D01*
X170970006Y-91939929D01*
X171039929Y-91870006D01*
X171050000Y-91854934D01*
X171060071Y-91870006D01*
X171129994Y-91939929D01*
X171212214Y-91994867D01*
X171303572Y-92032708D01*
X171400557Y-92052000D01*
X171499443Y-92052000D01*
X171596428Y-92032708D01*
X171687786Y-91994867D01*
X171770006Y-91939929D01*
X171831976Y-91877959D01*
X171860071Y-91920006D01*
X171929994Y-91989929D01*
X172012214Y-92044867D01*
X172103572Y-92082708D01*
X172200557Y-92102000D01*
X172299443Y-92102000D01*
X172396428Y-92082708D01*
X172487786Y-92044867D01*
X172570006Y-91989929D01*
X172639929Y-91920006D01*
X172672030Y-91871965D01*
X172729994Y-91929929D01*
X172812214Y-91984867D01*
X172903572Y-92022708D01*
X173000557Y-92042000D01*
X173099443Y-92042000D01*
X173196428Y-92022708D01*
X173287786Y-91984867D01*
X173370006Y-91929929D01*
X173439929Y-91860006D01*
X173494867Y-91777786D01*
X173532708Y-91686428D01*
X173552000Y-91589443D01*
X173552000Y-91490557D01*
X173532708Y-91393572D01*
X173494867Y-91302214D01*
X173477541Y-91276284D01*
X173482343Y-91272343D01*
X173523206Y-91222550D01*
X173553570Y-91165743D01*
X173572268Y-91104103D01*
X173578582Y-91040000D01*
X173578582Y-90240000D01*
X173572268Y-90175897D01*
X173553570Y-90114257D01*
X173523206Y-90057450D01*
X173482343Y-90007657D01*
X173432550Y-89966794D01*
X173375743Y-89936430D01*
X173314103Y-89917732D01*
X173250000Y-89911418D01*
X172850000Y-89911418D01*
X172785897Y-89917732D01*
X172724257Y-89936430D01*
X172667450Y-89966794D01*
X172650000Y-89981114D01*
X172632550Y-89966794D01*
X172575743Y-89936430D01*
X172514103Y-89917732D01*
X172450000Y-89911418D01*
X172050000Y-89911418D01*
X171985897Y-89917732D01*
X171924257Y-89936430D01*
X171867450Y-89966794D01*
X171850000Y-89981114D01*
X171832550Y-89966794D01*
X171775743Y-89936430D01*
X171714103Y-89917732D01*
X171650000Y-89911418D01*
X171250000Y-89911418D01*
X171185897Y-89917732D01*
X171124257Y-89936430D01*
X171067450Y-89966794D01*
X171050000Y-89981114D01*
X171032550Y-89966794D01*
X170975743Y-89936430D01*
X170914103Y-89917732D01*
X170850000Y-89911418D01*
X170450000Y-89911418D01*
X170385897Y-89917732D01*
X170324257Y-89936430D01*
X170267450Y-89966794D01*
X170250000Y-89981114D01*
X170232550Y-89966794D01*
X170175743Y-89936430D01*
X170114103Y-89917732D01*
X170050000Y-89911418D01*
X169650000Y-89911418D01*
X169585897Y-89917732D01*
X169524257Y-89936430D01*
X169467450Y-89966794D01*
X169450000Y-89981114D01*
X169432550Y-89966794D01*
X169375743Y-89936430D01*
X169314103Y-89917732D01*
X169250000Y-89911418D01*
X168850000Y-89911418D01*
X168785897Y-89917732D01*
X168724257Y-89936430D01*
X168667450Y-89966794D01*
X168650000Y-89981114D01*
X168632550Y-89966794D01*
X168575743Y-89936430D01*
X168514103Y-89917732D01*
X168450000Y-89911418D01*
X168050000Y-89911418D01*
X167985897Y-89917732D01*
X167924257Y-89936430D01*
X167867450Y-89966794D01*
X167850000Y-89981114D01*
X167832550Y-89966794D01*
X167775743Y-89936430D01*
X167714103Y-89917732D01*
X167650000Y-89911418D01*
X167250000Y-89911418D01*
X167185897Y-89917732D01*
X167124257Y-89936430D01*
X167067450Y-89966794D01*
X167050000Y-89981114D01*
X167032550Y-89966794D01*
X166975743Y-89936430D01*
X166914103Y-89917732D01*
X166850000Y-89911418D01*
X166450000Y-89911418D01*
X166385897Y-89917732D01*
X166324257Y-89936430D01*
X166267450Y-89966794D01*
X166250000Y-89981114D01*
X166232550Y-89966794D01*
X166175743Y-89936430D01*
X166114103Y-89917732D01*
X166050000Y-89911418D01*
X165650000Y-89911418D01*
X165585897Y-89917732D01*
X165524257Y-89936430D01*
X165467450Y-89966794D01*
X165450000Y-89981114D01*
X165432550Y-89966794D01*
X165375743Y-89936430D01*
X165314103Y-89917732D01*
X165250000Y-89911418D01*
X164850000Y-89911418D01*
X164785897Y-89917732D01*
X164724257Y-89936430D01*
X164667450Y-89966794D01*
X164650000Y-89981114D01*
X164632550Y-89966794D01*
X164575743Y-89936430D01*
X164514103Y-89917732D01*
X164450000Y-89911418D01*
X164050000Y-89911418D01*
X163985897Y-89917732D01*
X163924257Y-89936430D01*
X163867450Y-89966794D01*
X163850000Y-89981114D01*
X163832550Y-89966794D01*
X163775743Y-89936430D01*
X163714103Y-89917732D01*
X163650000Y-89911418D01*
X163250000Y-89911418D01*
X163185897Y-89917732D01*
X163124257Y-89936430D01*
X163067450Y-89966794D01*
X163050000Y-89981114D01*
X163032550Y-89966794D01*
X162975743Y-89936430D01*
X162914103Y-89917732D01*
X162850000Y-89911418D01*
X162450000Y-89911418D01*
X162385897Y-89917732D01*
X162324257Y-89936430D01*
X162267450Y-89966794D01*
X162250000Y-89981114D01*
X162232550Y-89966794D01*
X162175743Y-89936430D01*
X162114103Y-89917732D01*
X162050000Y-89911418D01*
X161650000Y-89911418D01*
X161585897Y-89917732D01*
X161524257Y-89936430D01*
X161467450Y-89966794D01*
X161450000Y-89981114D01*
X161432550Y-89966794D01*
X161375743Y-89936430D01*
X161314103Y-89917732D01*
X161250000Y-89911418D01*
X160850000Y-89911418D01*
X160785897Y-89917732D01*
X160724257Y-89936430D01*
X160667450Y-89966794D01*
X160650000Y-89981114D01*
X160632550Y-89966794D01*
X160575743Y-89936430D01*
X160514103Y-89917732D01*
X160450000Y-89911418D01*
X160050000Y-89911418D01*
X159985897Y-89917732D01*
X159924257Y-89936430D01*
X159867450Y-89966794D01*
X159850000Y-89981114D01*
X159832550Y-89966794D01*
X159775743Y-89936430D01*
X159714103Y-89917732D01*
X159650000Y-89911418D01*
X159250000Y-89911418D01*
X159185897Y-89917732D01*
X159124257Y-89936430D01*
X159067450Y-89966794D01*
X159050000Y-89981114D01*
X159032550Y-89966794D01*
X158975743Y-89936430D01*
X158914103Y-89917732D01*
X158850000Y-89911418D01*
X158450000Y-89911418D01*
X158385897Y-89917732D01*
X158324257Y-89936430D01*
X158267450Y-89966794D01*
X158250000Y-89981114D01*
X158232550Y-89966794D01*
X158175743Y-89936430D01*
X158114103Y-89917732D01*
X158050000Y-89911418D01*
X157650000Y-89911418D01*
X157585897Y-89917732D01*
X157524257Y-89936430D01*
X157467450Y-89966794D01*
X157450000Y-89981114D01*
X157432550Y-89966794D01*
X157375743Y-89936430D01*
X157314103Y-89917732D01*
X157250000Y-89911418D01*
X156850000Y-89911418D01*
X156785897Y-89917732D01*
X156724257Y-89936430D01*
X156667450Y-89966794D01*
X156650000Y-89981114D01*
X156632550Y-89966794D01*
X156575743Y-89936430D01*
X156514103Y-89917732D01*
X156450000Y-89911418D01*
X156050000Y-89911418D01*
X155985897Y-89917732D01*
X155924257Y-89936430D01*
X155867450Y-89966794D01*
X155850000Y-89981114D01*
X155832550Y-89966794D01*
X155775743Y-89936430D01*
X155714103Y-89917732D01*
X155650000Y-89911418D01*
X155250000Y-89911418D01*
X155185897Y-89917732D01*
X155124257Y-89936430D01*
X155067450Y-89966794D01*
X155050000Y-89981114D01*
X155032550Y-89966794D01*
X154975743Y-89936430D01*
X154914103Y-89917732D01*
X154850000Y-89911418D01*
X154450000Y-89911418D01*
X154385897Y-89917732D01*
X154324257Y-89936430D01*
X154267450Y-89966794D01*
X154250000Y-89981114D01*
X154232550Y-89966794D01*
X154175743Y-89936430D01*
X154114103Y-89917732D01*
X154050000Y-89911418D01*
X153650000Y-89911418D01*
X153585897Y-89917732D01*
X153524257Y-89936430D01*
X153467450Y-89966794D01*
X153450000Y-89981114D01*
X153432550Y-89966794D01*
X153375743Y-89936430D01*
X153314103Y-89917732D01*
X153250000Y-89911418D01*
X152850000Y-89911418D01*
X152785897Y-89917732D01*
X152724257Y-89936430D01*
X152667450Y-89966794D01*
X152650000Y-89981114D01*
X152632550Y-89966794D01*
X152575743Y-89936430D01*
X152514103Y-89917732D01*
X152450000Y-89911418D01*
X152050000Y-89911418D01*
X151985897Y-89917732D01*
X151924257Y-89936430D01*
X151867450Y-89966794D01*
X151850000Y-89981114D01*
X151832550Y-89966794D01*
X151775743Y-89936430D01*
X151714103Y-89917732D01*
X151650000Y-89911418D01*
X151250000Y-89911418D01*
X151185897Y-89917732D01*
X151124257Y-89936430D01*
X151067450Y-89966794D01*
X151050000Y-89981114D01*
X151032550Y-89966794D01*
X150975743Y-89936430D01*
X150914103Y-89917732D01*
X150850000Y-89911418D01*
X150450000Y-89911418D01*
X150385897Y-89917732D01*
X150324257Y-89936430D01*
X150267450Y-89966794D01*
X150250000Y-89981114D01*
X150232550Y-89966794D01*
X150175743Y-89936430D01*
X150114103Y-89917732D01*
X150050000Y-89911418D01*
X149650000Y-89911418D01*
X149585897Y-89917732D01*
X149524257Y-89936430D01*
X149467450Y-89966794D01*
X149417657Y-90007657D01*
X149376794Y-90057450D01*
X149346430Y-90114257D01*
X149327732Y-90175897D01*
X149321418Y-90240000D01*
X148500180Y-90240000D01*
X147852000Y-88438601D01*
X147852000Y-86829648D01*
X147852428Y-86797358D01*
X147848840Y-86777981D01*
X147846907Y-86758356D01*
X147842540Y-86743960D01*
X147839803Y-86729180D01*
X147832503Y-86710874D01*
X147826779Y-86692004D01*
X147819690Y-86678742D01*
X147814120Y-86664773D01*
X147803385Y-86648237D01*
X147794093Y-86630853D01*
X147784552Y-86619227D01*
X147776365Y-86606616D01*
X147762614Y-86592495D01*
X147750106Y-86577254D01*
X147725137Y-86556762D01*
X147363322Y-86251716D01*
X147361826Y-86249894D01*
X147336795Y-86229351D01*
X147325392Y-86219738D01*
X147323471Y-86218417D01*
X147308227Y-86205907D01*
X147294962Y-86198817D01*
X147282573Y-86190299D01*
X147264465Y-86182516D01*
X147247076Y-86173221D01*
X147232683Y-86168855D01*
X147218871Y-86162918D01*
X147199595Y-86158818D01*
X147180724Y-86153093D01*
X147165752Y-86151618D01*
X147151050Y-86148491D01*
X147131345Y-86148230D01*
X147129012Y-86148000D01*
X147114008Y-86148000D01*
X147081719Y-86147572D01*
X147079408Y-86148000D01*
X133901855Y-86148000D01*
X133875519Y-86146757D01*
X133850122Y-86150575D01*
X133824556Y-86153093D01*
X133815894Y-86155721D01*
X133806952Y-86157065D01*
X133782797Y-86165761D01*
X133758204Y-86173221D01*
X133750222Y-86177487D01*
X133741712Y-86180551D01*
X133719704Y-86193800D01*
X133697053Y-86205907D01*
X133690063Y-86211644D01*
X133682308Y-86216312D01*
X133663309Y-86233600D01*
X133643454Y-86249894D01*
X133626721Y-86270283D01*
X133157158Y-86790390D01*
X133150694Y-86795695D01*
X133133966Y-86816078D01*
X133127940Y-86822753D01*
X133123001Y-86829440D01*
X133106707Y-86849294D01*
X133102444Y-86857270D01*
X133097067Y-86864549D01*
X133086127Y-86887797D01*
X133074021Y-86910445D01*
X133071395Y-86919101D01*
X133067543Y-86927287D01*
X133061352Y-86952208D01*
X133053893Y-86976797D01*
X133053006Y-86985805D01*
X133050826Y-86994580D01*
X133049616Y-87020223D01*
X133048800Y-87028509D01*
X133048800Y-87037518D01*
X133047558Y-87063840D01*
X133048800Y-87072102D01*
X133048801Y-113668194D01*
X133047235Y-113680556D01*
X133048801Y-113702788D01*
X133048801Y-113707692D01*
X133050014Y-113720009D01*
X133052107Y-113749721D01*
X133053410Y-113754490D01*
X133053894Y-113759404D01*
X133062534Y-113787887D01*
X133070381Y-113816607D01*
X133072587Y-113821026D01*
X133074022Y-113825756D01*
X133088060Y-113852018D01*
X133101352Y-113878644D01*
X133104378Y-113882548D01*
X133106708Y-113886907D01*
X133125596Y-113909922D01*
X133143830Y-113933447D01*
X133147560Y-113936686D01*
X133150695Y-113940506D01*
X133173700Y-113959385D01*
X133183064Y-113967517D01*
X133187073Y-113970360D01*
X133204294Y-113984493D01*
X133215280Y-113990365D01*
X133903207Y-114478256D01*
X133920274Y-114492292D01*
X133946652Y-114506425D01*
X133972680Y-114521284D01*
X133977200Y-114522794D01*
X133981392Y-114525040D01*
X134010028Y-114533759D01*
X134038446Y-114543251D01*
X134043168Y-114543849D01*
X134047723Y-114545236D01*
X134077545Y-114548204D01*
X134107235Y-114551965D01*
X134129276Y-114550412D01*
X145148000Y-114561641D01*
X145148001Y-131757715D01*
X139331713Y-131752986D01*
X139359370Y-131701243D01*
X139378068Y-131639603D01*
X139384382Y-131575500D01*
X139384382Y-130736142D01*
X139658970Y-130461555D01*
X139676219Y-130447399D01*
X139732703Y-130378573D01*
X139774674Y-130300050D01*
X139780446Y-130281022D01*
X139930060Y-130281022D01*
X139994163Y-130274708D01*
X140055803Y-130256010D01*
X140112610Y-130225646D01*
X140162403Y-130184783D01*
X140203266Y-130134990D01*
X140233630Y-130078183D01*
X140252328Y-130016543D01*
X140258642Y-129952440D01*
X140258642Y-128802440D01*
X140252328Y-128738337D01*
X140233630Y-128676697D01*
X140203266Y-128619890D01*
X140162403Y-128570097D01*
X140112610Y-128529234D01*
X140096120Y-128520420D01*
X140096120Y-128485485D01*
X140126828Y-128411348D01*
X140146120Y-128314363D01*
X140146120Y-128215477D01*
X140126828Y-128118492D01*
X140095178Y-128042080D01*
X140127039Y-128042080D01*
X140191194Y-128084947D01*
X140282552Y-128122788D01*
X140379537Y-128142080D01*
X140478423Y-128142080D01*
X140575408Y-128122788D01*
X140666766Y-128084947D01*
X140724969Y-128046056D01*
X140727732Y-128074103D01*
X140746430Y-128135743D01*
X140775431Y-128190000D01*
X140746430Y-128244257D01*
X140727732Y-128305897D01*
X140721418Y-128370000D01*
X140721418Y-128610000D01*
X140727732Y-128674103D01*
X140746430Y-128735743D01*
X140775431Y-128790000D01*
X140746430Y-128844257D01*
X140727732Y-128905897D01*
X140721418Y-128970000D01*
X140721418Y-129210000D01*
X140727732Y-129274103D01*
X140746430Y-129335743D01*
X140775431Y-129390000D01*
X140746430Y-129444257D01*
X140727732Y-129505897D01*
X140721418Y-129570000D01*
X140721418Y-129810000D01*
X140727732Y-129874103D01*
X140746430Y-129935743D01*
X140775431Y-129990000D01*
X140746430Y-130044257D01*
X140727732Y-130105897D01*
X140721418Y-130170000D01*
X140721418Y-130410000D01*
X140727732Y-130474103D01*
X140746430Y-130535743D01*
X140776794Y-130592550D01*
X140817657Y-130642343D01*
X140867450Y-130683206D01*
X140924257Y-130713570D01*
X140985897Y-130732268D01*
X141050000Y-130738582D01*
X141700000Y-130738582D01*
X141764103Y-130732268D01*
X141825743Y-130713570D01*
X141882550Y-130683206D01*
X141932343Y-130642343D01*
X141973206Y-130592550D01*
X142003570Y-130535743D01*
X142022268Y-130474103D01*
X142028582Y-130410000D01*
X142028582Y-130170000D01*
X142022268Y-130105897D01*
X142003570Y-130044257D01*
X141974569Y-129990000D01*
X142003570Y-129935743D01*
X142022268Y-129874103D01*
X142028582Y-129810000D01*
X142028582Y-129570000D01*
X142022268Y-129505897D01*
X142003570Y-129444257D01*
X141974569Y-129390000D01*
X142003570Y-129335743D01*
X142022268Y-129274103D01*
X142028582Y-129210000D01*
X142028582Y-128970000D01*
X142022268Y-128905897D01*
X142003570Y-128844257D01*
X141974569Y-128790000D01*
X142003570Y-128735743D01*
X142022268Y-128674103D01*
X142028582Y-128610000D01*
X142028582Y-128370000D01*
X142022268Y-128305897D01*
X142003570Y-128244257D01*
X141974569Y-128190000D01*
X142003570Y-128135743D01*
X142022268Y-128074103D01*
X142028582Y-128010000D01*
X142028582Y-127770000D01*
X142022268Y-127705897D01*
X142003570Y-127644257D01*
X141974569Y-127590000D01*
X142003570Y-127535743D01*
X142022268Y-127474103D01*
X142028582Y-127410000D01*
X142028582Y-127170000D01*
X142022268Y-127105897D01*
X142003570Y-127044257D01*
X141974569Y-126990000D01*
X142003570Y-126935743D01*
X142022268Y-126874103D01*
X142028582Y-126810000D01*
X142028582Y-126570000D01*
X142022268Y-126505897D01*
X142003570Y-126444257D01*
X141974569Y-126390000D01*
X142003570Y-126335743D01*
X142022268Y-126274103D01*
X142028582Y-126210000D01*
X142028582Y-125970000D01*
X142022268Y-125905897D01*
X142003570Y-125844257D01*
X141974569Y-125790000D01*
X142003570Y-125735743D01*
X142022268Y-125674103D01*
X142028582Y-125610000D01*
X142028582Y-125370000D01*
X142022268Y-125305897D01*
X142003570Y-125244257D01*
X141974569Y-125190000D01*
X142003570Y-125135743D01*
X142022268Y-125074103D01*
X142028582Y-125010000D01*
X142028582Y-124770000D01*
X142022268Y-124705897D01*
X142003570Y-124644257D01*
X141974569Y-124590000D01*
X142003570Y-124535743D01*
X142022268Y-124474103D01*
X142028582Y-124410000D01*
X142028582Y-124170000D01*
X142022268Y-124105897D01*
X142003570Y-124044257D01*
X141974569Y-123990000D01*
X142003570Y-123935743D01*
X142022268Y-123874103D01*
X142028582Y-123810000D01*
X142028582Y-123570000D01*
X142022268Y-123505897D01*
X142003570Y-123444257D01*
X141974569Y-123390000D01*
X142003570Y-123335743D01*
X142022268Y-123274103D01*
X142028582Y-123210000D01*
X142028582Y-122970000D01*
X142022268Y-122905897D01*
X142003570Y-122844257D01*
X141974569Y-122790000D01*
X142003570Y-122735743D01*
X142022268Y-122674103D01*
X142028582Y-122610000D01*
X142028582Y-122584074D01*
X142058351Y-122628626D01*
X142128274Y-122698549D01*
X142210494Y-122753487D01*
X142301852Y-122791328D01*
X142398837Y-122810620D01*
X142497723Y-122810620D01*
X142594708Y-122791328D01*
X142686066Y-122753487D01*
X142768286Y-122698549D01*
X142838209Y-122628626D01*
X142893147Y-122546406D01*
X142930988Y-122455048D01*
X142946041Y-122379372D01*
X143333414Y-121992000D01*
X143781948Y-121992000D01*
X143777732Y-122005897D01*
X143771418Y-122070000D01*
X143771418Y-122310000D01*
X143777732Y-122374103D01*
X143796430Y-122435743D01*
X143825431Y-122490000D01*
X143796430Y-122544257D01*
X143777732Y-122605897D01*
X143771418Y-122670000D01*
X143771418Y-122910000D01*
X143777732Y-122974103D01*
X143796430Y-123035743D01*
X143825431Y-123090000D01*
X143796430Y-123144257D01*
X143777732Y-123205897D01*
X143771418Y-123270000D01*
X143771418Y-123510000D01*
X143777732Y-123574103D01*
X143796430Y-123635743D01*
X143825431Y-123690000D01*
X143796430Y-123744257D01*
X143777732Y-123805897D01*
X143771418Y-123870000D01*
X143771418Y-124110000D01*
X143777732Y-124174103D01*
X143781948Y-124188000D01*
X143315919Y-124188000D01*
X143296179Y-124186056D01*
X143276440Y-124188000D01*
X143276433Y-124188000D01*
X143217374Y-124193817D01*
X143172849Y-124207323D01*
X143170823Y-124206920D01*
X143071937Y-124206920D01*
X142974952Y-124226212D01*
X142883594Y-124264053D01*
X142801374Y-124318991D01*
X142731451Y-124388914D01*
X142676513Y-124471134D01*
X142638672Y-124562492D01*
X142619380Y-124659477D01*
X142619380Y-124758363D01*
X142638672Y-124855348D01*
X142676513Y-124946706D01*
X142731451Y-125028926D01*
X142801374Y-125098849D01*
X142883594Y-125153787D01*
X142974952Y-125191628D01*
X143071937Y-125210920D01*
X143170823Y-125210920D01*
X143267808Y-125191628D01*
X143359166Y-125153787D01*
X143441386Y-125098849D01*
X143511309Y-125028926D01*
X143535982Y-124992000D01*
X143781948Y-124992000D01*
X143777732Y-125005897D01*
X143771418Y-125070000D01*
X143771418Y-125310000D01*
X143777732Y-125374103D01*
X143796430Y-125435743D01*
X143797219Y-125437220D01*
X143692299Y-125437220D01*
X143672559Y-125435276D01*
X143652820Y-125437220D01*
X143652813Y-125437220D01*
X143593754Y-125443037D01*
X143517977Y-125466023D01*
X143448140Y-125503352D01*
X143423732Y-125523383D01*
X143343252Y-125539392D01*
X143251894Y-125577233D01*
X143169674Y-125632171D01*
X143099751Y-125702094D01*
X143044813Y-125784314D01*
X143006972Y-125875672D01*
X142987680Y-125972657D01*
X142987680Y-126071543D01*
X143006972Y-126168528D01*
X143044813Y-126259886D01*
X143099751Y-126342106D01*
X143169674Y-126412029D01*
X143251894Y-126466967D01*
X143343252Y-126504808D01*
X143440237Y-126524100D01*
X143539123Y-126524100D01*
X143636108Y-126504808D01*
X143727466Y-126466967D01*
X143771418Y-126437599D01*
X143771418Y-126510000D01*
X143777732Y-126574103D01*
X143796430Y-126635743D01*
X143825431Y-126690000D01*
X143796430Y-126744257D01*
X143777732Y-126805897D01*
X143771418Y-126870000D01*
X143771418Y-127110000D01*
X143777732Y-127174103D01*
X143782500Y-127189820D01*
X143473859Y-127189820D01*
X143454119Y-127187876D01*
X143434380Y-127189820D01*
X143434373Y-127189820D01*
X143375314Y-127195637D01*
X143299537Y-127218623D01*
X143229700Y-127255952D01*
X143168488Y-127306188D01*
X143155897Y-127321530D01*
X142730588Y-127746839D01*
X142654912Y-127761892D01*
X142563554Y-127799733D01*
X142481334Y-127854671D01*
X142411411Y-127924594D01*
X142356473Y-128006814D01*
X142318632Y-128098172D01*
X142299340Y-128195157D01*
X142299340Y-128294043D01*
X142318632Y-128391028D01*
X142356473Y-128482386D01*
X142411411Y-128564606D01*
X142481334Y-128634529D01*
X142563554Y-128689467D01*
X142654912Y-128727308D01*
X142751897Y-128746600D01*
X142850783Y-128746600D01*
X142947768Y-128727308D01*
X143039126Y-128689467D01*
X143121346Y-128634529D01*
X143191269Y-128564606D01*
X143246207Y-128482386D01*
X143284048Y-128391028D01*
X143299101Y-128315352D01*
X143620633Y-127993820D01*
X143781395Y-127993820D01*
X143777732Y-128005897D01*
X143771418Y-128070000D01*
X143771418Y-128310000D01*
X143777732Y-128374103D01*
X143796430Y-128435743D01*
X143825431Y-128490000D01*
X143796430Y-128544257D01*
X143777732Y-128605897D01*
X143771418Y-128670000D01*
X143771418Y-128910000D01*
X143777732Y-128974103D01*
X143796430Y-129035743D01*
X143825431Y-129090000D01*
X143796430Y-129144257D01*
X143777732Y-129205897D01*
X143771418Y-129270000D01*
X143771418Y-129510000D01*
X143777732Y-129574103D01*
X143796430Y-129635743D01*
X143825431Y-129690000D01*
X143796430Y-129744257D01*
X143777732Y-129805897D01*
X143771418Y-129870000D01*
X143771418Y-130110000D01*
X143777732Y-130174103D01*
X143796430Y-130235743D01*
X143825431Y-130290000D01*
X143796430Y-130344257D01*
X143777732Y-130405897D01*
X143771418Y-130470000D01*
X143771418Y-130710000D01*
X143777732Y-130774103D01*
X143796430Y-130835743D01*
X143826794Y-130892550D01*
X143867657Y-130942343D01*
X143917450Y-130983206D01*
X143974257Y-131013570D01*
X144035897Y-131032268D01*
X144100000Y-131038582D01*
X144750000Y-131038582D01*
X144814103Y-131032268D01*
X144875743Y-131013570D01*
X144932550Y-130983206D01*
X144982343Y-130942343D01*
X145023206Y-130892550D01*
X145053570Y-130835743D01*
X145072268Y-130774103D01*
X145078582Y-130710000D01*
X145078582Y-130470000D01*
X145072268Y-130405897D01*
X145053570Y-130344257D01*
X145024569Y-130290000D01*
X145053570Y-130235743D01*
X145072268Y-130174103D01*
X145078582Y-130110000D01*
X145078582Y-129870000D01*
X145072268Y-129805897D01*
X145053570Y-129744257D01*
X145024569Y-129690000D01*
X145053570Y-129635743D01*
X145072268Y-129574103D01*
X145078582Y-129510000D01*
X145078582Y-129270000D01*
X145072268Y-129205897D01*
X145053570Y-129144257D01*
X145024569Y-129090000D01*
X145053570Y-129035743D01*
X145072268Y-128974103D01*
X145078582Y-128910000D01*
X145078582Y-128670000D01*
X145072268Y-128605897D01*
X145053570Y-128544257D01*
X145024569Y-128490000D01*
X145053570Y-128435743D01*
X145072268Y-128374103D01*
X145078582Y-128310000D01*
X145078582Y-128070000D01*
X145072268Y-128005897D01*
X145053570Y-127944257D01*
X145024569Y-127890000D01*
X145053570Y-127835743D01*
X145072268Y-127774103D01*
X145078582Y-127710000D01*
X145078582Y-127470000D01*
X145072268Y-127405897D01*
X145053570Y-127344257D01*
X145024569Y-127290000D01*
X145053570Y-127235743D01*
X145072268Y-127174103D01*
X145078582Y-127110000D01*
X145078582Y-126870000D01*
X145072268Y-126805897D01*
X145053570Y-126744257D01*
X145024569Y-126690000D01*
X145053570Y-126635743D01*
X145072268Y-126574103D01*
X145078582Y-126510000D01*
X145078582Y-126270000D01*
X145072268Y-126205897D01*
X145053570Y-126144257D01*
X145024569Y-126090000D01*
X145053570Y-126035743D01*
X145072268Y-125974103D01*
X145078582Y-125910000D01*
X145078582Y-125670000D01*
X145072268Y-125605897D01*
X145053570Y-125544257D01*
X145024569Y-125490000D01*
X145053570Y-125435743D01*
X145072268Y-125374103D01*
X145078582Y-125310000D01*
X145078582Y-125070000D01*
X145072268Y-125005897D01*
X145053570Y-124944257D01*
X145024569Y-124890000D01*
X145053570Y-124835743D01*
X145072268Y-124774103D01*
X145078582Y-124710000D01*
X145078582Y-124470000D01*
X145072268Y-124405897D01*
X145053570Y-124344257D01*
X145024569Y-124290000D01*
X145053570Y-124235743D01*
X145072268Y-124174103D01*
X145078582Y-124110000D01*
X145078582Y-123870000D01*
X145072268Y-123805897D01*
X145053570Y-123744257D01*
X145024569Y-123690000D01*
X145053570Y-123635743D01*
X145072268Y-123574103D01*
X145078582Y-123510000D01*
X145078582Y-123270000D01*
X145072268Y-123205897D01*
X145053570Y-123144257D01*
X145024569Y-123090000D01*
X145053570Y-123035743D01*
X145072268Y-122974103D01*
X145078582Y-122910000D01*
X145078582Y-122670000D01*
X145072268Y-122605897D01*
X145053570Y-122544257D01*
X145024569Y-122490000D01*
X145053570Y-122435743D01*
X145072268Y-122374103D01*
X145078582Y-122310000D01*
X145078582Y-122070000D01*
X145072268Y-122005897D01*
X145053570Y-121944257D01*
X145024569Y-121890000D01*
X145053570Y-121835743D01*
X145072268Y-121774103D01*
X145078582Y-121710000D01*
X145078582Y-121470000D01*
X145072268Y-121405897D01*
X145053570Y-121344257D01*
X145023206Y-121287450D01*
X144982343Y-121237657D01*
X144932550Y-121196794D01*
X144875743Y-121166430D01*
X144814103Y-121147732D01*
X144750000Y-121141418D01*
X144100000Y-121141418D01*
X144035897Y-121147732D01*
X143974257Y-121166430D01*
X143933902Y-121188000D01*
X143186639Y-121188000D01*
X143166899Y-121186056D01*
X143147160Y-121188000D01*
X143147153Y-121188000D01*
X143088094Y-121193817D01*
X143012317Y-121216803D01*
X142942480Y-121254132D01*
X142881268Y-121304368D01*
X142868681Y-121319705D01*
X142377528Y-121810859D01*
X142301852Y-121825912D01*
X142210494Y-121863753D01*
X142128274Y-121918691D01*
X142058351Y-121988614D01*
X142025906Y-122037172D01*
X142028582Y-122010000D01*
X142028582Y-121770000D01*
X142022268Y-121705897D01*
X142003570Y-121644257D01*
X141974569Y-121590000D01*
X142003570Y-121535743D01*
X142022268Y-121474103D01*
X142028582Y-121410000D01*
X142028582Y-121170000D01*
X142022268Y-121105897D01*
X142003570Y-121044257D01*
X141974569Y-120990000D01*
X142003570Y-120935743D01*
X142022268Y-120874103D01*
X142028582Y-120810000D01*
X142028582Y-120570000D01*
X142022268Y-120505897D01*
X142003570Y-120444257D01*
X141973206Y-120387450D01*
X141932343Y-120337657D01*
X141882550Y-120296794D01*
X141832422Y-120270000D01*
X143771418Y-120270000D01*
X143771418Y-120510000D01*
X143777732Y-120574103D01*
X143796430Y-120635743D01*
X143826794Y-120692550D01*
X143867657Y-120742343D01*
X143917450Y-120783206D01*
X143974257Y-120813570D01*
X144035897Y-120832268D01*
X144100000Y-120838582D01*
X144750000Y-120838582D01*
X144814103Y-120832268D01*
X144875743Y-120813570D01*
X144932550Y-120783206D01*
X144982343Y-120742343D01*
X145023206Y-120692550D01*
X145053570Y-120635743D01*
X145072268Y-120574103D01*
X145078582Y-120510000D01*
X145078582Y-120270000D01*
X145072268Y-120205897D01*
X145053570Y-120144257D01*
X145023206Y-120087450D01*
X144982343Y-120037657D01*
X144932550Y-119996794D01*
X144875743Y-119966430D01*
X144814103Y-119947732D01*
X144750000Y-119941418D01*
X144100000Y-119941418D01*
X144035897Y-119947732D01*
X143974257Y-119966430D01*
X143917450Y-119996794D01*
X143867657Y-120037657D01*
X143826794Y-120087450D01*
X143796430Y-120144257D01*
X143777732Y-120205897D01*
X143771418Y-120270000D01*
X141832422Y-120270000D01*
X141825743Y-120266430D01*
X141764103Y-120247732D01*
X141700000Y-120241418D01*
X141050000Y-120241418D01*
X140985897Y-120247732D01*
X140924257Y-120266430D01*
X140867450Y-120296794D01*
X140817657Y-120337657D01*
X140776794Y-120387450D01*
X140746430Y-120444257D01*
X140727732Y-120505897D01*
X140721418Y-120570000D01*
X140721418Y-120810000D01*
X140727732Y-120874103D01*
X140746430Y-120935743D01*
X140775431Y-120990000D01*
X140746430Y-121044257D01*
X140727732Y-121105897D01*
X140725770Y-121125817D01*
X139689799Y-122161788D01*
X139677248Y-122098692D01*
X139639407Y-122007334D01*
X139596540Y-121943179D01*
X139596540Y-121578831D01*
X139603203Y-121573363D01*
X139644066Y-121523570D01*
X139674430Y-121466763D01*
X139693128Y-121405123D01*
X139699442Y-121341020D01*
X139699442Y-119866020D01*
X139693128Y-119801917D01*
X139674430Y-119740277D01*
X139644066Y-119683470D01*
X139603203Y-119633677D01*
X139587216Y-119620557D01*
X140198000Y-119620557D01*
X140198000Y-119719443D01*
X140217292Y-119816428D01*
X140255133Y-119907786D01*
X140310071Y-119990006D01*
X140379994Y-120059929D01*
X140462214Y-120114867D01*
X140553572Y-120152708D01*
X140650557Y-120172000D01*
X140749443Y-120172000D01*
X140846428Y-120152708D01*
X140937786Y-120114867D01*
X141020006Y-120059929D01*
X141089929Y-119990006D01*
X141105301Y-119967000D01*
X142516585Y-119967000D01*
X142540000Y-119969306D01*
X142563415Y-119967000D01*
X142563423Y-119967000D01*
X142633508Y-119960097D01*
X142723423Y-119932822D01*
X142806289Y-119888529D01*
X142878921Y-119828921D01*
X142893855Y-119810724D01*
X143037579Y-119667000D01*
X144448423Y-119667000D01*
X144518508Y-119660097D01*
X144589435Y-119638582D01*
X144750000Y-119638582D01*
X144814103Y-119632268D01*
X144875743Y-119613570D01*
X144932550Y-119583206D01*
X144982343Y-119542343D01*
X145023206Y-119492550D01*
X145053570Y-119435743D01*
X145072268Y-119374103D01*
X145078582Y-119310000D01*
X145078582Y-119070000D01*
X145072268Y-119005897D01*
X145053570Y-118944257D01*
X145023206Y-118887450D01*
X144982343Y-118837657D01*
X144932550Y-118796794D01*
X144875743Y-118766430D01*
X144814103Y-118747732D01*
X144750000Y-118741418D01*
X144589435Y-118741418D01*
X144518508Y-118719903D01*
X144448423Y-118713000D01*
X142863414Y-118713000D01*
X142839999Y-118710694D01*
X142816584Y-118713000D01*
X142816577Y-118713000D01*
X142746492Y-118719903D01*
X142656577Y-118747178D01*
X142573711Y-118791471D01*
X142501079Y-118851079D01*
X142486145Y-118869276D01*
X142342421Y-119013000D01*
X140903414Y-119013000D01*
X140879999Y-119010694D01*
X140856584Y-119013000D01*
X140856577Y-119013000D01*
X140795338Y-119019032D01*
X140786491Y-119019903D01*
X140765564Y-119026251D01*
X140696577Y-119047178D01*
X140613711Y-119091471D01*
X140541079Y-119151079D01*
X140526145Y-119169276D01*
X140475997Y-119219424D01*
X140462214Y-119225133D01*
X140379994Y-119280071D01*
X140310071Y-119349994D01*
X140255133Y-119432214D01*
X140217292Y-119523572D01*
X140198000Y-119620557D01*
X139587216Y-119620557D01*
X139553410Y-119592814D01*
X139496603Y-119562450D01*
X139434963Y-119543752D01*
X139370860Y-119537438D01*
X138920860Y-119537438D01*
X138856757Y-119543752D01*
X138820860Y-119554641D01*
X138784963Y-119543752D01*
X138720860Y-119537438D01*
X138270860Y-119537438D01*
X138247860Y-119539703D01*
X138247860Y-119479171D01*
X138266377Y-119484788D01*
X138330480Y-119491102D01*
X139480480Y-119491102D01*
X139544583Y-119484788D01*
X139606223Y-119466090D01*
X139663030Y-119435726D01*
X139712823Y-119394863D01*
X139753686Y-119345070D01*
X139784050Y-119288263D01*
X139802748Y-119226623D01*
X139809062Y-119162520D01*
X139809062Y-118193933D01*
X139811442Y-118186087D01*
X139817620Y-118123358D01*
X139817620Y-118123347D01*
X139819685Y-118102380D01*
X139817620Y-118081413D01*
X139817620Y-117934082D01*
X139965620Y-117934082D01*
X140029723Y-117927768D01*
X140091363Y-117909070D01*
X140148170Y-117878706D01*
X140197963Y-117837843D01*
X140238826Y-117788050D01*
X140269190Y-117731243D01*
X140287888Y-117669603D01*
X140294202Y-117605500D01*
X140294202Y-117517000D01*
X140726638Y-117517000D01*
X140721418Y-117570000D01*
X140721418Y-117810000D01*
X140727732Y-117874103D01*
X140746430Y-117935743D01*
X140775431Y-117990000D01*
X140746430Y-118044257D01*
X140727732Y-118105897D01*
X140721418Y-118170000D01*
X140721418Y-118410000D01*
X140727732Y-118474103D01*
X140746430Y-118535743D01*
X140776794Y-118592550D01*
X140817657Y-118642343D01*
X140867450Y-118683206D01*
X140924257Y-118713570D01*
X140985897Y-118732268D01*
X141050000Y-118738582D01*
X141210565Y-118738582D01*
X141281492Y-118760097D01*
X141351577Y-118767000D01*
X141866585Y-118767000D01*
X141890000Y-118769306D01*
X141913415Y-118767000D01*
X141913423Y-118767000D01*
X141983508Y-118760097D01*
X142073423Y-118732822D01*
X142156289Y-118688529D01*
X142228921Y-118628921D01*
X142243855Y-118610724D01*
X142790000Y-118064580D01*
X143036149Y-118310729D01*
X143051079Y-118328921D01*
X143069270Y-118343850D01*
X143069272Y-118343852D01*
X143081048Y-118353516D01*
X143123711Y-118388529D01*
X143206577Y-118432822D01*
X143296492Y-118460097D01*
X143366577Y-118467000D01*
X143366584Y-118467000D01*
X143389999Y-118469306D01*
X143413414Y-118467000D01*
X144448423Y-118467000D01*
X144518508Y-118460097D01*
X144589435Y-118438582D01*
X144750000Y-118438582D01*
X144814103Y-118432268D01*
X144875743Y-118413570D01*
X144932550Y-118383206D01*
X144982343Y-118342343D01*
X145023206Y-118292550D01*
X145053570Y-118235743D01*
X145072268Y-118174103D01*
X145078582Y-118110000D01*
X145078582Y-117870000D01*
X145072268Y-117805897D01*
X145053570Y-117744257D01*
X145024569Y-117690000D01*
X145053570Y-117635743D01*
X145072268Y-117574103D01*
X145078582Y-117510000D01*
X145078582Y-117270000D01*
X145072268Y-117205897D01*
X145053570Y-117144257D01*
X145024569Y-117090000D01*
X145053570Y-117035743D01*
X145072268Y-116974103D01*
X145078582Y-116910000D01*
X145078582Y-116670000D01*
X145072268Y-116605897D01*
X145053570Y-116544257D01*
X145023206Y-116487450D01*
X144982343Y-116437657D01*
X144932550Y-116396794D01*
X144875743Y-116366430D01*
X144814103Y-116347732D01*
X144750000Y-116341418D01*
X144589434Y-116341418D01*
X144518507Y-116319903D01*
X144424999Y-116310694D01*
X144331492Y-116319903D01*
X144260565Y-116341418D01*
X144100000Y-116341418D01*
X144035897Y-116347732D01*
X143974257Y-116366430D01*
X143917450Y-116396794D01*
X143867657Y-116437657D01*
X143826794Y-116487450D01*
X143796430Y-116544257D01*
X143777732Y-116605897D01*
X143777032Y-116613000D01*
X142061297Y-116613000D01*
X142013923Y-116587678D01*
X141924008Y-116560403D01*
X141853923Y-116553500D01*
X141853915Y-116553500D01*
X141830500Y-116551194D01*
X141807085Y-116553500D01*
X140294202Y-116553500D01*
X140294202Y-116455500D01*
X140287888Y-116391397D01*
X140269190Y-116329757D01*
X140238826Y-116272950D01*
X140197963Y-116223157D01*
X140148170Y-116182294D01*
X140091363Y-116151930D01*
X140029723Y-116133232D01*
X139965620Y-116126918D01*
X139161617Y-116126918D01*
X138733975Y-115699276D01*
X138719041Y-115681079D01*
X138646409Y-115621471D01*
X138563543Y-115577178D01*
X138473628Y-115549903D01*
X138403543Y-115543000D01*
X138403535Y-115543000D01*
X138380120Y-115540694D01*
X138356705Y-115543000D01*
X133855595Y-115543000D01*
X133832180Y-115540694D01*
X133808765Y-115543000D01*
X133057580Y-115543000D01*
X132517000Y-115002421D01*
X132517000Y-86147579D01*
X133162581Y-85501999D01*
X138832266Y-85501999D01*
X138855681Y-85504305D01*
X138879096Y-85501999D01*
X138879104Y-85501999D01*
X138949189Y-85495096D01*
X139039104Y-85467821D01*
X139121970Y-85423528D01*
X139194602Y-85363920D01*
X139209536Y-85345723D01*
X141764298Y-82790962D01*
X141905800Y-82790962D01*
X141969903Y-82784648D01*
X142031543Y-82765950D01*
X142088350Y-82735586D01*
X142129422Y-82701880D01*
X142336045Y-82701880D01*
X142376410Y-82735006D01*
X142433217Y-82765370D01*
X142494857Y-82784068D01*
X142558960Y-82790382D01*
X143058960Y-82790382D01*
X143123063Y-82784068D01*
X143184703Y-82765370D01*
X143241510Y-82735006D01*
X143281875Y-82701880D01*
X143652203Y-82701880D01*
X143692690Y-82735106D01*
X143749497Y-82765470D01*
X143811137Y-82784168D01*
X143875240Y-82790482D01*
X144375240Y-82790482D01*
X144439343Y-82784168D01*
X144500983Y-82765470D01*
X144557790Y-82735106D01*
X144598277Y-82701880D01*
X146457301Y-82701880D01*
X147209425Y-83454004D01*
X147215133Y-83467786D01*
X147270071Y-83550006D01*
X147339994Y-83619929D01*
X147422214Y-83674867D01*
X147513572Y-83712708D01*
X147610557Y-83732000D01*
X147709443Y-83732000D01*
X147806428Y-83712708D01*
X147897786Y-83674867D01*
X147980006Y-83619929D01*
X148049929Y-83550006D01*
X148104867Y-83467786D01*
X148142708Y-83376428D01*
X148162000Y-83279443D01*
X148162000Y-83180557D01*
X148142708Y-83083572D01*
X148104867Y-82992214D01*
X148049929Y-82909994D01*
X147980006Y-82840071D01*
X147897786Y-82785133D01*
X147884004Y-82779425D01*
X147008255Y-81903676D01*
X146993321Y-81885479D01*
X146920689Y-81825871D01*
X146837823Y-81781578D01*
X146747908Y-81754303D01*
X146677823Y-81747400D01*
X146677815Y-81747400D01*
X146654400Y-81745094D01*
X146630985Y-81747400D01*
X146548655Y-81747400D01*
X146525240Y-81745094D01*
X146501825Y-81747400D01*
X146501817Y-81747400D01*
X146496944Y-81747880D01*
X144599447Y-81747880D01*
X144557790Y-81713694D01*
X144554434Y-81711900D01*
X144557790Y-81710106D01*
X144607583Y-81669243D01*
X144648446Y-81619450D01*
X144678810Y-81562643D01*
X144697508Y-81501003D01*
X144703822Y-81436900D01*
X144703822Y-80961900D01*
X144697508Y-80897797D01*
X144678810Y-80836157D01*
X144648446Y-80779350D01*
X144607583Y-80729557D01*
X144557790Y-80688694D01*
X144527530Y-80672519D01*
X144529184Y-80655720D01*
X144527240Y-80635980D01*
X144527240Y-80635973D01*
X144521423Y-80576914D01*
X144506840Y-80528840D01*
X144988861Y-80528840D01*
X145008600Y-80530784D01*
X145028339Y-80528840D01*
X145028347Y-80528840D01*
X145087406Y-80523023D01*
X145163183Y-80500037D01*
X145229736Y-80464463D01*
X145317588Y-80446988D01*
X145408946Y-80409147D01*
X145491166Y-80354209D01*
X145561089Y-80284286D01*
X145616027Y-80202066D01*
X145653868Y-80110708D01*
X145673160Y-80013723D01*
X145673160Y-79914837D01*
X145653868Y-79817852D01*
X145616027Y-79726494D01*
X145561089Y-79644274D01*
X145491166Y-79574351D01*
X145408946Y-79519413D01*
X145317588Y-79481572D01*
X145220603Y-79462280D01*
X145121717Y-79462280D01*
X145024732Y-79481572D01*
X144933374Y-79519413D01*
X144851154Y-79574351D01*
X144781231Y-79644274D01*
X144727398Y-79724840D01*
X142748579Y-79724840D01*
X142728840Y-79722896D01*
X142709100Y-79724840D01*
X142709093Y-79724840D01*
X142650034Y-79730657D01*
X142574256Y-79753643D01*
X142504420Y-79790972D01*
X142465480Y-79822930D01*
X142443208Y-79841208D01*
X142430621Y-79856545D01*
X141653369Y-80633798D01*
X141405800Y-80633798D01*
X141341697Y-80640112D01*
X141280057Y-80658810D01*
X141223250Y-80689174D01*
X141173457Y-80730037D01*
X141132594Y-80779830D01*
X141102230Y-80836637D01*
X141083532Y-80898277D01*
X141077218Y-80962380D01*
X141077218Y-81437380D01*
X141083532Y-81501483D01*
X141102230Y-81563123D01*
X141132594Y-81619930D01*
X141173457Y-81669723D01*
X141223250Y-81710586D01*
X141226606Y-81712380D01*
X141223250Y-81714174D01*
X141173457Y-81755037D01*
X141132594Y-81804830D01*
X141102230Y-81861637D01*
X141083532Y-81923277D01*
X141077218Y-81987380D01*
X141077218Y-82128882D01*
X138658102Y-84547999D01*
X132988416Y-84547999D01*
X132965001Y-84545693D01*
X132941586Y-84547999D01*
X132941578Y-84547999D01*
X132871493Y-84554902D01*
X132781578Y-84582177D01*
X132698712Y-84626470D01*
X132626080Y-84686078D01*
X132611150Y-84704270D01*
X131719276Y-85596145D01*
X131701079Y-85611079D01*
X131641471Y-85683711D01*
X131597178Y-85766578D01*
X131569903Y-85856493D01*
X131563000Y-85926578D01*
X131563000Y-85926585D01*
X131560694Y-85950000D01*
X131563000Y-85973415D01*
X131563001Y-115176575D01*
X131560694Y-115200000D01*
X131569903Y-115293507D01*
X131597178Y-115383422D01*
X131597179Y-115383423D01*
X131641472Y-115466289D01*
X131701080Y-115538921D01*
X131719271Y-115553850D01*
X132506147Y-116340727D01*
X132521079Y-116358921D01*
X132593711Y-116418529D01*
X132676577Y-116462822D01*
X132766492Y-116490097D01*
X132836577Y-116497000D01*
X132836584Y-116497000D01*
X132859999Y-116499306D01*
X132883414Y-116497000D01*
X133634601Y-116497000D01*
X134698861Y-117561261D01*
X134698860Y-118169037D01*
X134672654Y-118200970D01*
X134642290Y-118257777D01*
X134623592Y-118319417D01*
X134617278Y-118383520D01*
X134617278Y-118803520D01*
X134623592Y-118867623D01*
X134642290Y-118929263D01*
X134652583Y-118948520D01*
X134642290Y-118967777D01*
X134623592Y-119029417D01*
X134617278Y-119093520D01*
X134617278Y-119513520D01*
X134623592Y-119577623D01*
X134642290Y-119639263D01*
X134672654Y-119696070D01*
X134713517Y-119745863D01*
X134715181Y-119747229D01*
X134698592Y-119801917D01*
X134692278Y-119866020D01*
X134692278Y-121164021D01*
X134294536Y-121164021D01*
X130232000Y-117101485D01*
X130232000Y-85436513D01*
X131926514Y-83742000D01*
X137890261Y-83742000D01*
X137910000Y-83743944D01*
X137929739Y-83742000D01*
X137929747Y-83742000D01*
X137988806Y-83736183D01*
X138064583Y-83713197D01*
X138134420Y-83675868D01*
X138195632Y-83625632D01*
X138208223Y-83610290D01*
X139283220Y-82535294D01*
X139283225Y-82535288D01*
X143306434Y-78512080D01*
X145016539Y-78512080D01*
X145080694Y-78554947D01*
X145172052Y-78592788D01*
X145269037Y-78612080D01*
X145367923Y-78612080D01*
X145464908Y-78592788D01*
X145556266Y-78554947D01*
X145638486Y-78500009D01*
X145708409Y-78430086D01*
X145763347Y-78347866D01*
X145801188Y-78256508D01*
X145820480Y-78159523D01*
X145820480Y-78112079D01*
X146006726Y-78112079D01*
X146781599Y-78886952D01*
X146796652Y-78962628D01*
X146834493Y-79053986D01*
X146889431Y-79136206D01*
X146959354Y-79206129D01*
X147041574Y-79261067D01*
X147132932Y-79298908D01*
X147229917Y-79318200D01*
X147328803Y-79318200D01*
X147425788Y-79298908D01*
X147517146Y-79261067D01*
X147599366Y-79206129D01*
X147629201Y-79176294D01*
X147629200Y-80398939D01*
X147586333Y-80463094D01*
X147548492Y-80554452D01*
X147529200Y-80651437D01*
X147529200Y-80750323D01*
X147548492Y-80847308D01*
X147586333Y-80938666D01*
X147641271Y-81020886D01*
X147711194Y-81090809D01*
X147793414Y-81145747D01*
X147838508Y-81164425D01*
X147761994Y-81215551D01*
X147692071Y-81285474D01*
X147637133Y-81367694D01*
X147599292Y-81459052D01*
X147580000Y-81556037D01*
X147580000Y-81654923D01*
X147599292Y-81751908D01*
X147637133Y-81843266D01*
X147692071Y-81925486D01*
X147705855Y-81939270D01*
X147680688Y-81976935D01*
X147642847Y-82068293D01*
X147623555Y-82165278D01*
X147623555Y-82264164D01*
X147642847Y-82361149D01*
X147680688Y-82452507D01*
X147735626Y-82534727D01*
X147805549Y-82604650D01*
X147887769Y-82659588D01*
X147979127Y-82697429D01*
X148076112Y-82716721D01*
X148174998Y-82716721D01*
X148196227Y-82712498D01*
X148623130Y-83139402D01*
X148635719Y-83154741D01*
X148696931Y-83204977D01*
X148766768Y-83242306D01*
X148842545Y-83265292D01*
X148901604Y-83271109D01*
X148901611Y-83271109D01*
X148921351Y-83273053D01*
X148941090Y-83271109D01*
X149656800Y-83271109D01*
X151561500Y-85175810D01*
X151574082Y-85191141D01*
X151589413Y-85203723D01*
X151589420Y-85203730D01*
X151635294Y-85241378D01*
X151705130Y-85278706D01*
X151780908Y-85301693D01*
X151859714Y-85309454D01*
X151879463Y-85307509D01*
X161685310Y-85307511D01*
X161705049Y-85309455D01*
X161724788Y-85307511D01*
X161724795Y-85307511D01*
X161783854Y-85301694D01*
X161859631Y-85278708D01*
X161929468Y-85241379D01*
X161990680Y-85191143D01*
X162003266Y-85175807D01*
X162930080Y-84248993D01*
X164161982Y-85480896D01*
X164174569Y-85496233D01*
X164235781Y-85546469D01*
X164305618Y-85583798D01*
X164381395Y-85606784D01*
X164440454Y-85612601D01*
X164440461Y-85612601D01*
X164460200Y-85614545D01*
X164479940Y-85612601D01*
X170621557Y-85612601D01*
X170709212Y-85648908D01*
X170806197Y-85668200D01*
X170905083Y-85668200D01*
X171002068Y-85648908D01*
X171093426Y-85611067D01*
X171175646Y-85556129D01*
X171245569Y-85486206D01*
X171300507Y-85403986D01*
X171338348Y-85312628D01*
X171357640Y-85215643D01*
X171357640Y-85116757D01*
X171338348Y-85019772D01*
X171300507Y-84928414D01*
X171245569Y-84846194D01*
X171175646Y-84776271D01*
X171093426Y-84721333D01*
X171002068Y-84683492D01*
X170905083Y-84664200D01*
X170806197Y-84664200D01*
X170709212Y-84683492D01*
X170617854Y-84721333D01*
X170595738Y-84736111D01*
X170581428Y-84664172D01*
X170543587Y-84572814D01*
X170488649Y-84490594D01*
X170418726Y-84420671D01*
X170336506Y-84365733D01*
X170245148Y-84327892D01*
X170148163Y-84308600D01*
X170049277Y-84308600D01*
X169952292Y-84327892D01*
X169860934Y-84365733D01*
X169818230Y-84394267D01*
X169809268Y-84349212D01*
X169771427Y-84257854D01*
X169716489Y-84175634D01*
X169646566Y-84105711D01*
X169564346Y-84050773D01*
X169472988Y-84012932D01*
X169376003Y-83993640D01*
X169277117Y-83993640D01*
X169180132Y-84012932D01*
X169147840Y-84026308D01*
X169147840Y-84004237D01*
X169128548Y-83907252D01*
X169090707Y-83815894D01*
X169035769Y-83733674D01*
X168965846Y-83663751D01*
X168883626Y-83608813D01*
X168792268Y-83570972D01*
X168695283Y-83551680D01*
X168596397Y-83551680D01*
X168499412Y-83570972D01*
X168408054Y-83608813D01*
X168343899Y-83651680D01*
X165658662Y-83651680D01*
X165658662Y-83134062D01*
X166305080Y-83134062D01*
X166369183Y-83127748D01*
X166430823Y-83109050D01*
X166487630Y-83078686D01*
X166513470Y-83057480D01*
X166594265Y-83057480D01*
X166598634Y-83061849D01*
X166680854Y-83116787D01*
X166772212Y-83154628D01*
X166869197Y-83173920D01*
X166968083Y-83173920D01*
X167065068Y-83154628D01*
X167156426Y-83116787D01*
X167238646Y-83061849D01*
X167308569Y-82991926D01*
X167363507Y-82909706D01*
X167401348Y-82818348D01*
X167420640Y-82721363D01*
X167420640Y-82622477D01*
X167401348Y-82525492D01*
X167363507Y-82434134D01*
X167313686Y-82359573D01*
X167340388Y-82295108D01*
X167359680Y-82198123D01*
X167359680Y-82099237D01*
X167340388Y-82002252D01*
X167302547Y-81910894D01*
X167278575Y-81875018D01*
X167314988Y-81787108D01*
X167334280Y-81690123D01*
X167334280Y-81591237D01*
X167314988Y-81494252D01*
X167277147Y-81402894D01*
X167222209Y-81320674D01*
X167152286Y-81250751D01*
X167070066Y-81195813D01*
X166978708Y-81157972D01*
X166933593Y-81148998D01*
X166997913Y-81122356D01*
X167080133Y-81067418D01*
X167150056Y-80997495D01*
X167204994Y-80915275D01*
X167242835Y-80823917D01*
X167262127Y-80726932D01*
X167262127Y-80628046D01*
X167242835Y-80531061D01*
X167227697Y-80494513D01*
X167277147Y-80420506D01*
X167314988Y-80329148D01*
X167334280Y-80232163D01*
X167334280Y-80133277D01*
X167314988Y-80036292D01*
X167277147Y-79944934D01*
X167222209Y-79862714D01*
X167173509Y-79814014D01*
X167188667Y-79737811D01*
X167188667Y-79638925D01*
X167169375Y-79541940D01*
X167134711Y-79458253D01*
X167155768Y-79426739D01*
X167193609Y-79335381D01*
X167212901Y-79238396D01*
X167212901Y-79139510D01*
X167193609Y-79042525D01*
X167155768Y-78951167D01*
X167139799Y-78927268D01*
X167139987Y-78926986D01*
X167177828Y-78835628D01*
X167197120Y-78738643D01*
X167197120Y-78639757D01*
X167177828Y-78542772D01*
X167139987Y-78451414D01*
X167108822Y-78404772D01*
X167109507Y-78403746D01*
X167147348Y-78312388D01*
X167166640Y-78215403D01*
X167166640Y-78132480D01*
X168571105Y-78132480D01*
X168594520Y-78134786D01*
X168617935Y-78132480D01*
X168617943Y-78132480D01*
X168688028Y-78125577D01*
X168777943Y-78098302D01*
X168860809Y-78054009D01*
X168933441Y-77994401D01*
X168948375Y-77976204D01*
X169190724Y-77733855D01*
X169208921Y-77718921D01*
X169268529Y-77646289D01*
X169312822Y-77563423D01*
X169340097Y-77473508D01*
X169347000Y-77403423D01*
X169347000Y-77403415D01*
X169349306Y-77380000D01*
X169347000Y-77356585D01*
X169347000Y-76363415D01*
X169349306Y-76340000D01*
X169347000Y-76316585D01*
X169347000Y-76316577D01*
X169340097Y-76246492D01*
X169312822Y-76156577D01*
X169268529Y-76073711D01*
X169242067Y-76041467D01*
X169223852Y-76019272D01*
X169223850Y-76019270D01*
X169208921Y-76001079D01*
X169190729Y-75986149D01*
X166953855Y-73749276D01*
X166938921Y-73731079D01*
X166866289Y-73671471D01*
X166783423Y-73627178D01*
X166693508Y-73599903D01*
X166623423Y-73593000D01*
X166623415Y-73593000D01*
X166600000Y-73590694D01*
X166576585Y-73593000D01*
X157322974Y-73593000D01*
X157299559Y-73590694D01*
X157276144Y-73593000D01*
X157276137Y-73593000D01*
X157206052Y-73599903D01*
X157116137Y-73627178D01*
X157033271Y-73671471D01*
X156960639Y-73731079D01*
X156945710Y-73749270D01*
X151157196Y-79537785D01*
X151138999Y-79552719D01*
X151079391Y-79625351D01*
X151035098Y-79708218D01*
X151007823Y-79798133D01*
X151000920Y-79868218D01*
X151000920Y-79868225D01*
X150998614Y-79891640D01*
X151000920Y-79915055D01*
X151000921Y-80653479D01*
X149162936Y-80653479D01*
X149139521Y-80651173D01*
X149116106Y-80653479D01*
X149116098Y-80653479D01*
X149116088Y-80653480D01*
X149065077Y-80653480D01*
X149033180Y-80659825D01*
X149033180Y-80656037D01*
X149013888Y-80559052D01*
X148976047Y-80467694D01*
X148921109Y-80385474D01*
X148851186Y-80315551D01*
X148833201Y-80303534D01*
X148833201Y-78971500D01*
X148835145Y-78951761D01*
X148833201Y-78932021D01*
X148833201Y-78932014D01*
X148827384Y-78872955D01*
X148821355Y-78853080D01*
X148804398Y-78797177D01*
X148767069Y-78727341D01*
X148729421Y-78681467D01*
X148729419Y-78681465D01*
X148716833Y-78666129D01*
X148701496Y-78653542D01*
X146887718Y-76839765D01*
X146875132Y-76824429D01*
X146859796Y-76811843D01*
X146859793Y-76811840D01*
X146833707Y-76790432D01*
X146813920Y-76774193D01*
X146744083Y-76736864D01*
X146735581Y-76734285D01*
X146668305Y-76713877D01*
X146589500Y-76706116D01*
X146569751Y-76708061D01*
X142886846Y-76708059D01*
X142867106Y-76706115D01*
X142847367Y-76708059D01*
X142847361Y-76708059D01*
X142797153Y-76713004D01*
X142788301Y-76713876D01*
X142755494Y-76723828D01*
X142712525Y-76736862D01*
X142642688Y-76774191D01*
X142581476Y-76824427D01*
X142568890Y-76839763D01*
X137370681Y-82037972D01*
X131406935Y-82037972D01*
X131387195Y-82036028D01*
X131367456Y-82037972D01*
X131367449Y-82037972D01*
X131308390Y-82043789D01*
X131232613Y-82066775D01*
X131162776Y-82104104D01*
X131139279Y-82123388D01*
X131126273Y-82134062D01*
X131101564Y-82154340D01*
X131088977Y-82169677D01*
X128659678Y-84598977D01*
X128644342Y-84611563D01*
X128631756Y-84626899D01*
X128631753Y-84626902D01*
X128624815Y-84635356D01*
X128594106Y-84672775D01*
X128557608Y-84741057D01*
X128556777Y-84742612D01*
X128533790Y-84818390D01*
X128526029Y-84897195D01*
X128527974Y-84916944D01*
X128527972Y-118520791D01*
X128526028Y-118540530D01*
X128527972Y-118560269D01*
X128527972Y-118560276D01*
X128533789Y-118619335D01*
X128556775Y-118695112D01*
X128594104Y-118764949D01*
X128644340Y-118826161D01*
X128659676Y-118838747D01*
X132701244Y-122880316D01*
X132713830Y-122895652D01*
X132775042Y-122945888D01*
X132844879Y-122983217D01*
X132920656Y-123006203D01*
X132979715Y-123012020D01*
X132979722Y-123012020D01*
X132999462Y-123013964D01*
X133019201Y-123012020D01*
X136707121Y-123012020D01*
X136726860Y-123013964D01*
X136746599Y-123012020D01*
X136746607Y-123012020D01*
X136805666Y-123006203D01*
X136881443Y-122983217D01*
X136951280Y-122945888D01*
X137012492Y-122895652D01*
X137025083Y-122880310D01*
X138116157Y-121789237D01*
X138131492Y-121776652D01*
X138181728Y-121715440D01*
X138209462Y-121663554D01*
X138270860Y-121669602D01*
X138720860Y-121669602D01*
X138784963Y-121663288D01*
X138792540Y-121660989D01*
X138792540Y-121943179D01*
X138749673Y-122007334D01*
X138711832Y-122098692D01*
X138692540Y-122195677D01*
X138692540Y-122294563D01*
X138711832Y-122391548D01*
X138749673Y-122482906D01*
X138804611Y-122565126D01*
X138874534Y-122635049D01*
X138956754Y-122689987D01*
X139048112Y-122727828D01*
X139111208Y-122740379D01*
X138942388Y-122909199D01*
X138930747Y-122881094D01*
X138875809Y-122798874D01*
X138805886Y-122728951D01*
X138723666Y-122674013D01*
X138632308Y-122636172D01*
X138535323Y-122616880D01*
X138436437Y-122616880D01*
X138339452Y-122636172D01*
X138248094Y-122674013D01*
X138165874Y-122728951D01*
X138095951Y-122798874D01*
X138041013Y-122881094D01*
X138003172Y-122972452D01*
X137996898Y-123003993D01*
X137247292Y-123753600D01*
X136490087Y-123753600D01*
X136469120Y-123751535D01*
X136448153Y-123753600D01*
X136448142Y-123753600D01*
X136385413Y-123759778D01*
X136304924Y-123784195D01*
X136270393Y-123802652D01*
X136230743Y-123823845D01*
X136182019Y-123863832D01*
X136182015Y-123863836D01*
X136165725Y-123877205D01*
X136152356Y-123893495D01*
X134958755Y-125087097D01*
X134942466Y-125100465D01*
X134929097Y-125116755D01*
X134929092Y-125116760D01*
X134889105Y-125165484D01*
X134849456Y-125239664D01*
X134825039Y-125320154D01*
X134816795Y-125403860D01*
X134818861Y-125424837D01*
X134818861Y-125484775D01*
X134788517Y-125509677D01*
X134747654Y-125559470D01*
X134717290Y-125616277D01*
X134698592Y-125677917D01*
X134692278Y-125742020D01*
X134692278Y-126573377D01*
X134691673Y-126579520D01*
X134692278Y-126585663D01*
X134692278Y-127217020D01*
X134693860Y-127233086D01*
X134693860Y-127422689D01*
X134683517Y-127431177D01*
X134642654Y-127480970D01*
X134612290Y-127537777D01*
X134593592Y-127599417D01*
X134587278Y-127663520D01*
X134587278Y-128083520D01*
X134593592Y-128147623D01*
X134612290Y-128209263D01*
X134642654Y-128266070D01*
X134683517Y-128315863D01*
X134733310Y-128356726D01*
X134790117Y-128387090D01*
X134851757Y-128405788D01*
X134915860Y-128412102D01*
X135375860Y-128412102D01*
X135439963Y-128405788D01*
X135501603Y-128387090D01*
X135558410Y-128356726D01*
X135608203Y-128315863D01*
X135649066Y-128266070D01*
X135679430Y-128209263D01*
X135698128Y-128147623D01*
X135704442Y-128083520D01*
X135704442Y-127663520D01*
X135698128Y-127599417D01*
X135681804Y-127545602D01*
X136120860Y-127545602D01*
X136184963Y-127539288D01*
X136220860Y-127528399D01*
X136256757Y-127539288D01*
X136320860Y-127545602D01*
X136770860Y-127545602D01*
X136793860Y-127543337D01*
X136793860Y-127732347D01*
X136729327Y-127796880D01*
X136526959Y-127796880D01*
X136507219Y-127794936D01*
X136487480Y-127796880D01*
X136487473Y-127796880D01*
X136428414Y-127802697D01*
X136352637Y-127825683D01*
X136282800Y-127863012D01*
X136253023Y-127887450D01*
X136242940Y-127895725D01*
X136221588Y-127913248D01*
X136209001Y-127928585D01*
X135388565Y-128749022D01*
X135373229Y-128761608D01*
X135322993Y-128822820D01*
X135315923Y-128836047D01*
X135285664Y-128892657D01*
X135262677Y-128968435D01*
X135254916Y-129047240D01*
X135256861Y-129066989D01*
X135256860Y-130256860D01*
X135254916Y-130276600D01*
X135256424Y-130291911D01*
X135252230Y-130299757D01*
X135233532Y-130361397D01*
X135227218Y-130425500D01*
X135227218Y-131575500D01*
X135233532Y-131639603D01*
X135252230Y-131701243D01*
X135278126Y-131749690D01*
X133217444Y-131748015D01*
X133217292Y-131748000D01*
X133198985Y-131748000D01*
X133182995Y-131747987D01*
X133182862Y-131748000D01*
X127352000Y-131748000D01*
X127352000Y-83229935D01*
X150773834Y-72952000D01*
X165965451Y-72952000D01*
X174948000Y-78160469D01*
G36*
X137602230Y-130299757D02*
G01*
X137583532Y-130361397D01*
X137577218Y-130425500D01*
X137577218Y-131575500D01*
X137583532Y-131639603D01*
X137602230Y-131701243D01*
X137629147Y-131751602D01*
X136982734Y-131751076D01*
X137009370Y-131701243D01*
X137028068Y-131639603D01*
X137034382Y-131575500D01*
X137034382Y-130425500D01*
X137028068Y-130361397D01*
X137009370Y-130299757D01*
X136999356Y-130281022D01*
X137580060Y-130281022D01*
X137614033Y-130277676D01*
X137602230Y-130299757D01*
G37*
X137602230Y-130299757D02*
X137583532Y-130361397D01*
X137577218Y-130425500D01*
X137577218Y-131575500D01*
X137583532Y-131639603D01*
X137602230Y-131701243D01*
X137629147Y-131751602D01*
X136982734Y-131751076D01*
X137009370Y-131701243D01*
X137028068Y-131639603D01*
X137034382Y-131575500D01*
X137034382Y-130425500D01*
X137028068Y-130361397D01*
X137009370Y-130299757D01*
X136999356Y-130281022D01*
X137580060Y-130281022D01*
X137614033Y-130277676D01*
X137602230Y-130299757D01*
G36*
X139888039Y-125361332D02*
G01*
X139903092Y-125437008D01*
X139940933Y-125528366D01*
X139995871Y-125610586D01*
X140065794Y-125680509D01*
X140148014Y-125735447D01*
X140239372Y-125773288D01*
X140336357Y-125792580D01*
X140435243Y-125792580D01*
X140532228Y-125773288D01*
X140623586Y-125735447D01*
X140705806Y-125680509D01*
X140726340Y-125659975D01*
X140727732Y-125674103D01*
X140746430Y-125735743D01*
X140775431Y-125790000D01*
X140746430Y-125844257D01*
X140727732Y-125905897D01*
X140721418Y-125970000D01*
X140721418Y-126210000D01*
X140727732Y-126274103D01*
X140746430Y-126335743D01*
X140775431Y-126390000D01*
X140746430Y-126444257D01*
X140727732Y-126505897D01*
X140721418Y-126570000D01*
X140721418Y-126810000D01*
X140727732Y-126874103D01*
X140746430Y-126935743D01*
X140775431Y-126990000D01*
X140746430Y-127044257D01*
X140727732Y-127105897D01*
X140721418Y-127170000D01*
X140721418Y-127231731D01*
X140666766Y-127195213D01*
X140575408Y-127157372D01*
X140478423Y-127138080D01*
X140379537Y-127138080D01*
X140282552Y-127157372D01*
X140191194Y-127195213D01*
X140127039Y-127238080D01*
X139214279Y-127238080D01*
X139194539Y-127236136D01*
X139174800Y-127238080D01*
X139174793Y-127238080D01*
X139115734Y-127243897D01*
X139044671Y-127265453D01*
X139049442Y-127217020D01*
X139049442Y-125742020D01*
X139043128Y-125677917D01*
X139024430Y-125616277D01*
X138994066Y-125559470D01*
X138953203Y-125509677D01*
X138903410Y-125468814D01*
X138846603Y-125438450D01*
X138784963Y-125419752D01*
X138720860Y-125413438D01*
X138270860Y-125413438D01*
X138206757Y-125419752D01*
X138170860Y-125430641D01*
X138134963Y-125419752D01*
X138070860Y-125413438D01*
X137620860Y-125413438D01*
X137556757Y-125419752D01*
X137520860Y-125430641D01*
X137484963Y-125419752D01*
X137420860Y-125413438D01*
X137196218Y-125413438D01*
X137203288Y-125396368D01*
X137222580Y-125299383D01*
X137222580Y-125251939D01*
X139778646Y-125251939D01*
X139888039Y-125361332D01*
G37*
X139888039Y-125361332D02*
X139903092Y-125437008D01*
X139940933Y-125528366D01*
X139995871Y-125610586D01*
X140065794Y-125680509D01*
X140148014Y-125735447D01*
X140239372Y-125773288D01*
X140336357Y-125792580D01*
X140435243Y-125792580D01*
X140532228Y-125773288D01*
X140623586Y-125735447D01*
X140705806Y-125680509D01*
X140726340Y-125659975D01*
X140727732Y-125674103D01*
X140746430Y-125735743D01*
X140775431Y-125790000D01*
X140746430Y-125844257D01*
X140727732Y-125905897D01*
X140721418Y-125970000D01*
X140721418Y-126210000D01*
X140727732Y-126274103D01*
X140746430Y-126335743D01*
X140775431Y-126390000D01*
X140746430Y-126444257D01*
X140727732Y-126505897D01*
X140721418Y-126570000D01*
X140721418Y-126810000D01*
X140727732Y-126874103D01*
X140746430Y-126935743D01*
X140775431Y-126990000D01*
X140746430Y-127044257D01*
X140727732Y-127105897D01*
X140721418Y-127170000D01*
X140721418Y-127231731D01*
X140666766Y-127195213D01*
X140575408Y-127157372D01*
X140478423Y-127138080D01*
X140379537Y-127138080D01*
X140282552Y-127157372D01*
X140191194Y-127195213D01*
X140127039Y-127238080D01*
X139214279Y-127238080D01*
X139194539Y-127236136D01*
X139174800Y-127238080D01*
X139174793Y-127238080D01*
X139115734Y-127243897D01*
X139044671Y-127265453D01*
X139049442Y-127217020D01*
X139049442Y-125742020D01*
X139043128Y-125677917D01*
X139024430Y-125616277D01*
X138994066Y-125559470D01*
X138953203Y-125509677D01*
X138903410Y-125468814D01*
X138846603Y-125438450D01*
X138784963Y-125419752D01*
X138720860Y-125413438D01*
X138270860Y-125413438D01*
X138206757Y-125419752D01*
X138170860Y-125430641D01*
X138134963Y-125419752D01*
X138070860Y-125413438D01*
X137620860Y-125413438D01*
X137556757Y-125419752D01*
X137520860Y-125430641D01*
X137484963Y-125419752D01*
X137420860Y-125413438D01*
X137196218Y-125413438D01*
X137203288Y-125396368D01*
X137222580Y-125299383D01*
X137222580Y-125251939D01*
X139778646Y-125251939D01*
X139888039Y-125361332D01*
G36*
X140746430Y-122244257D02*
G01*
X140727732Y-122305897D01*
X140721418Y-122370000D01*
X140721418Y-122610000D01*
X140727732Y-122674103D01*
X140746430Y-122735743D01*
X140775431Y-122790000D01*
X140746430Y-122844257D01*
X140727732Y-122905897D01*
X140721418Y-122970000D01*
X140721418Y-123210000D01*
X140727732Y-123274103D01*
X140746430Y-123335743D01*
X140775431Y-123390000D01*
X140746430Y-123444257D01*
X140727732Y-123505897D01*
X140721418Y-123570000D01*
X140721418Y-123810000D01*
X140727732Y-123874103D01*
X140746430Y-123935743D01*
X140775431Y-123990000D01*
X140746430Y-124044257D01*
X140727732Y-124105897D01*
X140721418Y-124170000D01*
X140721418Y-124410000D01*
X140727732Y-124474103D01*
X140746430Y-124535743D01*
X140775431Y-124590000D01*
X140746430Y-124644257D01*
X140727732Y-124705897D01*
X140721418Y-124770000D01*
X140721418Y-124916263D01*
X140705806Y-124900651D01*
X140623586Y-124845713D01*
X140532228Y-124807872D01*
X140456552Y-124792819D01*
X140243382Y-124579649D01*
X140230791Y-124564307D01*
X140169579Y-124514071D01*
X140099742Y-124476742D01*
X140023965Y-124453756D01*
X139964906Y-124447939D01*
X139964898Y-124447939D01*
X139945159Y-124445995D01*
X139925420Y-124447939D01*
X138667991Y-124447939D01*
X138694527Y-124408226D01*
X138732368Y-124316868D01*
X138747421Y-124241192D01*
X140748812Y-122239801D01*
X140746430Y-122244257D01*
G37*
X140746430Y-122244257D02*
X140727732Y-122305897D01*
X140721418Y-122370000D01*
X140721418Y-122610000D01*
X140727732Y-122674103D01*
X140746430Y-122735743D01*
X140775431Y-122790000D01*
X140746430Y-122844257D01*
X140727732Y-122905897D01*
X140721418Y-122970000D01*
X140721418Y-123210000D01*
X140727732Y-123274103D01*
X140746430Y-123335743D01*
X140775431Y-123390000D01*
X140746430Y-123444257D01*
X140727732Y-123505897D01*
X140721418Y-123570000D01*
X140721418Y-123810000D01*
X140727732Y-123874103D01*
X140746430Y-123935743D01*
X140775431Y-123990000D01*
X140746430Y-124044257D01*
X140727732Y-124105897D01*
X140721418Y-124170000D01*
X140721418Y-124410000D01*
X140727732Y-124474103D01*
X140746430Y-124535743D01*
X140775431Y-124590000D01*
X140746430Y-124644257D01*
X140727732Y-124705897D01*
X140721418Y-124770000D01*
X140721418Y-124916263D01*
X140705806Y-124900651D01*
X140623586Y-124845713D01*
X140532228Y-124807872D01*
X140456552Y-124792819D01*
X140243382Y-124579649D01*
X140230791Y-124564307D01*
X140169579Y-124514071D01*
X140099742Y-124476742D01*
X140023965Y-124453756D01*
X139964906Y-124447939D01*
X139964898Y-124447939D01*
X139945159Y-124445995D01*
X139925420Y-124447939D01*
X138667991Y-124447939D01*
X138694527Y-124408226D01*
X138732368Y-124316868D01*
X138747421Y-124241192D01*
X140748812Y-122239801D01*
X140746430Y-122244257D01*
G36*
X133601490Y-121608001D02*
G01*
X133414513Y-121608001D01*
X129931989Y-118125478D01*
X129931989Y-117938500D01*
X133601490Y-121608001D01*
G37*
X133601490Y-121608001D02*
X133414513Y-121608001D01*
X129931989Y-118125478D01*
X129931989Y-117938500D01*
X133601490Y-121608001D01*
G36*
X136137038Y-117605500D02*
G01*
X136143352Y-117669603D01*
X136147700Y-117683938D01*
X135980480Y-117683938D01*
X135916377Y-117690252D01*
X135854737Y-117708950D01*
X135797930Y-117739314D01*
X135748137Y-117780177D01*
X135707274Y-117829970D01*
X135676910Y-117886777D01*
X135658212Y-117948417D01*
X135652860Y-118002753D01*
X135652860Y-117387092D01*
X135655166Y-117363679D01*
X135652860Y-117340266D01*
X135652860Y-117340257D01*
X135645957Y-117270172D01*
X135618682Y-117180257D01*
X135574389Y-117097391D01*
X135539376Y-117054728D01*
X135529712Y-117042952D01*
X135529710Y-117042950D01*
X135514781Y-117024759D01*
X135496589Y-117009829D01*
X134983760Y-116497000D01*
X136137038Y-116497000D01*
X136137038Y-117605500D01*
G37*
X136137038Y-117605500D02*
X136143352Y-117669603D01*
X136147700Y-117683938D01*
X135980480Y-117683938D01*
X135916377Y-117690252D01*
X135854737Y-117708950D01*
X135797930Y-117739314D01*
X135748137Y-117780177D01*
X135707274Y-117829970D01*
X135676910Y-117886777D01*
X135658212Y-117948417D01*
X135652860Y-118002753D01*
X135652860Y-117387092D01*
X135655166Y-117363679D01*
X135652860Y-117340266D01*
X135652860Y-117340257D01*
X135645957Y-117270172D01*
X135618682Y-117180257D01*
X135574389Y-117097391D01*
X135539376Y-117054728D01*
X135529712Y-117042952D01*
X135529710Y-117042950D01*
X135514781Y-117024759D01*
X135496589Y-117009829D01*
X134983760Y-116497000D01*
X136137038Y-116497000D01*
X136137038Y-117605500D01*
G36*
X160748595Y-74608060D02*
G01*
X160693657Y-74690280D01*
X160688845Y-74701898D01*
X160530080Y-74701898D01*
X160465977Y-74708212D01*
X160430080Y-74719101D01*
X160394183Y-74708212D01*
X160330080Y-74701898D01*
X160030080Y-74701898D01*
X159965977Y-74708212D01*
X159930080Y-74719101D01*
X159894183Y-74708212D01*
X159830080Y-74701898D01*
X159530080Y-74701898D01*
X159465977Y-74708212D01*
X159404337Y-74726910D01*
X159347530Y-74757274D01*
X159297737Y-74798137D01*
X159256874Y-74847930D01*
X159226510Y-74904737D01*
X159207812Y-74966377D01*
X159201498Y-75030480D01*
X159201498Y-75880480D01*
X159207696Y-75943410D01*
X159206939Y-75945239D01*
X159187647Y-76042224D01*
X159187647Y-76141110D01*
X159206939Y-76238095D01*
X159244780Y-76329453D01*
X159299718Y-76411673D01*
X159369641Y-76481596D01*
X159451861Y-76536534D01*
X159543219Y-76574375D01*
X159640204Y-76593667D01*
X159739090Y-76593667D01*
X159836075Y-76574375D01*
X159878734Y-76556706D01*
X159949854Y-76604227D01*
X160041212Y-76642068D01*
X160138197Y-76661360D01*
X160237083Y-76661360D01*
X160334068Y-76642068D01*
X160425114Y-76604356D01*
X160462934Y-76629627D01*
X160554292Y-76667468D01*
X160651277Y-76686760D01*
X160750163Y-76686760D01*
X160847148Y-76667468D01*
X160938506Y-76629627D01*
X161020726Y-76574689D01*
X161090649Y-76504766D01*
X161145587Y-76422546D01*
X161183428Y-76331188D01*
X161202720Y-76234203D01*
X161202720Y-76209062D01*
X161330080Y-76209062D01*
X161394183Y-76202748D01*
X161455823Y-76184050D01*
X161512630Y-76153686D01*
X161562423Y-76112823D01*
X161603286Y-76063030D01*
X161633650Y-76006223D01*
X161652348Y-75944583D01*
X161658662Y-75880480D01*
X161658662Y-75030480D01*
X161652348Y-74966377D01*
X161640524Y-74927398D01*
X161640524Y-74878623D01*
X161621232Y-74781638D01*
X161583391Y-74690280D01*
X161528453Y-74608060D01*
X161467393Y-74547000D01*
X166402421Y-74547000D01*
X168393001Y-76537581D01*
X168393000Y-77178480D01*
X167115840Y-77178480D01*
X167115840Y-77125917D01*
X167096548Y-77028932D01*
X167067615Y-76959080D01*
X167069809Y-76956886D01*
X167124747Y-76874666D01*
X167162588Y-76783308D01*
X167181880Y-76686323D01*
X167181880Y-76587437D01*
X167162588Y-76490452D01*
X167124747Y-76399094D01*
X167069809Y-76316874D01*
X166999886Y-76246951D01*
X166917666Y-76192013D01*
X166826308Y-76154172D01*
X166729323Y-76134880D01*
X166633662Y-76134880D01*
X166633662Y-76005480D01*
X166627348Y-75941377D01*
X166608650Y-75879737D01*
X166578286Y-75822930D01*
X166537423Y-75773137D01*
X166487630Y-75732274D01*
X166430823Y-75701910D01*
X166369183Y-75683212D01*
X166305080Y-75676898D01*
X166292880Y-75676898D01*
X166292880Y-75612077D01*
X166273588Y-75515092D01*
X166235747Y-75423734D01*
X166180809Y-75341514D01*
X166110886Y-75271591D01*
X166028666Y-75216653D01*
X165937308Y-75178812D01*
X165840323Y-75159520D01*
X165741437Y-75159520D01*
X165658662Y-75175985D01*
X165658662Y-75030480D01*
X165652348Y-74966377D01*
X165633650Y-74904737D01*
X165603286Y-74847930D01*
X165562423Y-74798137D01*
X165512630Y-74757274D01*
X165455823Y-74726910D01*
X165394183Y-74708212D01*
X165330080Y-74701898D01*
X165030080Y-74701898D01*
X164965977Y-74708212D01*
X164904337Y-74726910D01*
X164847530Y-74757274D01*
X164797737Y-74798137D01*
X164756874Y-74847930D01*
X164726510Y-74904737D01*
X164707812Y-74966377D01*
X164701498Y-75030480D01*
X164701498Y-75880480D01*
X164707812Y-75944583D01*
X164724046Y-75998099D01*
X164659271Y-76062874D01*
X164604333Y-76145094D01*
X164582080Y-76198819D01*
X164582080Y-76088870D01*
X164603286Y-76063030D01*
X164633650Y-76006223D01*
X164652348Y-75944583D01*
X164658662Y-75880480D01*
X164658662Y-75030480D01*
X164652348Y-74966377D01*
X164633650Y-74904737D01*
X164603286Y-74847930D01*
X164562423Y-74798137D01*
X164512630Y-74757274D01*
X164455823Y-74726910D01*
X164394183Y-74708212D01*
X164330080Y-74701898D01*
X164030080Y-74701898D01*
X163965977Y-74708212D01*
X163930080Y-74719101D01*
X163894183Y-74708212D01*
X163830080Y-74701898D01*
X163530080Y-74701898D01*
X163465977Y-74708212D01*
X163430080Y-74719101D01*
X163394183Y-74708212D01*
X163330080Y-74701898D01*
X163030080Y-74701898D01*
X162965977Y-74708212D01*
X162904337Y-74726910D01*
X162847530Y-74757274D01*
X162797737Y-74798137D01*
X162756874Y-74847930D01*
X162726510Y-74904737D01*
X162707812Y-74966377D01*
X162701498Y-75030480D01*
X162701498Y-75880480D01*
X162707812Y-75944583D01*
X162723051Y-75994820D01*
X162708240Y-76069277D01*
X162708240Y-76168163D01*
X162727532Y-76265148D01*
X162765373Y-76356506D01*
X162820311Y-76438726D01*
X162890234Y-76508649D01*
X162972454Y-76563587D01*
X163063812Y-76601428D01*
X163160797Y-76620720D01*
X163210331Y-76620720D01*
X163212413Y-76625746D01*
X163267351Y-76707966D01*
X163337274Y-76777889D01*
X163419494Y-76832827D01*
X163510852Y-76870668D01*
X163607837Y-76889960D01*
X163706723Y-76889960D01*
X163803708Y-76870668D01*
X163808902Y-76868517D01*
X163835114Y-76894729D01*
X163917334Y-76949667D01*
X164008692Y-76987508D01*
X164105677Y-77006800D01*
X164204563Y-77006800D01*
X164301548Y-76987508D01*
X164392906Y-76949667D01*
X164475126Y-76894729D01*
X164545049Y-76824806D01*
X164599987Y-76742586D01*
X164632825Y-76663307D01*
X164659271Y-76702886D01*
X164729194Y-76772809D01*
X164811414Y-76827747D01*
X164902772Y-76865588D01*
X164999757Y-76884880D01*
X165098643Y-76884880D01*
X165135244Y-76877599D01*
X165143701Y-76905480D01*
X165132812Y-76941377D01*
X165126498Y-77005480D01*
X165126498Y-77305480D01*
X165132812Y-77369583D01*
X165143701Y-77405480D01*
X165132812Y-77441377D01*
X165126498Y-77505480D01*
X165126498Y-77805480D01*
X165132812Y-77869583D01*
X165143701Y-77905480D01*
X165132812Y-77941377D01*
X165126498Y-78005480D01*
X165126498Y-78305480D01*
X165132812Y-78369583D01*
X165143701Y-78405480D01*
X165132812Y-78441377D01*
X165126498Y-78505480D01*
X165126498Y-78805480D01*
X165132812Y-78869583D01*
X165143701Y-78905480D01*
X165132812Y-78941377D01*
X165126498Y-79005480D01*
X165126498Y-79305480D01*
X165132812Y-79369583D01*
X165143701Y-79405480D01*
X165132812Y-79441377D01*
X165126498Y-79505480D01*
X165126498Y-79805480D01*
X165132812Y-79869583D01*
X165143701Y-79905480D01*
X165132812Y-79941377D01*
X165126498Y-80005480D01*
X165126498Y-80305480D01*
X165132812Y-80369583D01*
X165143701Y-80405480D01*
X165132812Y-80441377D01*
X165126498Y-80505480D01*
X165126498Y-80805480D01*
X165132812Y-80869583D01*
X165151510Y-80931223D01*
X165181874Y-80988030D01*
X165222737Y-81037823D01*
X165272530Y-81078686D01*
X165329337Y-81109050D01*
X165390977Y-81127748D01*
X165455080Y-81134062D01*
X166305080Y-81134062D01*
X166369183Y-81127748D01*
X166430823Y-81109050D01*
X166470604Y-81087786D01*
X166522341Y-81122356D01*
X166613699Y-81160197D01*
X166658814Y-81169171D01*
X166594494Y-81195813D01*
X166512274Y-81250751D01*
X166511314Y-81251711D01*
X166487630Y-81232274D01*
X166430823Y-81201910D01*
X166369183Y-81183212D01*
X166305080Y-81176898D01*
X165455080Y-81176898D01*
X165390977Y-81183212D01*
X165329337Y-81201910D01*
X165272530Y-81232274D01*
X165222737Y-81273137D01*
X165181874Y-81322930D01*
X165151510Y-81379737D01*
X165132812Y-81441377D01*
X165126498Y-81505480D01*
X165126498Y-81805480D01*
X165132812Y-81869583D01*
X165143701Y-81905480D01*
X165132812Y-81941377D01*
X165126498Y-82005480D01*
X165126498Y-82305480D01*
X165132812Y-82369583D01*
X165143701Y-82405480D01*
X165132812Y-82441377D01*
X165126498Y-82505480D01*
X165126498Y-82601898D01*
X165030080Y-82601898D01*
X164965977Y-82608212D01*
X164904337Y-82626910D01*
X164847530Y-82657274D01*
X164797737Y-82698137D01*
X164756874Y-82747930D01*
X164726510Y-82804737D01*
X164707812Y-82866377D01*
X164701498Y-82930480D01*
X164701498Y-83780480D01*
X164707812Y-83844583D01*
X164726510Y-83906223D01*
X164729006Y-83910892D01*
X164653276Y-83835163D01*
X164658662Y-83780480D01*
X164658662Y-82930480D01*
X164652348Y-82866377D01*
X164633650Y-82804737D01*
X164603286Y-82747930D01*
X164562423Y-82698137D01*
X164512630Y-82657274D01*
X164455823Y-82626910D01*
X164394183Y-82608212D01*
X164330080Y-82601898D01*
X164030080Y-82601898D01*
X163965977Y-82608212D01*
X163930080Y-82619101D01*
X163894183Y-82608212D01*
X163830080Y-82601898D01*
X163530080Y-82601898D01*
X163465977Y-82608212D01*
X163430080Y-82619101D01*
X163394183Y-82608212D01*
X163330080Y-82601898D01*
X163030080Y-82601898D01*
X162965977Y-82608212D01*
X162930080Y-82619101D01*
X162894183Y-82608212D01*
X162830080Y-82601898D01*
X162530080Y-82601898D01*
X162465977Y-82608212D01*
X162430080Y-82619101D01*
X162394183Y-82608212D01*
X162330080Y-82601898D01*
X162030080Y-82601898D01*
X161965977Y-82608212D01*
X161930080Y-82619101D01*
X161894183Y-82608212D01*
X161830080Y-82601898D01*
X161530080Y-82601898D01*
X161465977Y-82608212D01*
X161430080Y-82619101D01*
X161394183Y-82608212D01*
X161330080Y-82601898D01*
X161030080Y-82601898D01*
X160965977Y-82608212D01*
X160930080Y-82619101D01*
X160894183Y-82608212D01*
X160830080Y-82601898D01*
X160530080Y-82601898D01*
X160465977Y-82608212D01*
X160430080Y-82619101D01*
X160394183Y-82608212D01*
X160330080Y-82601898D01*
X160030080Y-82601898D01*
X159965977Y-82608212D01*
X159930080Y-82619101D01*
X159894183Y-82608212D01*
X159830080Y-82601898D01*
X159530080Y-82601898D01*
X159465977Y-82608212D01*
X159404337Y-82626910D01*
X159347530Y-82657274D01*
X159297737Y-82698137D01*
X159256874Y-82747930D01*
X159226510Y-82804737D01*
X159207812Y-82866377D01*
X159201498Y-82930480D01*
X159201498Y-83603481D01*
X159158662Y-83603481D01*
X159158662Y-82930480D01*
X159152348Y-82866377D01*
X159133650Y-82804737D01*
X159103286Y-82747930D01*
X159062423Y-82698137D01*
X159012630Y-82657274D01*
X158955823Y-82626910D01*
X158894183Y-82608212D01*
X158830080Y-82601898D01*
X158733662Y-82601898D01*
X158733662Y-82505480D01*
X158727348Y-82441377D01*
X158716459Y-82405480D01*
X158727348Y-82369583D01*
X158733662Y-82305480D01*
X158733662Y-82005480D01*
X158727348Y-81941377D01*
X158716459Y-81905480D01*
X158727348Y-81869583D01*
X158733662Y-81805480D01*
X158733662Y-81505480D01*
X158727348Y-81441377D01*
X158716459Y-81405480D01*
X158727348Y-81369583D01*
X158733662Y-81305480D01*
X158733662Y-81005480D01*
X158727348Y-80941377D01*
X158716459Y-80905480D01*
X158727348Y-80869583D01*
X158733662Y-80805480D01*
X158733662Y-80505480D01*
X158727348Y-80441377D01*
X158716459Y-80405480D01*
X158727348Y-80369583D01*
X158733662Y-80305480D01*
X158733662Y-80005480D01*
X158727348Y-79941377D01*
X158716459Y-79905480D01*
X158727348Y-79869583D01*
X158733662Y-79805480D01*
X158733662Y-79505480D01*
X158727348Y-79441377D01*
X158716459Y-79405480D01*
X158727348Y-79369583D01*
X158733662Y-79305480D01*
X158733662Y-79005480D01*
X158727348Y-78941377D01*
X158716459Y-78905480D01*
X158727348Y-78869583D01*
X158733662Y-78805480D01*
X158733662Y-78505480D01*
X158727348Y-78441377D01*
X158716459Y-78405480D01*
X158727348Y-78369583D01*
X158733662Y-78305480D01*
X158733662Y-78005480D01*
X158727348Y-77941377D01*
X158708650Y-77879737D01*
X158678286Y-77822930D01*
X158637423Y-77773137D01*
X158587630Y-77732274D01*
X158530823Y-77701910D01*
X158469183Y-77683212D01*
X158405080Y-77676898D01*
X157555080Y-77676898D01*
X157490977Y-77683212D01*
X157429337Y-77701910D01*
X157372530Y-77732274D01*
X157322737Y-77773137D01*
X157281874Y-77822930D01*
X157280810Y-77824920D01*
X155329076Y-77824920D01*
X155331268Y-77819628D01*
X155346321Y-77743952D01*
X155532794Y-77557480D01*
X157346690Y-77557480D01*
X157372530Y-77578686D01*
X157429337Y-77609050D01*
X157490977Y-77627748D01*
X157555080Y-77634062D01*
X158405080Y-77634062D01*
X158469183Y-77627748D01*
X158530823Y-77609050D01*
X158587630Y-77578686D01*
X158637423Y-77537823D01*
X158678286Y-77488030D01*
X158708650Y-77431223D01*
X158727348Y-77369583D01*
X158733662Y-77305480D01*
X158733662Y-77005480D01*
X158727348Y-76941377D01*
X158716459Y-76905480D01*
X158727348Y-76869583D01*
X158733662Y-76805480D01*
X158733662Y-76505480D01*
X158727348Y-76441377D01*
X158716459Y-76405480D01*
X158727348Y-76369583D01*
X158733662Y-76305480D01*
X158733662Y-76209062D01*
X158830080Y-76209062D01*
X158894183Y-76202748D01*
X158955823Y-76184050D01*
X159012630Y-76153686D01*
X159062423Y-76112823D01*
X159103286Y-76063030D01*
X159133650Y-76006223D01*
X159152348Y-75944583D01*
X159158662Y-75880480D01*
X159158662Y-75030480D01*
X159152348Y-74966377D01*
X159133650Y-74904737D01*
X159103286Y-74847930D01*
X159062423Y-74798137D01*
X159012630Y-74757274D01*
X158955823Y-74726910D01*
X158894183Y-74708212D01*
X158830080Y-74701898D01*
X158530080Y-74701898D01*
X158465977Y-74708212D01*
X158404337Y-74726910D01*
X158347530Y-74757274D01*
X158297737Y-74798137D01*
X158256874Y-74847930D01*
X158226510Y-74904737D01*
X158207812Y-74966377D01*
X158201498Y-75030480D01*
X158201498Y-75053480D01*
X156990660Y-75053480D01*
X157497140Y-74547000D01*
X160809655Y-74547000D01*
X160748595Y-74608060D01*
G37*
X160748595Y-74608060D02*
X160693657Y-74690280D01*
X160688845Y-74701898D01*
X160530080Y-74701898D01*
X160465977Y-74708212D01*
X160430080Y-74719101D01*
X160394183Y-74708212D01*
X160330080Y-74701898D01*
X160030080Y-74701898D01*
X159965977Y-74708212D01*
X159930080Y-74719101D01*
X159894183Y-74708212D01*
X159830080Y-74701898D01*
X159530080Y-74701898D01*
X159465977Y-74708212D01*
X159404337Y-74726910D01*
X159347530Y-74757274D01*
X159297737Y-74798137D01*
X159256874Y-74847930D01*
X159226510Y-74904737D01*
X159207812Y-74966377D01*
X159201498Y-75030480D01*
X159201498Y-75880480D01*
X159207696Y-75943410D01*
X159206939Y-75945239D01*
X159187647Y-76042224D01*
X159187647Y-76141110D01*
X159206939Y-76238095D01*
X159244780Y-76329453D01*
X159299718Y-76411673D01*
X159369641Y-76481596D01*
X159451861Y-76536534D01*
X159543219Y-76574375D01*
X159640204Y-76593667D01*
X159739090Y-76593667D01*
X159836075Y-76574375D01*
X159878734Y-76556706D01*
X159949854Y-76604227D01*
X160041212Y-76642068D01*
X160138197Y-76661360D01*
X160237083Y-76661360D01*
X160334068Y-76642068D01*
X160425114Y-76604356D01*
X160462934Y-76629627D01*
X160554292Y-76667468D01*
X160651277Y-76686760D01*
X160750163Y-76686760D01*
X160847148Y-76667468D01*
X160938506Y-76629627D01*
X161020726Y-76574689D01*
X161090649Y-76504766D01*
X161145587Y-76422546D01*
X161183428Y-76331188D01*
X161202720Y-76234203D01*
X161202720Y-76209062D01*
X161330080Y-76209062D01*
X161394183Y-76202748D01*
X161455823Y-76184050D01*
X161512630Y-76153686D01*
X161562423Y-76112823D01*
X161603286Y-76063030D01*
X161633650Y-76006223D01*
X161652348Y-75944583D01*
X161658662Y-75880480D01*
X161658662Y-75030480D01*
X161652348Y-74966377D01*
X161640524Y-74927398D01*
X161640524Y-74878623D01*
X161621232Y-74781638D01*
X161583391Y-74690280D01*
X161528453Y-74608060D01*
X161467393Y-74547000D01*
X166402421Y-74547000D01*
X168393001Y-76537581D01*
X168393000Y-77178480D01*
X167115840Y-77178480D01*
X167115840Y-77125917D01*
X167096548Y-77028932D01*
X167067615Y-76959080D01*
X167069809Y-76956886D01*
X167124747Y-76874666D01*
X167162588Y-76783308D01*
X167181880Y-76686323D01*
X167181880Y-76587437D01*
X167162588Y-76490452D01*
X167124747Y-76399094D01*
X167069809Y-76316874D01*
X166999886Y-76246951D01*
X166917666Y-76192013D01*
X166826308Y-76154172D01*
X166729323Y-76134880D01*
X166633662Y-76134880D01*
X166633662Y-76005480D01*
X166627348Y-75941377D01*
X166608650Y-75879737D01*
X166578286Y-75822930D01*
X166537423Y-75773137D01*
X166487630Y-75732274D01*
X166430823Y-75701910D01*
X166369183Y-75683212D01*
X166305080Y-75676898D01*
X166292880Y-75676898D01*
X166292880Y-75612077D01*
X166273588Y-75515092D01*
X166235747Y-75423734D01*
X166180809Y-75341514D01*
X166110886Y-75271591D01*
X166028666Y-75216653D01*
X165937308Y-75178812D01*
X165840323Y-75159520D01*
X165741437Y-75159520D01*
X165658662Y-75175985D01*
X165658662Y-75030480D01*
X165652348Y-74966377D01*
X165633650Y-74904737D01*
X165603286Y-74847930D01*
X165562423Y-74798137D01*
X165512630Y-74757274D01*
X165455823Y-74726910D01*
X165394183Y-74708212D01*
X165330080Y-74701898D01*
X165030080Y-74701898D01*
X164965977Y-74708212D01*
X164904337Y-74726910D01*
X164847530Y-74757274D01*
X164797737Y-74798137D01*
X164756874Y-74847930D01*
X164726510Y-74904737D01*
X164707812Y-74966377D01*
X164701498Y-75030480D01*
X164701498Y-75880480D01*
X164707812Y-75944583D01*
X164724046Y-75998099D01*
X164659271Y-76062874D01*
X164604333Y-76145094D01*
X164582080Y-76198819D01*
X164582080Y-76088870D01*
X164603286Y-76063030D01*
X164633650Y-76006223D01*
X164652348Y-75944583D01*
X164658662Y-75880480D01*
X164658662Y-75030480D01*
X164652348Y-74966377D01*
X164633650Y-74904737D01*
X164603286Y-74847930D01*
X164562423Y-74798137D01*
X164512630Y-74757274D01*
X164455823Y-74726910D01*
X164394183Y-74708212D01*
X164330080Y-74701898D01*
X164030080Y-74701898D01*
X163965977Y-74708212D01*
X163930080Y-74719101D01*
X163894183Y-74708212D01*
X163830080Y-74701898D01*
X163530080Y-74701898D01*
X163465977Y-74708212D01*
X163430080Y-74719101D01*
X163394183Y-74708212D01*
X163330080Y-74701898D01*
X163030080Y-74701898D01*
X162965977Y-74708212D01*
X162904337Y-74726910D01*
X162847530Y-74757274D01*
X162797737Y-74798137D01*
X162756874Y-74847930D01*
X162726510Y-74904737D01*
X162707812Y-74966377D01*
X162701498Y-75030480D01*
X162701498Y-75880480D01*
X162707812Y-75944583D01*
X162723051Y-75994820D01*
X162708240Y-76069277D01*
X162708240Y-76168163D01*
X162727532Y-76265148D01*
X162765373Y-76356506D01*
X162820311Y-76438726D01*
X162890234Y-76508649D01*
X162972454Y-76563587D01*
X163063812Y-76601428D01*
X163160797Y-76620720D01*
X163210331Y-76620720D01*
X163212413Y-76625746D01*
X163267351Y-76707966D01*
X163337274Y-76777889D01*
X163419494Y-76832827D01*
X163510852Y-76870668D01*
X163607837Y-76889960D01*
X163706723Y-76889960D01*
X163803708Y-76870668D01*
X163808902Y-76868517D01*
X163835114Y-76894729D01*
X163917334Y-76949667D01*
X164008692Y-76987508D01*
X164105677Y-77006800D01*
X164204563Y-77006800D01*
X164301548Y-76987508D01*
X164392906Y-76949667D01*
X164475126Y-76894729D01*
X164545049Y-76824806D01*
X164599987Y-76742586D01*
X164632825Y-76663307D01*
X164659271Y-76702886D01*
X164729194Y-76772809D01*
X164811414Y-76827747D01*
X164902772Y-76865588D01*
X164999757Y-76884880D01*
X165098643Y-76884880D01*
X165135244Y-76877599D01*
X165143701Y-76905480D01*
X165132812Y-76941377D01*
X165126498Y-77005480D01*
X165126498Y-77305480D01*
X165132812Y-77369583D01*
X165143701Y-77405480D01*
X165132812Y-77441377D01*
X165126498Y-77505480D01*
X165126498Y-77805480D01*
X165132812Y-77869583D01*
X165143701Y-77905480D01*
X165132812Y-77941377D01*
X165126498Y-78005480D01*
X165126498Y-78305480D01*
X165132812Y-78369583D01*
X165143701Y-78405480D01*
X165132812Y-78441377D01*
X165126498Y-78505480D01*
X165126498Y-78805480D01*
X165132812Y-78869583D01*
X165143701Y-78905480D01*
X165132812Y-78941377D01*
X165126498Y-79005480D01*
X165126498Y-79305480D01*
X165132812Y-79369583D01*
X165143701Y-79405480D01*
X165132812Y-79441377D01*
X165126498Y-79505480D01*
X165126498Y-79805480D01*
X165132812Y-79869583D01*
X165143701Y-79905480D01*
X165132812Y-79941377D01*
X165126498Y-80005480D01*
X165126498Y-80305480D01*
X165132812Y-80369583D01*
X165143701Y-80405480D01*
X165132812Y-80441377D01*
X165126498Y-80505480D01*
X165126498Y-80805480D01*
X165132812Y-80869583D01*
X165151510Y-80931223D01*
X165181874Y-80988030D01*
X165222737Y-81037823D01*
X165272530Y-81078686D01*
X165329337Y-81109050D01*
X165390977Y-81127748D01*
X165455080Y-81134062D01*
X166305080Y-81134062D01*
X166369183Y-81127748D01*
X166430823Y-81109050D01*
X166470604Y-81087786D01*
X166522341Y-81122356D01*
X166613699Y-81160197D01*
X166658814Y-81169171D01*
X166594494Y-81195813D01*
X166512274Y-81250751D01*
X166511314Y-81251711D01*
X166487630Y-81232274D01*
X166430823Y-81201910D01*
X166369183Y-81183212D01*
X166305080Y-81176898D01*
X165455080Y-81176898D01*
X165390977Y-81183212D01*
X165329337Y-81201910D01*
X165272530Y-81232274D01*
X165222737Y-81273137D01*
X165181874Y-81322930D01*
X165151510Y-81379737D01*
X165132812Y-81441377D01*
X165126498Y-81505480D01*
X165126498Y-81805480D01*
X165132812Y-81869583D01*
X165143701Y-81905480D01*
X165132812Y-81941377D01*
X165126498Y-82005480D01*
X165126498Y-82305480D01*
X165132812Y-82369583D01*
X165143701Y-82405480D01*
X165132812Y-82441377D01*
X165126498Y-82505480D01*
X165126498Y-82601898D01*
X165030080Y-82601898D01*
X164965977Y-82608212D01*
X164904337Y-82626910D01*
X164847530Y-82657274D01*
X164797737Y-82698137D01*
X164756874Y-82747930D01*
X164726510Y-82804737D01*
X164707812Y-82866377D01*
X164701498Y-82930480D01*
X164701498Y-83780480D01*
X164707812Y-83844583D01*
X164726510Y-83906223D01*
X164729006Y-83910892D01*
X164653276Y-83835163D01*
X164658662Y-83780480D01*
X164658662Y-82930480D01*
X164652348Y-82866377D01*
X164633650Y-82804737D01*
X164603286Y-82747930D01*
X164562423Y-82698137D01*
X164512630Y-82657274D01*
X164455823Y-82626910D01*
X164394183Y-82608212D01*
X164330080Y-82601898D01*
X164030080Y-82601898D01*
X163965977Y-82608212D01*
X163930080Y-82619101D01*
X163894183Y-82608212D01*
X163830080Y-82601898D01*
X163530080Y-82601898D01*
X163465977Y-82608212D01*
X163430080Y-82619101D01*
X163394183Y-82608212D01*
X163330080Y-82601898D01*
X163030080Y-82601898D01*
X162965977Y-82608212D01*
X162930080Y-82619101D01*
X162894183Y-82608212D01*
X162830080Y-82601898D01*
X162530080Y-82601898D01*
X162465977Y-82608212D01*
X162430080Y-82619101D01*
X162394183Y-82608212D01*
X162330080Y-82601898D01*
X162030080Y-82601898D01*
X161965977Y-82608212D01*
X161930080Y-82619101D01*
X161894183Y-82608212D01*
X161830080Y-82601898D01*
X161530080Y-82601898D01*
X161465977Y-82608212D01*
X161430080Y-82619101D01*
X161394183Y-82608212D01*
X161330080Y-82601898D01*
X161030080Y-82601898D01*
X160965977Y-82608212D01*
X160930080Y-82619101D01*
X160894183Y-82608212D01*
X160830080Y-82601898D01*
X160530080Y-82601898D01*
X160465977Y-82608212D01*
X160430080Y-82619101D01*
X160394183Y-82608212D01*
X160330080Y-82601898D01*
X160030080Y-82601898D01*
X159965977Y-82608212D01*
X159930080Y-82619101D01*
X159894183Y-82608212D01*
X159830080Y-82601898D01*
X159530080Y-82601898D01*
X159465977Y-82608212D01*
X159404337Y-82626910D01*
X159347530Y-82657274D01*
X159297737Y-82698137D01*
X159256874Y-82747930D01*
X159226510Y-82804737D01*
X159207812Y-82866377D01*
X159201498Y-82930480D01*
X159201498Y-83603481D01*
X159158662Y-83603481D01*
X159158662Y-82930480D01*
X159152348Y-82866377D01*
X159133650Y-82804737D01*
X159103286Y-82747930D01*
X159062423Y-82698137D01*
X159012630Y-82657274D01*
X158955823Y-82626910D01*
X158894183Y-82608212D01*
X158830080Y-82601898D01*
X158733662Y-82601898D01*
X158733662Y-82505480D01*
X158727348Y-82441377D01*
X158716459Y-82405480D01*
X158727348Y-82369583D01*
X158733662Y-82305480D01*
X158733662Y-82005480D01*
X158727348Y-81941377D01*
X158716459Y-81905480D01*
X158727348Y-81869583D01*
X158733662Y-81805480D01*
X158733662Y-81505480D01*
X158727348Y-81441377D01*
X158716459Y-81405480D01*
X158727348Y-81369583D01*
X158733662Y-81305480D01*
X158733662Y-81005480D01*
X158727348Y-80941377D01*
X158716459Y-80905480D01*
X158727348Y-80869583D01*
X158733662Y-80805480D01*
X158733662Y-80505480D01*
X158727348Y-80441377D01*
X158716459Y-80405480D01*
X158727348Y-80369583D01*
X158733662Y-80305480D01*
X158733662Y-80005480D01*
X158727348Y-79941377D01*
X158716459Y-79905480D01*
X158727348Y-79869583D01*
X158733662Y-79805480D01*
X158733662Y-79505480D01*
X158727348Y-79441377D01*
X158716459Y-79405480D01*
X158727348Y-79369583D01*
X158733662Y-79305480D01*
X158733662Y-79005480D01*
X158727348Y-78941377D01*
X158716459Y-78905480D01*
X158727348Y-78869583D01*
X158733662Y-78805480D01*
X158733662Y-78505480D01*
X158727348Y-78441377D01*
X158716459Y-78405480D01*
X158727348Y-78369583D01*
X158733662Y-78305480D01*
X158733662Y-78005480D01*
X158727348Y-77941377D01*
X158708650Y-77879737D01*
X158678286Y-77822930D01*
X158637423Y-77773137D01*
X158587630Y-77732274D01*
X158530823Y-77701910D01*
X158469183Y-77683212D01*
X158405080Y-77676898D01*
X157555080Y-77676898D01*
X157490977Y-77683212D01*
X157429337Y-77701910D01*
X157372530Y-77732274D01*
X157322737Y-77773137D01*
X157281874Y-77822930D01*
X157280810Y-77824920D01*
X155329076Y-77824920D01*
X155331268Y-77819628D01*
X155346321Y-77743952D01*
X155532794Y-77557480D01*
X157346690Y-77557480D01*
X157372530Y-77578686D01*
X157429337Y-77609050D01*
X157490977Y-77627748D01*
X157555080Y-77634062D01*
X158405080Y-77634062D01*
X158469183Y-77627748D01*
X158530823Y-77609050D01*
X158587630Y-77578686D01*
X158637423Y-77537823D01*
X158678286Y-77488030D01*
X158708650Y-77431223D01*
X158727348Y-77369583D01*
X158733662Y-77305480D01*
X158733662Y-77005480D01*
X158727348Y-76941377D01*
X158716459Y-76905480D01*
X158727348Y-76869583D01*
X158733662Y-76805480D01*
X158733662Y-76505480D01*
X158727348Y-76441377D01*
X158716459Y-76405480D01*
X158727348Y-76369583D01*
X158733662Y-76305480D01*
X158733662Y-76209062D01*
X158830080Y-76209062D01*
X158894183Y-76202748D01*
X158955823Y-76184050D01*
X159012630Y-76153686D01*
X159062423Y-76112823D01*
X159103286Y-76063030D01*
X159133650Y-76006223D01*
X159152348Y-75944583D01*
X159158662Y-75880480D01*
X159158662Y-75030480D01*
X159152348Y-74966377D01*
X159133650Y-74904737D01*
X159103286Y-74847930D01*
X159062423Y-74798137D01*
X159012630Y-74757274D01*
X158955823Y-74726910D01*
X158894183Y-74708212D01*
X158830080Y-74701898D01*
X158530080Y-74701898D01*
X158465977Y-74708212D01*
X158404337Y-74726910D01*
X158347530Y-74757274D01*
X158297737Y-74798137D01*
X158256874Y-74847930D01*
X158226510Y-74904737D01*
X158207812Y-74966377D01*
X158201498Y-75030480D01*
X158201498Y-75053480D01*
X156990660Y-75053480D01*
X157497140Y-74547000D01*
X160809655Y-74547000D01*
X160748595Y-74608060D01*
G36*
X151384412Y-81625577D02*
G01*
X151454497Y-81632480D01*
X151454498Y-81632480D01*
X151477920Y-81634787D01*
X151501343Y-81632480D01*
X157226498Y-81632480D01*
X157226498Y-81805480D01*
X157232812Y-81869583D01*
X157243701Y-81905480D01*
X157232812Y-81941377D01*
X157226498Y-82005480D01*
X157226498Y-82305480D01*
X157232812Y-82369583D01*
X157243701Y-82405480D01*
X157232812Y-82441377D01*
X157226498Y-82505480D01*
X157226498Y-82805480D01*
X157232812Y-82869583D01*
X157251510Y-82931223D01*
X157281874Y-82988030D01*
X157322737Y-83037823D01*
X157372530Y-83078686D01*
X157429337Y-83109050D01*
X157490977Y-83127748D01*
X157555080Y-83134062D01*
X158201498Y-83134062D01*
X158201498Y-83603481D01*
X152756715Y-83603481D01*
X150760712Y-81607479D01*
X151324750Y-81607479D01*
X151384412Y-81625577D01*
G37*
X151384412Y-81625577D02*
X151454497Y-81632480D01*
X151454498Y-81632480D01*
X151477920Y-81634787D01*
X151501343Y-81632480D01*
X157226498Y-81632480D01*
X157226498Y-81805480D01*
X157232812Y-81869583D01*
X157243701Y-81905480D01*
X157232812Y-81941377D01*
X157226498Y-82005480D01*
X157226498Y-82305480D01*
X157232812Y-82369583D01*
X157243701Y-82405480D01*
X157232812Y-82441377D01*
X157226498Y-82505480D01*
X157226498Y-82805480D01*
X157232812Y-82869583D01*
X157251510Y-82931223D01*
X157281874Y-82988030D01*
X157322737Y-83037823D01*
X157372530Y-83078686D01*
X157429337Y-83109050D01*
X157490977Y-83127748D01*
X157555080Y-83134062D01*
X158201498Y-83134062D01*
X158201498Y-83603481D01*
X152756715Y-83603481D01*
X150760712Y-81607479D01*
X151324750Y-81607479D01*
X151384412Y-81625577D01*
G36*
X153930000Y-78177477D02*
G01*
X153930000Y-78276363D01*
X153939919Y-78326228D01*
X153904607Y-78355207D01*
X153828372Y-78370372D01*
X153737014Y-78408213D01*
X153654794Y-78463151D01*
X153584871Y-78533074D01*
X153529933Y-78615294D01*
X153492092Y-78706652D01*
X153481784Y-78758474D01*
X153421972Y-78770372D01*
X153330614Y-78808213D01*
X153248394Y-78863151D01*
X153178471Y-78933074D01*
X153123533Y-79015294D01*
X153085692Y-79106652D01*
X153066400Y-79203637D01*
X153066400Y-79302523D01*
X153085692Y-79399508D01*
X153123533Y-79490866D01*
X153178471Y-79573086D01*
X153248394Y-79643009D01*
X153330614Y-79697947D01*
X153421972Y-79735788D01*
X153518957Y-79755080D01*
X153617843Y-79755080D01*
X153714828Y-79735788D01*
X153806186Y-79697947D01*
X153870341Y-79655080D01*
X157226498Y-79655080D01*
X157226498Y-79805480D01*
X157232812Y-79869583D01*
X157243701Y-79905480D01*
X157232812Y-79941377D01*
X157226498Y-80005480D01*
X157226498Y-80305480D01*
X157232812Y-80369583D01*
X157243701Y-80405480D01*
X157232812Y-80441377D01*
X157226498Y-80505480D01*
X157226498Y-80678480D01*
X151954920Y-80678480D01*
X151954920Y-80089219D01*
X152904919Y-79139220D01*
X152923260Y-79124168D01*
X153023548Y-79023880D01*
X153038602Y-79005537D01*
X153945727Y-78098412D01*
X153930000Y-78177477D01*
G37*
X153930000Y-78177477D02*
X153930000Y-78276363D01*
X153939919Y-78326228D01*
X153904607Y-78355207D01*
X153828372Y-78370372D01*
X153737014Y-78408213D01*
X153654794Y-78463151D01*
X153584871Y-78533074D01*
X153529933Y-78615294D01*
X153492092Y-78706652D01*
X153481784Y-78758474D01*
X153421972Y-78770372D01*
X153330614Y-78808213D01*
X153248394Y-78863151D01*
X153178471Y-78933074D01*
X153123533Y-79015294D01*
X153085692Y-79106652D01*
X153066400Y-79203637D01*
X153066400Y-79302523D01*
X153085692Y-79399508D01*
X153123533Y-79490866D01*
X153178471Y-79573086D01*
X153248394Y-79643009D01*
X153330614Y-79697947D01*
X153421972Y-79735788D01*
X153518957Y-79755080D01*
X153617843Y-79755080D01*
X153714828Y-79735788D01*
X153806186Y-79697947D01*
X153870341Y-79655080D01*
X157226498Y-79655080D01*
X157226498Y-79805480D01*
X157232812Y-79869583D01*
X157243701Y-79905480D01*
X157232812Y-79941377D01*
X157226498Y-80005480D01*
X157226498Y-80305480D01*
X157232812Y-80369583D01*
X157243701Y-80405480D01*
X157232812Y-80441377D01*
X157226498Y-80505480D01*
X157226498Y-80678480D01*
X151954920Y-80678480D01*
X151954920Y-80089219D01*
X152904919Y-79139220D01*
X152923260Y-79124168D01*
X153023548Y-79023880D01*
X153038602Y-79005537D01*
X153945727Y-78098412D01*
X153930000Y-78177477D01*
%TD*%
M02*
