%TF.GenerationSoftware,KiCad,Pcbnew,(5.1.6)-1*%
%TF.CreationDate,2022-01-15T22:49:59+01:00*%
%TF.ProjectId,XPS15,58505331-352e-46b6-9963-61645f706362,rev?*%
%TF.SameCoordinates,Original*%
%TF.FileFunction,Other,User*%
%FSLAX46Y46*%
G04 Gerber Fmt 4.6, Leading zero omitted, Abs format (unit mm)*
G04 Created by KiCad (PCBNEW (5.1.6)-1) date 2022-01-15 22:49:59*
%MOMM*%
%LPD*%
G01*
G04 APERTURE LIST*
%ADD10C,0.150000*%
%ADD11C,0.050000*%
%ADD12C,0.100000*%
G04 APERTURE END LIST*
D10*
X126023809Y-71180952D02*
X125928571Y-71133333D01*
X125880952Y-71085714D01*
X125833333Y-70990476D01*
X125833333Y-70942857D01*
X125880952Y-70847619D01*
X125928571Y-70800000D01*
X126023809Y-70752380D01*
X126214285Y-70752380D01*
X126309523Y-70800000D01*
X126357142Y-70847619D01*
X126404761Y-70942857D01*
X126404761Y-70990476D01*
X126357142Y-71085714D01*
X126309523Y-71133333D01*
X126214285Y-71180952D01*
X126023809Y-71180952D01*
X125928571Y-71228571D01*
X125880952Y-71276190D01*
X125833333Y-71371428D01*
X125833333Y-71561904D01*
X125880952Y-71657142D01*
X125928571Y-71704761D01*
X126023809Y-71752380D01*
X126214285Y-71752380D01*
X126309523Y-71704761D01*
X126357142Y-71657142D01*
X126404761Y-71561904D01*
X126404761Y-71371428D01*
X126357142Y-71276190D01*
X126309523Y-71228571D01*
X126214285Y-71180952D01*
X126880952Y-71704761D02*
X126880952Y-71752380D01*
X126833333Y-71847619D01*
X126785714Y-71895238D01*
X127500000Y-70752380D02*
X127595238Y-70752380D01*
X127690476Y-70800000D01*
X127738095Y-70847619D01*
X127785714Y-70942857D01*
X127833333Y-71133333D01*
X127833333Y-71371428D01*
X127785714Y-71561904D01*
X127738095Y-71657142D01*
X127690476Y-71704761D01*
X127595238Y-71752380D01*
X127500000Y-71752380D01*
X127404761Y-71704761D01*
X127357142Y-71657142D01*
X127309523Y-71561904D01*
X127261904Y-71371428D01*
X127261904Y-71133333D01*
X127309523Y-70942857D01*
X127357142Y-70847619D01*
X127404761Y-70800000D01*
X127500000Y-70752380D01*
X128452380Y-70752380D02*
X128547619Y-70752380D01*
X128642857Y-70800000D01*
X128690476Y-70847619D01*
X128738095Y-70942857D01*
X128785714Y-71133333D01*
X128785714Y-71371428D01*
X128738095Y-71561904D01*
X128690476Y-71657142D01*
X128642857Y-71704761D01*
X128547619Y-71752380D01*
X128452380Y-71752380D01*
X128357142Y-71704761D01*
X128309523Y-71657142D01*
X128261904Y-71561904D01*
X128214285Y-71371428D01*
X128214285Y-71133333D01*
X128261904Y-70942857D01*
X128309523Y-70847619D01*
X128357142Y-70800000D01*
X128452380Y-70752380D01*
X129404761Y-70752380D02*
X129500000Y-70752380D01*
X129595238Y-70800000D01*
X129642857Y-70847619D01*
X129690476Y-70942857D01*
X129738095Y-71133333D01*
X129738095Y-71371428D01*
X129690476Y-71561904D01*
X129642857Y-71657142D01*
X129595238Y-71704761D01*
X129500000Y-71752380D01*
X129404761Y-71752380D01*
X129309523Y-71704761D01*
X129261904Y-71657142D01*
X129214285Y-71561904D01*
X129166666Y-71371428D01*
X129166666Y-71133333D01*
X129214285Y-70942857D01*
X129261904Y-70847619D01*
X129309523Y-70800000D01*
X129404761Y-70752380D01*
X130928571Y-71752380D02*
X130928571Y-71085714D01*
X130928571Y-71180952D02*
X130976190Y-71133333D01*
X131071428Y-71085714D01*
X131214285Y-71085714D01*
X131309523Y-71133333D01*
X131357142Y-71228571D01*
X131357142Y-71752380D01*
X131357142Y-71228571D02*
X131404761Y-71133333D01*
X131500000Y-71085714D01*
X131642857Y-71085714D01*
X131738095Y-71133333D01*
X131785714Y-71228571D01*
X131785714Y-71752380D01*
X132261904Y-71752380D02*
X132261904Y-71085714D01*
X132261904Y-71180952D02*
X132309523Y-71133333D01*
X132404761Y-71085714D01*
X132547619Y-71085714D01*
X132642857Y-71133333D01*
X132690476Y-71228571D01*
X132690476Y-71752380D01*
X132690476Y-71228571D02*
X132738095Y-71133333D01*
X132833333Y-71085714D01*
X132976190Y-71085714D01*
X133071428Y-71133333D01*
X133119047Y-71228571D01*
X133119047Y-71752380D01*
D11*
X133500000Y-72500000D02*
X125500000Y-72500000D01*
X133500000Y-83000000D02*
X133500000Y-71913579D01*
X125500000Y-83000000D02*
X125500000Y-71913579D01*
X125500000Y-72500000D02*
X126626504Y-71913579D01*
X125500000Y-72500000D02*
X126626504Y-73086421D01*
X133500000Y-72500000D02*
X132373496Y-71913579D01*
X133500000Y-72500000D02*
X132373496Y-73086421D01*
D10*
X176252380Y-96701785D02*
X176252380Y-96082738D01*
X176633333Y-96416071D01*
X176633333Y-96273214D01*
X176680952Y-96177976D01*
X176728571Y-96130357D01*
X176823809Y-96082738D01*
X177061904Y-96082738D01*
X177157142Y-96130357D01*
X177204761Y-96177976D01*
X177252380Y-96273214D01*
X177252380Y-96558928D01*
X177204761Y-96654166D01*
X177157142Y-96701785D01*
X177204761Y-95606547D02*
X177252380Y-95606547D01*
X177347619Y-95654166D01*
X177395238Y-95701785D01*
X176252380Y-94701785D02*
X176252380Y-95177976D01*
X176728571Y-95225595D01*
X176680952Y-95177976D01*
X176633333Y-95082738D01*
X176633333Y-94844642D01*
X176680952Y-94749404D01*
X176728571Y-94701785D01*
X176823809Y-94654166D01*
X177061904Y-94654166D01*
X177157142Y-94701785D01*
X177204761Y-94749404D01*
X177252380Y-94844642D01*
X177252380Y-95082738D01*
X177204761Y-95177976D01*
X177157142Y-95225595D01*
X176252380Y-94320833D02*
X176252380Y-93654166D01*
X177252380Y-94082738D01*
X176252380Y-92797023D02*
X176252380Y-93273214D01*
X176728571Y-93320833D01*
X176680952Y-93273214D01*
X176633333Y-93177976D01*
X176633333Y-92939880D01*
X176680952Y-92844642D01*
X176728571Y-92797023D01*
X176823809Y-92749404D01*
X177061904Y-92749404D01*
X177157142Y-92797023D01*
X177204761Y-92844642D01*
X177252380Y-92939880D01*
X177252380Y-93177976D01*
X177204761Y-93273214D01*
X177157142Y-93320833D01*
X177252380Y-91558928D02*
X176585714Y-91558928D01*
X176680952Y-91558928D02*
X176633333Y-91511309D01*
X176585714Y-91416071D01*
X176585714Y-91273214D01*
X176633333Y-91177976D01*
X176728571Y-91130357D01*
X177252380Y-91130357D01*
X176728571Y-91130357D02*
X176633333Y-91082738D01*
X176585714Y-90987500D01*
X176585714Y-90844642D01*
X176633333Y-90749404D01*
X176728571Y-90701785D01*
X177252380Y-90701785D01*
X177252380Y-90225595D02*
X176585714Y-90225595D01*
X176680952Y-90225595D02*
X176633333Y-90177976D01*
X176585714Y-90082738D01*
X176585714Y-89939880D01*
X176633333Y-89844642D01*
X176728571Y-89797023D01*
X177252380Y-89797023D01*
X176728571Y-89797023D02*
X176633333Y-89749404D01*
X176585714Y-89654166D01*
X176585714Y-89511309D01*
X176633333Y-89416071D01*
X176728571Y-89368452D01*
X177252380Y-89368452D01*
D11*
X175600000Y-94775000D02*
X175600000Y-91200000D01*
X174200000Y-94775000D02*
X176186421Y-94775000D01*
X174200000Y-91200000D02*
X176186421Y-91200000D01*
X175600000Y-91200000D02*
X176186421Y-92326504D01*
X175600000Y-91200000D02*
X175013579Y-92326504D01*
X175600000Y-94775000D02*
X176186421Y-93648496D01*
X175600000Y-94775000D02*
X175013579Y-93648496D01*
%TO.C,R7*%
X141090620Y-118355500D02*
X135965620Y-118355500D01*
X135965620Y-118355500D02*
X135965620Y-115705500D01*
X135965620Y-115705500D02*
X141090620Y-115705500D01*
X141090620Y-115705500D02*
X141090620Y-118355500D01*
%TO.C,R6*%
X140605480Y-119912520D02*
X135480480Y-119912520D01*
X135480480Y-119912520D02*
X135480480Y-117262520D01*
X135480480Y-117262520D02*
X140605480Y-117262520D01*
X140605480Y-117262520D02*
X140605480Y-119912520D01*
%TO.C,R2*%
X140180800Y-132325500D02*
X135055800Y-132325500D01*
X135055800Y-132325500D02*
X135055800Y-129675500D01*
X135055800Y-129675500D02*
X140180800Y-129675500D01*
X140180800Y-129675500D02*
X140180800Y-132325500D01*
%TO.C,R1*%
X141055060Y-130702440D02*
X135930060Y-130702440D01*
X135930060Y-130702440D02*
X135930060Y-128052440D01*
X135930060Y-128052440D02*
X141055060Y-128052440D01*
X141055060Y-128052440D02*
X141055060Y-130702440D01*
%TO.C,IC2*%
X139995860Y-127466520D02*
X134395860Y-127466520D01*
X139995860Y-119616520D02*
X139995860Y-127466520D01*
X134395860Y-119616520D02*
X139995860Y-119616520D01*
X134395860Y-127466520D02*
X134395860Y-119616520D01*
%TO.C,C3*%
X134135860Y-118953520D02*
X134135860Y-118233520D01*
X135555860Y-118953520D02*
X134135860Y-118953520D01*
X135555860Y-118233520D02*
X135555860Y-118953520D01*
X134135860Y-118233520D02*
X135555860Y-118233520D01*
%TO.C,C2*%
X135555860Y-118943520D02*
X135555860Y-119663520D01*
X134135860Y-118943520D02*
X135555860Y-118943520D01*
X134135860Y-119663520D02*
X134135860Y-118943520D01*
X135555860Y-119663520D02*
X134135860Y-119663520D01*
%TO.C,C1*%
X134105860Y-128233520D02*
X134105860Y-127513520D01*
X135525860Y-128233520D02*
X134105860Y-128233520D01*
X135525860Y-127513520D02*
X135525860Y-128233520D01*
X134105860Y-127513520D02*
X135525860Y-127513520D01*
D12*
%TO.C,J1*%
X140300000Y-131790000D02*
X140300000Y-114390000D01*
X140300000Y-114390000D02*
X145250000Y-114390000D01*
X145250000Y-114390000D02*
X145250000Y-131790000D01*
X145250000Y-131790000D02*
X140300000Y-131790000D01*
D11*
%TO.C,IC1*%
X166555080Y-84030480D02*
X157305080Y-84030480D01*
X157305080Y-84030480D02*
X157305080Y-74780480D01*
X157305080Y-74780480D02*
X166555080Y-74780480D01*
X166555080Y-74780480D02*
X166555080Y-84030480D01*
%TO.C,R5*%
X140705800Y-83424880D02*
X140705800Y-80462380D01*
X140705800Y-80462380D02*
X142605800Y-80462380D01*
X142605800Y-80462380D02*
X142605800Y-83424880D01*
X142605800Y-83424880D02*
X140705800Y-83424880D01*
%TO.C,R4*%
X143175240Y-83424400D02*
X143175240Y-80461900D01*
X143175240Y-80461900D02*
X145075240Y-80461900D01*
X145075240Y-80461900D02*
X145075240Y-83424400D01*
X145075240Y-83424400D02*
X143175240Y-83424400D01*
%TO.C,R3*%
X141858960Y-83424300D02*
X141858960Y-80461800D01*
X141858960Y-80461800D02*
X143758960Y-80461800D01*
X143758960Y-80461800D02*
X143758960Y-83424300D01*
X143758960Y-83424300D02*
X141858960Y-83424300D01*
%TD*%
M02*
