%TF.GenerationSoftware,KiCad,Pcbnew,(5.1.6)-1*%
%TF.CreationDate,2022-01-15T22:49:59+01:00*%
%TF.ProjectId,XPS15,58505331-352e-46b6-9963-61645f706362,rev?*%
%TF.SameCoordinates,Original*%
%TF.FileFunction,Other,Fab,Bot*%
%FSLAX46Y46*%
G04 Gerber Fmt 4.6, Leading zero omitted, Abs format (unit mm)*
G04 Created by KiCad (PCBNEW (5.1.6)-1) date 2022-01-15 22:49:59*
%MOMM*%
%LPD*%
G01*
G04 APERTURE LIST*
%ADD10C,0.100000*%
%ADD11C,0.150000*%
G04 APERTURE END LIST*
D10*
G36*
X175000000Y-78100000D02*
G01*
X175000000Y-89500000D01*
X174000000Y-91300000D01*
X148800000Y-91300000D01*
X148600000Y-90700000D01*
X147750000Y-88500000D01*
X147700000Y-86700000D01*
X147200000Y-86300000D01*
X139500000Y-86300000D01*
X139600000Y-77800000D01*
X150700000Y-72800000D01*
X166000000Y-72800000D01*
X175000000Y-78100000D01*
G37*
X175000000Y-78100000D02*
X175000000Y-89500000D01*
X174000000Y-91300000D01*
X148800000Y-91300000D01*
X148600000Y-90700000D01*
X147750000Y-88500000D01*
X147700000Y-86700000D01*
X147200000Y-86300000D01*
X139500000Y-86300000D01*
X139600000Y-77800000D01*
X150700000Y-72800000D01*
X166000000Y-72800000D01*
X175000000Y-78100000D01*
G36*
X145300000Y-131900000D02*
G01*
X134100000Y-131900000D01*
X134100000Y-114400000D01*
X145300000Y-114400000D01*
X145300000Y-131900000D01*
G37*
X145300000Y-131900000D02*
X134100000Y-131900000D01*
X134100000Y-114400000D01*
X145300000Y-114400000D01*
X145300000Y-131900000D01*
%TO.C,U1*%
D11*
X184760476Y-100827380D02*
X184093809Y-101827380D01*
X184093809Y-100827380D02*
X184760476Y-101827380D01*
X183712857Y-101827380D02*
X183712857Y-100827380D01*
X183331904Y-100827380D01*
X183236666Y-100875000D01*
X183189047Y-100922619D01*
X183141428Y-101017857D01*
X183141428Y-101160714D01*
X183189047Y-101255952D01*
X183236666Y-101303571D01*
X183331904Y-101351190D01*
X183712857Y-101351190D01*
X182760476Y-101779761D02*
X182617619Y-101827380D01*
X182379523Y-101827380D01*
X182284285Y-101779761D01*
X182236666Y-101732142D01*
X182189047Y-101636904D01*
X182189047Y-101541666D01*
X182236666Y-101446428D01*
X182284285Y-101398809D01*
X182379523Y-101351190D01*
X182570000Y-101303571D01*
X182665238Y-101255952D01*
X182712857Y-101208333D01*
X182760476Y-101113095D01*
X182760476Y-101017857D01*
X182712857Y-100922619D01*
X182665238Y-100875000D01*
X182570000Y-100827380D01*
X182331904Y-100827380D01*
X182189047Y-100875000D01*
X181760476Y-101446428D02*
X180998571Y-101446428D01*
X180189047Y-101303571D02*
X180522380Y-101303571D01*
X180522380Y-101827380D02*
X180522380Y-100827380D01*
X180046190Y-100827380D01*
X179189047Y-101827380D02*
X179665238Y-101827380D01*
X179665238Y-100827380D01*
X178855714Y-101303571D02*
X178522380Y-101303571D01*
X178379523Y-101827380D02*
X178855714Y-101827380D01*
X178855714Y-100827380D01*
X178379523Y-100827380D01*
X178046190Y-100827380D02*
X177379523Y-101827380D01*
X177379523Y-100827380D02*
X178046190Y-101827380D01*
%TD*%
M02*
