%TF.GenerationSoftware,KiCad,Pcbnew,(5.1.6)-1*%
%TF.CreationDate,2022-01-15T22:49:59+01:00*%
%TF.ProjectId,XPS15,58505331-352e-46b6-9963-61645f706362,rev?*%
%TF.SameCoordinates,Original*%
%TF.FileFunction,Paste,Top*%
%TF.FilePolarity,Positive*%
%FSLAX46Y46*%
G04 Gerber Fmt 4.6, Leading zero omitted, Abs format (unit mm)*
G04 Created by KiCad (PCBNEW (5.1.6)-1) date 2022-01-15 22:49:59*
%MOMM*%
%LPD*%
G01*
G04 APERTURE LIST*
%ADD10R,1.150000X1.150000*%
%ADD11R,0.450000X1.475000*%
%ADD12R,0.460000X0.420000*%
%ADD13R,0.650000X0.240000*%
%ADD14R,4.450000X4.450000*%
%ADD15R,0.300000X0.850000*%
%ADD16R,0.850000X0.300000*%
%ADD17R,0.500000X0.475000*%
%ADD18R,0.700000X1.400000*%
%ADD19R,0.400000X0.800000*%
G04 APERTURE END LIST*
D10*
%TO.C,R7*%
X137040620Y-117030500D03*
X139390620Y-117030500D03*
%TD*%
%TO.C,R6*%
X136555480Y-118587520D03*
X138905480Y-118587520D03*
%TD*%
%TO.C,R2*%
X136130800Y-131000500D03*
X138480800Y-131000500D03*
%TD*%
%TO.C,R1*%
X137005060Y-129377440D03*
X139355060Y-129377440D03*
%TD*%
D11*
%TO.C,IC2*%
X135245860Y-120603520D03*
X135895860Y-120603520D03*
X136545860Y-120603520D03*
X137195860Y-120603520D03*
X137845860Y-120603520D03*
X138495860Y-120603520D03*
X139145860Y-120603520D03*
X139145860Y-126479520D03*
X138495860Y-126479520D03*
X137845860Y-126479520D03*
X137195860Y-126479520D03*
X136545860Y-126479520D03*
X135895860Y-126479520D03*
X135245860Y-126479520D03*
%TD*%
D12*
%TO.C,C3*%
X135175860Y-118593520D03*
X134515860Y-118593520D03*
%TD*%
%TO.C,C2*%
X134515860Y-119303520D03*
X135175860Y-119303520D03*
%TD*%
%TO.C,C1*%
X135145860Y-127873520D03*
X134485860Y-127873520D03*
%TD*%
D13*
%TO.C,J1*%
X144425000Y-115590000D03*
X141375000Y-115890000D03*
X144425000Y-116190000D03*
X141375000Y-116490000D03*
X144425000Y-116790000D03*
X141375000Y-117090000D03*
X144425000Y-117390000D03*
X141375000Y-117690000D03*
X144425000Y-117990000D03*
X141375000Y-118290000D03*
X144425000Y-118590000D03*
X141375000Y-118890000D03*
X144425000Y-119190000D03*
X141375000Y-119490000D03*
X144425000Y-119790000D03*
X141375000Y-120090000D03*
X144425000Y-120390000D03*
X141375000Y-120690000D03*
X144425000Y-120990000D03*
X141375000Y-121290000D03*
X144425000Y-121590000D03*
X141375000Y-121890000D03*
X144425000Y-122190000D03*
X141375000Y-122490000D03*
X144425000Y-122790000D03*
X141375000Y-123090000D03*
X144425000Y-123390000D03*
X141375000Y-123690000D03*
X144425000Y-123990000D03*
X141375000Y-124290000D03*
X144425000Y-124590000D03*
X141375000Y-124890000D03*
X144425000Y-125190000D03*
X141375000Y-125490000D03*
X144425000Y-125790000D03*
X141375000Y-126090000D03*
X144425000Y-126390000D03*
X141375000Y-126690000D03*
X144425000Y-126990000D03*
X141375000Y-127290000D03*
X144425000Y-127590000D03*
X141375000Y-127890000D03*
X144425000Y-128190000D03*
X141375000Y-128490000D03*
X144425000Y-128790000D03*
X141375000Y-129090000D03*
X144425000Y-129390000D03*
X141375000Y-129690000D03*
X144425000Y-129990000D03*
X141375000Y-130290000D03*
X144425000Y-130590000D03*
%TD*%
D14*
%TO.C,IC1*%
X161930080Y-79405480D03*
D15*
X165180080Y-83355480D03*
X164680080Y-83355480D03*
X164180080Y-83355480D03*
X163680080Y-83355480D03*
X163180080Y-83355480D03*
X162680080Y-83355480D03*
X162180080Y-83355480D03*
X161680080Y-83355480D03*
X161180080Y-83355480D03*
X160680080Y-83355480D03*
X160180080Y-83355480D03*
X159680080Y-83355480D03*
X159180080Y-83355480D03*
X158680080Y-83355480D03*
D16*
X157980080Y-82655480D03*
X157980080Y-82155480D03*
X157980080Y-81655480D03*
X157980080Y-81155480D03*
X157980080Y-80655480D03*
X157980080Y-80155480D03*
X157980080Y-79655480D03*
X157980080Y-79155480D03*
X157980080Y-78655480D03*
X157980080Y-78155480D03*
X157980080Y-77655480D03*
X157980080Y-77155480D03*
X157980080Y-76655480D03*
X157980080Y-76155480D03*
D15*
X158680080Y-75455480D03*
X159180080Y-75455480D03*
X159680080Y-75455480D03*
X160180080Y-75455480D03*
X160680080Y-75455480D03*
X161180080Y-75455480D03*
X161680080Y-75455480D03*
X162180080Y-75455480D03*
X162680080Y-75455480D03*
X163180080Y-75455480D03*
X163680080Y-75455480D03*
X164180080Y-75455480D03*
X164680080Y-75455480D03*
X165180080Y-75455480D03*
D16*
X165880080Y-76155480D03*
X165880080Y-76655480D03*
X165880080Y-77155480D03*
X165880080Y-77655480D03*
X165880080Y-78155480D03*
X165880080Y-78655480D03*
X165880080Y-79155480D03*
X165880080Y-79655480D03*
X165880080Y-80155480D03*
X165880080Y-80655480D03*
X165880080Y-81155480D03*
X165880080Y-81655480D03*
X165880080Y-82155480D03*
X165880080Y-82655480D03*
%TD*%
D17*
%TO.C,R5*%
X141655800Y-81199880D03*
X141655800Y-82224880D03*
%TD*%
%TO.C,R4*%
X144125240Y-81199400D03*
X144125240Y-82224400D03*
%TD*%
%TO.C,R3*%
X142808960Y-81199300D03*
X142808960Y-82224300D03*
%TD*%
D18*
%TO.C,U2*%
X174600000Y-87540000D03*
X148300000Y-87540000D03*
D19*
X153850000Y-90640000D03*
X155450000Y-90640000D03*
X153050000Y-90640000D03*
X157050000Y-90640000D03*
X154650000Y-90640000D03*
X156250000Y-90640000D03*
X152250000Y-90640000D03*
X151450000Y-90640000D03*
X150650000Y-90640000D03*
X149850000Y-90640000D03*
X161850000Y-90640000D03*
X163450000Y-90640000D03*
X161050000Y-90640000D03*
X165050000Y-90640000D03*
X162650000Y-90640000D03*
X164250000Y-90640000D03*
X160250000Y-90640000D03*
X159450000Y-90640000D03*
X158650000Y-90640000D03*
X157850000Y-90640000D03*
X165850000Y-90640000D03*
X166650000Y-90640000D03*
X167450000Y-90640000D03*
X168250000Y-90640000D03*
X169050000Y-90640000D03*
X169850000Y-90640000D03*
X170650000Y-90640000D03*
X171450000Y-90640000D03*
X172250000Y-90640000D03*
X173050000Y-90640000D03*
%TD*%
M02*
