M48
; DRILL file {KiCad (5.1.6)-1} date 01/15/22 22:50:01
; FORMAT={-:-/ absolute / inch / decimal}
; #@! TF.CreationDate,2022-01-15T22:50:01+01:00
; #@! TF.GenerationSoftware,Kicad,Pcbnew,(5.1.6)-1
FMAT,2
INCH
T1C0.0059
%
G90
G05
T1
X5.015Y-3.4378
X5.015Y-3.6862
X5.0165Y-4.3287
X5.0169Y-4.1622
X5.0173Y-3.2772
X5.0173Y-4.0713
X5.0179Y-5.1832
X5.0181Y-4.5752
X5.0188Y-4.491
X5.0197Y-3.8972
X5.024Y-4.722
X5.0329Y-5.1482
X5.0385Y-4.7905
X5.046Y-4.9919
X5.0487Y-4.4573
X5.0488Y-4.1209
X5.0504Y-3.9988
X5.052Y-4.4146
X5.0547Y-4.2386
X5.0558Y-4.5571
X5.0563Y-3.7906
X5.0567Y-3.578
X5.0579Y-5.085
X5.0594Y-4.8736
X5.0606Y-3.3154
X5.0662Y-4.9241
X5.1193Y-3.2429
X5.1207Y-4.6519
X5.122Y-4.774
X5.1248Y-5.1598
X5.129Y-4.8498
X5.1374Y-4.9638
X5.1394Y-4.4349
X5.1422Y-4.9115
X5.155Y-4.6003
X5.1575Y-3.3661
X5.1575Y-3.4646
X5.1575Y-3.622
X5.1575Y-3.7402
X5.1575Y-3.8583
X5.1575Y-3.9764
X5.1575Y-4.0945
X5.1575Y-4.2126
X5.1575Y-4.3701
X5.1575Y-4.4882
X5.1591Y-4.548
X5.1674Y-4.6992
X5.1744Y-5.0311
X5.1757Y-5.1781
X5.1874Y-5.0984
X5.1894Y-3.211
X5.1949Y-4.8815
X5.1976Y-3.3039
X5.2007Y-4.6537
X5.2154Y-5.1429
X5.2343Y-4.6122
X5.2358Y-4.7063
X5.2362Y-3.4252
X5.2362Y-3.5433
X5.2362Y-3.6614
X5.2362Y-3.7795
X5.2362Y-3.8976
X5.2362Y-4.0157
X5.2362Y-4.1339
X5.2362Y-4.252
X5.2362Y-4.4094
X5.2382Y-4.9673
X5.2406Y-4.8587
X5.247Y-4.7786
X5.25Y-4.5185
X5.2508Y-4.6651
X5.2663Y-5.0736
X5.2671Y-4.89
X5.2695Y-5.1699
X5.2739Y-5.13
X5.2748Y-3.2122
X5.2752Y-3.3256
X5.2768Y-4.6268
X5.2796Y-4.9881
X5.2885Y-4.7457
X5.2941Y-4.5411
X5.3Y-4.9365
X5.3193Y-3.1496
X5.3207Y-5.184
X5.3207Y-5.0344
X5.3346Y-3.3661
X5.3384Y-4.8599
X5.3398Y-4.5161
X5.3425Y-4.5984
X5.3642Y-3.2134
X5.3697Y-3.3
X5.3807Y-4.5385
X5.3827Y-4.9311
X5.3939Y-5.0564
X5.4017Y-4.515
X5.4055Y-5.1535
X5.4083Y-3.1193
X5.4093Y-4.8426
X5.4209Y-3.326
X5.4384Y-4.8105
X5.4386Y-3.1567
X5.4429Y-4.8886
X5.4522Y-4.8472
X5.4528Y-3.3661
X5.459Y-4.5121
X5.4705Y-3.2705
X5.4801Y-4.8128
X5.4818Y-4.5639
X5.4878Y-4.886
X5.4978Y-5.0498
X5.5051Y-5.1798
X5.5149Y-4.9752
X5.5177Y-3.0709
X5.5183Y-4.8749
X5.5214Y-4.6593
X5.5237Y-4.5187
X5.527Y-4.9327
X5.5274Y-5.142
X5.5287Y-5.0252
X5.5294Y-4.9012
X5.5296Y-4.8372
X5.5299Y-5.0512
X5.5307Y-4.5574
X5.5339Y-3.2398
X5.5394Y-4.7114
X5.5681Y-5.1716
X5.5709Y-3.3661
X5.5854Y-3.1583
X5.6Y-3.2654
X5.6041Y-4.9652
X5.6056Y-5.1218
X5.6082Y-4.8153
X5.6102Y-4.8763
X5.6118Y-4.9965
X5.6197Y-5.072
X5.6221Y-5.049
X5.6232Y-4.5264
X5.6256Y-4.5724
X5.628Y-5.1661
X5.6304Y-3.1732
X5.6311Y-4.7476
X5.6343Y-3.1197
X5.6347Y-4.9098
X5.6362Y-3.3197
X5.6366Y-4.9425
X5.6426Y-5.1387
X5.6447Y-5.1026
X5.6449Y-4.8468
X5.6492Y-4.9615
X5.6567Y-5.043
X5.6606Y-3.0992
X5.6673Y-3.0008
X5.6694Y-3.1706
X5.689Y-3.3661
X5.6965Y-3.2618
X5.6965Y-4.5256
X5.7004Y-5.1776
X5.7154Y-3.1482
X5.7212Y-3.0752
X5.7346Y-3.3201
X5.7461Y-3.1681
X5.7584Y-2.9588
X5.7701Y-3.1531
X5.7705Y-3.265
X5.7874Y-3.3661
X5.7984Y-3.103
X5.8039Y-3.1913
X5.8134Y-3.2768
X5.8193Y-3.3248
X5.828Y-3.1772
X5.83Y-3.2128
X5.8317Y-3.2368
X5.8438Y-2.991
X5.8465Y-3.3661
X5.8465Y-3.5039
X5.8477Y-3.1774
X5.8638Y-3.0929
X5.8654Y-3.572
X5.8661Y-3.3071
X5.8707Y-3.1951
X5.8753Y-3.6443
X5.878Y-3.4472
X5.8783Y-3.4004
X5.8842Y-2.9024
X5.8996Y-3.5929
X5.9024Y-3.233
X5.9063Y-3.0409
X5.913Y-3.2128
X5.9142Y-3.111
X5.9307Y-3.5933
X5.9408Y-2.9322
X5.9476Y-3.1266
X5.9536Y-2.9934
X5.963Y-3.5933
X5.9831Y-3.0945
X5.9937Y-3.5941
X5.9982Y-2.8782
X6.0226Y-2.9486
X6.0256Y-3.5945
X6.046Y-3.1202
X6.0571Y-3.5945
X6.062Y-3.1045
X6.08Y-3.0798
X6.0886Y-3.5949
X6.0964Y-3.058
X6.1088Y-2.8804
X6.1147Y-3.022
X6.1201Y-3.5957
X6.1334Y-3.4386
X6.134Y-3.2648
X6.1342Y-3.0044
X6.1516Y-3.5957
X6.1586Y-2.9825
X6.1799Y-3.1429
X6.1822Y-3.0592
X6.1831Y-3.5976
X6.215Y-3.5976
X6.2461Y-3.5988
X6.2566Y-2.8802
X6.2776Y-3.6
X6.287Y-2.9957
X6.3066Y-2.9984
X6.3091Y-3.5992
X6.3268Y-2.9994
X6.3406Y-3.6004
X6.344Y-2.9499
X6.3724Y-3.6008
X6.3862Y-2.9394
X6.4035Y-3.6028
X6.4146Y-2.88
X6.4256Y-2.9968
X6.4354Y-3.6028
X6.4432Y-3.0074
X6.4628Y-3.012
X6.4665Y-3.6035
X6.482Y-2.941
X6.498Y-3.0072
X6.498Y-3.6012
X6.5272Y-2.9788
X6.5295Y-3.602
X6.5296Y-2.8814
X6.5596Y-3.0384
X6.561Y-3.602
X6.5616Y-2.9534
X6.5616Y-3.0774
X6.5622Y-3.0172
X6.5625Y-3.1373
X6.5628Y-3.098
X6.5634Y-3.1177
X6.5654Y-3.1763
X6.5682Y-3.1568
X6.5682Y-3.2142
X6.5692Y-3.2342
X6.5716Y-3.2548
X6.5764Y-3.2882
X6.5882Y-2.9902
X6.5925Y-3.6031
X6.6122Y-3.0256
X6.6142Y-3.1102
X6.6142Y-3.189
X6.624Y-3.6031
X6.6326Y-2.9398
X6.6396Y-3.3092
X6.6555Y-3.6051
X6.6664Y-3.3266
X6.6878Y-3.6051
X6.6929Y-2.9921
X6.6929Y-3.0709
X6.6929Y-3.1496
X6.6929Y-3.2283
X6.6968Y-3.339
X6.7185Y-3.6043
X6.7266Y-3.353
X6.75Y-3.6043
X6.7717Y-3.0315
X6.7717Y-3.1102
X6.7717Y-3.189
X6.7717Y-3.3071
X6.7815Y-3.6063
X6.813Y-3.6039
X6.8315Y-3.4461
X6.8384Y-3.6321
X6.8476Y-3.5705
X6.8504Y-3.0709
X6.8504Y-3.1496
X6.8504Y-3.2677
X6.8504Y-3.3465
X6.8768Y-3.3669
X6.8787Y-3.4969
T0
M30
